<svg width="24" height="24" viewBox="0 0 24 24" fill="none" xmlns="http://www.w3.org/2000/svg">
<rect x="2.5" y="2.5" width="19" height="19" rx="5.5" stroke="#D6D6D6"/>
<g clip-path="url(#clip0)">
<path d="M14.7984 21.9707H12.3916C11.9895 21.9707 11.6625 21.6443 11.6625 21.2431V15.825H10.2583C9.85632 15.825 9.5293 15.4985 9.5293 15.0974V12.7757C9.5293 12.3745 9.85632 12.0481 10.2583 12.0481H11.6625V10.8855C11.6625 9.73273 12.0252 8.75198 12.7112 8.04942C13.4004 7.34367 14.3635 6.9707 15.4963 6.9707L17.3319 6.97368C17.7332 6.97437 18.0597 7.30075 18.0597 7.70129V9.8569C18.0597 10.2581 17.7328 10.5845 17.3309 10.5845L16.095 10.585C15.7181 10.585 15.6221 10.6604 15.6016 10.6835C15.5678 10.7218 15.5275 10.8302 15.5275 11.1295V12.048H17.238C17.3668 12.048 17.4915 12.0797 17.5987 12.1394C17.83 12.2684 17.9738 12.5123 17.9738 12.7758L17.9729 15.0975C17.9729 15.4985 17.6459 15.8249 17.2438 15.8249H15.5275V21.2431C15.5275 21.6443 15.2004 21.9707 14.7984 21.9707ZM12.5436 21.0913H14.6463V15.4313C14.6463 15.1634 14.8648 14.9455 15.1331 14.9455H17.0918L17.0926 12.9275H15.133C14.8647 12.9275 14.6463 12.7096 14.6463 12.4417V11.1295C14.6463 10.7859 14.6813 10.3952 14.9411 10.1016C15.2551 9.74658 15.7499 9.70561 16.0948 9.70561L17.1786 9.70515V7.85281L15.4957 7.85007C13.675 7.85007 12.5436 9.01324 12.5436 10.8855V12.4417C12.5436 12.7095 12.3253 12.9275 12.057 12.9275H10.4104V14.9455H12.057C12.3253 14.9455 12.5436 15.1634 12.5436 15.4313V21.0913ZM17.3302 7.85304H17.3303H17.3302Z" fill="white"/>
</g>
<defs>
<clipPath id="clip0">
<rect width="15" height="15" fill="white" transform="translate(6.28516 7)"/>
</clipPath>
</defs>
</svg>
