<svg width="69" height="68" viewBox="0 0 69 68" fill="none" xmlns="http://www.w3.org/2000/svg">
<path d="M65.5825 53.1451L52.916 50.7159L41.2107 48.471L29.4771 46.2208L17.7436 43.9705L21.5024 37.7065L25.2612 31.4424L29.135 24.9867L33.3925 17.8917L37.7605 22.6755L41.7351 27.0283L45.5916 31.2518L49.4875 35.5184L53.4055 39.8092L57.2792 44.0516L61.3106 48.4665L65.5825 53.1451Z" fill="black"/>
<path d="M17.7436 43.9705L29.4771 46.2208L41.2107 48.471M17.7436 43.9705L49.4875 35.5184M17.7436 43.9705L21.5024 37.7065L25.2612 31.4424M57.2792 44.0516L61.3106 48.4665L65.5825 53.1451L52.916 50.7159L41.2107 48.471M57.2792 44.0516L41.2107 48.471M57.2792 44.0516L53.4055 39.8092L49.4875 35.5184M49.4875 35.5184L45.5916 31.2518L41.7351 27.0283M25.2612 31.4424L41.7351 27.0283M25.2612 31.4424L29.135 24.9867L33.3925 17.8917L37.7605 22.6755L41.7351 27.0283" stroke="#F7F7F7" stroke-width="2" stroke-linecap="round"/>
<path d="M21.3178 21.9085L13.8292 11.5776" stroke="#F7F7F7" stroke-width="2" stroke-linecap="round"/>
<path d="M17.4482 28.4025L4.84307 26.0625" stroke="#F7F7F7" stroke-width="2" stroke-linecap="round"/>
<path d="M27.4638 16.6976L26.4906 6.65918" stroke="#F7F7F7" stroke-width="2" stroke-linecap="round"/>
<path d="M16.0475 35.5446L6.73535 38.8936" stroke="#F7F7F7" stroke-width="2" stroke-linecap="round"/>
</svg>
