<svg width="24" height="24" viewBox="0 0 24 24" fill="none" xmlns="http://www.w3.org/2000/svg">
<rect x="2.5" y="2.5" width="19" height="19" rx="1.5" fill="#F84437" stroke="#D6D6D6"/>
<g clip-path="url(#clip0)">
<path d="M17.9694 7.4082H6.0306C5.77699 7.4082 5.57141 7.61379 5.57141 7.86737V16.1327C5.57141 16.3863 5.77699 16.5919 6.0306 16.5919H17.9694C18.223 16.5919 18.4286 16.3863 18.4286 16.1327V7.86737C18.4286 7.61379 18.223 7.4082 17.9694 7.4082ZM17.2163 8.32656L12 12.3389L6.78366 8.32656H17.2163ZM17.5102 15.6735H6.48977V9.25915L11.7203 13.2825C11.8853 13.4092 12.1147 13.4092 12.2796 13.2825L17.5102 9.25915V15.6735Z" fill="white"/>
</g>
<defs>
<clipPath id="clip0">
<rect width="12.8571" height="12.8571" fill="white" transform="translate(5.57141 5.57129)"/>
</clipPath>
</defs>
</svg>
