<svg width="24" height="24" viewBox="0 0 24 24" fill="none" xmlns="http://www.w3.org/2000/svg">
<rect x="2.5" y="2.5" width="19" height="19" rx="5.5" stroke="#D6D6D6"/>
<g clip-path="url(#clip0)">
<path d="M17.9692 7.40625H6.03048C5.77687 7.40625 5.57129 7.61183 5.57129 7.86542V16.1307C5.57129 16.3843 5.77687 16.5899 6.03048 16.5899H17.9692C18.2228 16.5899 18.4284 16.3843 18.4284 16.1307V7.86542C18.4284 7.61183 18.2228 7.40625 17.9692 7.40625ZM17.2162 8.32461L11.9998 12.337L6.78353 8.32461H17.2162ZM17.51 15.6716H6.48965V9.2572L11.7202 13.2806C11.8851 13.4072 12.1146 13.4072 12.2795 13.2806L17.51 9.2572V15.6716Z" fill="white"/>
</g>
<defs>
<clipPath id="clip0">
<rect width="12.8571" height="12.8571" fill="white" transform="translate(5.57129 5.57031)"/>
</clipPath>
</defs>
</svg>
