<svg width="43" height="38" viewBox="0 0 43 38" fill="none" xmlns="http://www.w3.org/2000/svg">
<path d="M14.1512 1.94692C5.44871 2.69479 2.32124 12.2132 12.3835 17.4483L12.3155 17.5163C6.60451 14.2528 2.93313 15.4766 2.11727 17.3123C-0.330314 23.2273 9.12008 26.8987 17.0747 28.5304C22.6498 29.6862 27.7489 25.4709 26.9331 20.4398C26.3212 16.9044 22.9897 14.1848 20.2022 12.4851V12.4171C24.6215 15.3406 29.7886 14.8647 30.4685 11.9412C32.1002 5.14237 19.0464 1.471 14.1512 1.94692Z" fill="white"/>
<path d="M17.0068 19.2841C1.57341 14.8648 4.36093 2.83085 14.1513 1.947C19.0464 1.47108 32.1002 5.21045 30.5365 12.0093C29.8566 14.9328 24.6215 15.4087 20.2702 12.4852" stroke="black" stroke-width="2" stroke-miterlimit="10" stroke-linecap="round" stroke-linejoin="round"/>
<path d="M16.4629 10.5815C16.4629 10.5815 25.8453 14.2529 26.9331 20.5079C27.749 25.471 22.6499 29.7543 17.0748 28.5985C9.12015 26.8988 -0.330245 23.2274 2.18533 17.3124C2.9332 15.5447 6.60458 14.2529 12.3836 17.5164" stroke="black" stroke-width="2" stroke-miterlimit="10" stroke-linecap="round" stroke-linejoin="round"/>
<path d="M33.4457 14.5C35.2134 1.99008 27.5987 1.71812 25.1512 4.84559C20.7319 10.4886 20.324 26.126 20.324 29.3894C20.324 34.7605 23.8594 37.2081 26.9868 35.0325C30.1143 32.8568 30.7262 24.5622 30.7262 24.5622L29.7064 30.1373C29.7064 30.1373 30.3183 35.8483 33.9217 36.1883C37.3891 36.5282 40.2446 32.5169 40.7885 27.4857C41.3324 22.4546 40.6525 14.6359 34.8055 14.432C29.4344 14.228 27.9387 18.7832 27.9387 18.7832" fill="#FF5924"/>
<path d="M23.5193 8.58449C23.5193 8.58449 23.6553 10.9641 25.6949 11.0321C27.7346 11.1001 30.3861 4.30122 28.2105 3.55334" stroke="black" stroke-width="2" stroke-miterlimit="10" stroke-linecap="round" stroke-linejoin="round"/>
<path d="M28.0068 18.7826C28.0068 18.7826 29.5026 14.2274 34.8737 14.4313C40.7207 14.7033 41.4006 22.454 40.8567 27.4851C40.3127 32.5163 37.4572 36.5276 33.9898 36.1876C30.3864 35.8477 29.7745 30.1367 29.7745 30.1367" stroke="black" stroke-width="2" stroke-miterlimit="10" stroke-linecap="round" stroke-linejoin="round"/>
<path d="M30.7262 24.5617C30.7262 24.5617 30.1143 32.8563 26.9868 35.032C23.8593 37.2076 20.256 34.76 20.3239 29.3889C20.3239 26.0575 20.7319 10.4881 25.1511 4.84509C27.5987 1.71762 35.2134 1.92159 33.4457 14.4995" stroke="black" stroke-width="2" stroke-miterlimit="10" stroke-linecap="round" stroke-linejoin="round"/>
</svg>
