<svg width="47" height="42" viewBox="0 0 47 42" fill="none" xmlns="http://www.w3.org/2000/svg">
<path d="M15.1314 1.56028C5.19884 2.41386 1.62934 13.2776 13.1138 19.2526L13.0362 19.3302C6.51801 15.6055 2.32772 17.0023 1.39654 19.0974C-1.39699 25.8485 9.38914 30.0388 18.4681 31.9011C24.8311 33.2203 30.651 28.4092 29.7198 22.6669C29.0214 18.6318 25.2191 15.5279 22.0376 13.588V13.5104C27.0815 16.8471 32.9789 16.3039 33.7549 12.9672C35.6173 5.20738 20.7184 1.01709 15.1314 1.56028Z" fill="white"/>
<path d="M18.3907 21.3479C0.775983 16.304 3.9575 2.56917 15.1316 1.5604C20.7187 1.01721 35.6175 5.2851 33.8327 13.0449C33.0568 16.3816 27.0817 16.9248 22.1154 13.5881" stroke="#0B0B0D" stroke-width="2" stroke-miterlimit="10" stroke-linecap="round" stroke-linejoin="round"/>
<path d="M17.7699 11.4154C17.7699 11.4154 28.4784 15.6057 29.72 22.7447C30.6511 28.4094 24.8313 33.298 18.4683 31.9789C9.38929 30.0389 -1.39684 25.8486 1.47429 19.0976C2.32787 17.0801 6.51816 15.6057 13.114 19.3304" stroke="#0B0B0D" stroke-width="2" stroke-miterlimit="10" stroke-linecap="round" stroke-linejoin="round"/>
<path d="M37.1529 15.8883C39.1705 1.6103 30.4795 1.2999 27.686 4.86941C22.6421 11.31 22.1765 29.1576 22.1765 32.8823C22.1765 39.0125 26.2116 41.8061 29.7811 39.3229C33.3506 36.8398 34.049 27.3728 34.049 27.3728L32.885 33.7359C32.885 33.7359 33.5834 40.2541 37.6961 40.6421C41.6536 41.0301 44.9127 36.4518 45.5335 30.7096C46.1543 24.9673 45.3783 16.0435 38.7049 15.8107C32.5747 15.5779 30.8675 20.777 30.8675 20.777" fill="#FF5924"/>
<path d="M25.8236 9.13605C25.8236 9.13605 25.9788 11.852 28.3067 11.9296C30.6347 12.0072 33.661 4.24738 31.1779 3.3938" stroke="#0B0B0D" stroke-width="2" stroke-miterlimit="10" stroke-linecap="round" stroke-linejoin="round"/>
<path d="M30.9454 20.7756C30.9454 20.7756 32.6526 15.5766 38.7828 15.8093C45.4563 16.1197 46.2322 24.9659 45.6115 30.7082C44.9907 36.4504 41.7316 41.0287 37.7741 40.6407C33.6614 40.2527 32.963 33.7345 32.963 33.7345" stroke="#0B0B0D" stroke-width="2" stroke-miterlimit="10" stroke-linecap="round" stroke-linejoin="round"/>
<path d="M34.0491 27.3716C34.0491 27.3716 33.3507 36.8385 29.7812 39.3217C26.2117 41.8048 22.099 39.0113 22.1766 32.881C22.1766 29.0787 22.6422 11.3088 27.6861 4.86816C30.4796 1.29865 39.1706 1.53144 37.153 15.8871" stroke="#0B0B0D" stroke-width="2" stroke-miterlimit="10" stroke-linecap="round" stroke-linejoin="round"/>
</svg>
