<svg width="24" height="24" viewBox="0 0 24 24" fill="none" xmlns="http://www.w3.org/2000/svg">
<path d="M2 9.6555L9.44828 5L11.8391 6.87722L14 5L22 9.6555C16.8506 16.2633 14.1992 17.4146 11.8391 18.5159C8.74943 17.7951 3.99234 12.3086 2 9.6555Z" fill="#0E0E0E"/>
<path d="M2 9.6555L1.46997 8.80751L0.546231 9.38489L1.20036 10.256L2 9.6555ZM9.44828 5L10.0658 4.21348L9.51362 3.77989L8.91825 4.15202L9.44828 5ZM11.8391 6.87722L11.2215 7.66374L11.8713 8.1739L12.4949 7.63214L11.8391 6.87722ZM14 5L14.503 4.1357L13.8844 3.77575L13.3442 4.24508L14 5ZM22 9.6555L22.7888 10.2702L23.4926 9.36707L22.503 8.79119L22 9.6555ZM11.8391 14.1161L11.4262 15.0269L11.8325 15.2111L12.2411 15.0318L11.8391 14.1161ZM11.8391 18.5159L11.6119 19.4898L11.9486 19.5684L12.2619 19.4221L11.8391 18.5159ZM11.8391 8.56558L11.9457 7.57128L11.8373 7.55965L11.729 7.57166L11.8391 8.56558ZM2.53003 10.5035L9.9783 5.84798L8.91825 4.15202L1.46997 8.80751L2.53003 10.5035ZM8.83072 5.78652L11.2215 7.66374L12.4566 6.09069L10.0658 4.21348L8.83072 5.78652ZM12.4949 7.63214L14.6558 5.75492L13.3442 4.24508L11.1833 6.12229L12.4949 7.63214ZM13.497 5.8643L21.497 10.5198L22.503 8.79119L14.503 4.1357L13.497 5.8643ZM21.598 8.73984L11.4371 13.2005L12.2411 15.0318L22.402 10.5711L21.598 8.73984ZM12.252 13.2054L2.41291 8.74472L1.58709 10.5663L11.4262 15.0269L12.252 13.2054ZM1.20036 10.256C2.21996 11.6137 3.93982 13.6881 5.80706 15.5235C6.74074 16.4412 7.72696 17.3148 8.69366 18.0117C9.64494 18.6975 10.6488 19.2651 11.6119 19.4898L12.0663 17.5421C11.4845 17.4064 10.7351 17.0179 9.86325 16.3893C9.00676 15.7719 8.09988 14.9728 7.20904 14.0972C5.42723 12.3458 3.77238 10.3504 2.79964 9.05502L1.20036 10.256ZM12.2619 19.4221C13.4465 18.8694 14.7905 18.2661 16.4893 16.9386C18.1758 15.6208 20.1825 13.6145 22.7888 10.2702L21.2112 9.04081C18.668 12.3043 16.7744 14.1776 15.2578 15.3627C13.7535 16.5382 12.5918 17.0612 11.4162 17.6098L12.2619 19.4221ZM22.1067 8.6612L11.9457 7.57128L11.7324 9.55987L21.8933 10.6498L22.1067 8.6612ZM11.729 7.57166L1.8899 8.66157L2.1101 10.6494L11.9492 9.5595L11.729 7.57166Z" fill="white"/>
</svg>
