<svg width="26" height="24" viewBox="0 0 26 24" fill="none" xmlns="http://www.w3.org/2000/svg">
<path d="M3 10.3333L9.98866 7.20569C10.2778 7.0763 10.6111 7.09154 10.8872 7.24676L12.3233 8.05412C12.6414 8.23295 13.0317 8.22431 13.3415 8.03157L14.5627 7.27203C14.8371 7.10133 15.1771 7.07379 15.4754 7.1981L23 10.3333C18.0215 14.9075 15.378 15.8299 13.0752 16.5986C12.9201 16.6504 12.7553 16.6652 12.5955 16.6305C9.50466 15.959 4.94069 12.1837 3 10.3333Z" fill="#0E0E0E"/>
<path d="M3 10.3333L9.98866 7.20569C10.2778 7.0763 10.6111 7.09154 10.8872 7.24676L12.3233 8.05412C12.6414 8.23295 13.0317 8.22431 13.3415 8.03157L14.5627 7.27203C14.8371 7.10133 15.1771 7.07379 15.4754 7.1981L23 10.3333M3 10.3333L12.6542 12.1797C12.7764 12.2031 12.9018 12.2034 13.0242 12.1808L23 10.3333M3 10.3333C4.94069 12.1837 9.50466 15.959 12.5955 16.6305C12.7553 16.6652 12.9201 16.6504 13.0752 16.5986C15.378 15.8299 18.0215 14.9075 23 10.3333" stroke="white" stroke-width="3"/>
</svg>
