<svg width="61" height="61" viewBox="0 0 61 61" fill="none" xmlns="http://www.w3.org/2000/svg">
<path d="M42.6025 29.6761C42.5166 29.6527 42.4142 29.6359 42.3117 29.6192C42.1466 29.589 41.9814 29.5589 41.8228 29.5453C42.9424 28.5069 43.7566 25.3492 41.6014 24.1177C40.7399 23.6364 39.4151 23.4348 37.441 23.8167C33.6979 24.5182 30.8316 26.1736 28.9807 27.5407C28.8147 26.4959 28.1655 21.6788 27.9398 19.3746C27.7591 17.5695 27.0254 12.154 23.5442 12.5024C23.3591 12.5185 23.2037 12.5611 23.0482 12.6037C21.1065 13.26 20.7682 16.4585 20.9249 19.9391C21.079 23.1719 21.6357 26.6469 21.6906 28.521C21.9543 36.9001 22.0826 45.2756 22.583 47.4515C23.0702 49.5944 24.1291 51.7784 26.2976 51.6449C28.9552 51.4894 30.22 49.2252 30.7402 47.3525C31.1903 45.7374 32.2788 43.9454 34.1711 43.213C35.5606 42.6611 37.5636 42.5933 38.5387 42.5891C37.9097 44.3326 39.2091 45.4827 41.3423 44.9227C43.492 44.3562 49.377 38.1504 44.1444 35.7282C44.1213 35.7182 44.0981 35.7082 44.075 35.6983C44.8362 35.3002 46.9823 30.7708 42.6025 29.6761Z" fill="white"/>
<path d="M41.8491 29.5162C43.3961 28.0592 44.4013 22.4892 37.4673 23.7877C30.5333 25.0862 26.5792 29.6442 26.5792 29.6442" stroke="#111111" stroke-miterlimit="10" stroke-linecap="round" stroke-linejoin="round"/>
<path d="M31.5866 32.2704C31.5866 32.2704 37.4918 28.6227 42.3446 29.6063C47.1974 30.5899 44.7727 35.4788 44.0748 35.6985" stroke="#111111" stroke-miterlimit="10" stroke-linecap="round" stroke-linejoin="round"/>
<path d="M32.0502 37.2955C32.0502 37.2955 38.9611 33.2868 44.1938 35.709C49.4264 38.1312 43.5414 44.337 41.3917 44.9036C39.242 45.4701 37.9294 44.287 38.618 42.5006C39.3065 40.7142 40.2573 39.7812 40.2573 39.7812" stroke="#111111" stroke-miterlimit="10" stroke-linecap="round" stroke-linejoin="round"/>
<path d="M38.6179 42.5005C38.6179 42.5005 36.1062 42.4448 34.2204 43.1937C32.3347 43.9427 31.2462 45.7347 30.7895 47.3332C30.2693 49.2059 29.0046 51.4702 26.3469 51.6256C24.1784 51.7591 23.1195 49.5752 22.6323 47.4323C22.1319 45.2563 22.0037 36.8808 21.7399 28.5018C21.6011 24.4394 19.1372 12.9317 23.587 12.4666C27.0616 12.1016 27.8018 17.5337 27.9825 19.3387C28.2082 21.643 28.8575 26.4601 29.0235 27.5049" stroke="#111111" stroke-miterlimit="10" stroke-linecap="round" stroke-linejoin="round"/>
<path d="M23.081 12.5915C23.081 12.5915 23.5861 12.8505 23.3237 16.0955C23.0272 19.737 21.8143 19.7208 20.9643 19.9435" stroke="#111111" stroke-miterlimit="10" stroke-linecap="round" stroke-linejoin="round"/>
<path d="M21.235 22.8418C21.235 22.8418 22.3741 21.9489 23.8184 21.969" stroke="#111111" stroke-miterlimit="10" stroke-linecap="round" stroke-linejoin="round"/>
<path d="M21.367 24.1884C21.367 24.1884 22.5786 23.3816 23.8777 23.3253" stroke="#111111" stroke-miterlimit="10" stroke-linecap="round" stroke-linejoin="round"/>
<path d="M41.6275 24.0893C41.6275 24.0893 39.8703 23.619 38.7588 25.401" stroke="#111111" stroke-miterlimit="10" stroke-linecap="round" stroke-linejoin="round"/>
<path d="M42.6353 29.6634C42.6353 29.6634 41.2862 29.9311 40.4894 31.3967" stroke="#111111" stroke-miterlimit="10" stroke-linecap="round" stroke-linejoin="round"/>
<path d="M41.4293 29.4723C41.4293 29.4723 40.4703 29.6616 39.9754 30.6817" stroke="#111111" stroke-miterlimit="10" stroke-linecap="round" stroke-linejoin="round"/>
<path d="M38.3553 40.5365C38.3553 40.5365 37.5005 41.3739 37.3688 42.5369" stroke="#111111" stroke-miterlimit="10" stroke-linecap="round" stroke-linejoin="round"/>
</svg>
