<svg width="24" height="24" viewBox="0 0 24 24" fill="none" xmlns="http://www.w3.org/2000/svg">
<path d="M8.71453 5.45387C9.20257 5.96977 9.79594 6.92126 10.1606 7.8418C10.3425 8.30103 10.4573 8.72775 10.4825 9.07086C10.5087 9.42789 10.4331 9.6035 10.3525 9.67911C10.272 9.75472 10.0915 9.81946 9.73516 9.77215C9.39277 9.72668 8.97191 9.5871 8.52246 9.37894C7.62151 8.96168 6.70315 8.31515 6.21511 7.79925C5.73966 7.29667 5.47478 6.70702 5.41676 6.17247C5.35877 5.63823 5.50673 5.18416 5.82117 4.8891C6.13561 4.59404 6.59952 4.47395 7.13153 4.56338C7.66384 4.65287 8.23908 4.95129 8.71453 5.45387Z" stroke="white" stroke-width="0.8"/>
<path d="M13.2814 4.80802C13.33 5.51483 13.1826 6.62498 12.8781 7.56677C12.7262 8.03656 12.5432 8.43887 12.3442 8.71994C12.1372 9.01221 11.9666 9.10074 11.8552 9.10834C11.7438 9.11594 11.5627 9.05139 11.3177 8.78993C11.082 8.53851 10.8457 8.16479 10.6309 7.72C10.2004 6.82833 9.90244 5.74855 9.85385 5.04174C9.80652 4.35334 9.97725 3.73057 10.2728 3.28088C10.5682 2.8315 10.972 2.5735 11.4039 2.54405C11.8359 2.51459 12.2713 2.71536 12.6254 3.12046C12.9797 3.52583 13.2341 4.11962 13.2814 4.80802Z" stroke="white" stroke-width="0.8"/>
<path d="M17.1814 6.66069C16.8476 7.28653 16.1336 8.15167 15.3754 8.79116C14.9972 9.11017 14.6284 9.35551 14.3103 9.48946C13.9794 9.62879 13.7878 9.61404 13.6896 9.56208C13.5914 9.51012 13.4718 9.36032 13.4024 9.00926C13.3357 8.67176 13.3333 8.23004 13.3869 7.73933C13.4943 6.75564 13.8141 5.68195 14.1478 5.05611C14.4729 4.4465 14.9483 4.00743 15.4378 3.78107C15.9271 3.55486 16.4066 3.54842 16.7886 3.75047C17.1706 3.95253 17.4338 4.35181 17.5196 4.88219C17.6054 5.4129 17.5064 6.05108 17.1814 6.66069Z" stroke="white" stroke-width="0.8"/>
<path d="M19.1928 11.2087C18.5236 11.4509 17.4112 11.6169 16.4179 11.5859C15.9224 11.5704 15.4834 11.5065 15.1569 11.3937C14.8171 11.2762 14.6857 11.1376 14.6482 11.0348C14.6106 10.932 14.622 10.7416 14.8069 10.4343C14.9844 10.139 15.2798 9.80931 15.6497 9.4806C16.3913 8.82173 17.3512 8.23764 18.0203 7.99544C18.6724 7.75944 19.3213 7.75067 19.8373 7.90929C20.353 8.06784 20.7126 8.38286 20.8599 8.78648C21.0072 9.1901 20.9346 9.66156 20.6413 10.1129C20.348 10.5645 19.8448 10.9727 19.1928 11.2087Z" stroke="white" stroke-width="0.8"/>
<path d="M18.5242 15.5275C17.8252 15.3927 16.7852 14.9654 15.9492 14.4303C15.5322 14.1634 15.1885 13.8837 14.9668 13.6198C14.7359 13.345 14.6948 13.1589 14.7156 13.0517C14.7365 12.9445 14.8444 12.7871 15.1616 12.618C15.4663 12.4557 15.8899 12.3241 16.3769 12.2315C17.353 12.046 18.4779 12.0365 19.177 12.1713C19.8582 12.3028 20.4194 12.6275 20.7801 13.0278C21.1407 13.4278 21.2865 13.8821 21.2045 14.3036C21.1225 14.725 20.817 15.0922 20.3325 15.3292C19.8478 15.5664 19.2054 15.6589 18.5242 15.5275Z" stroke="white" stroke-width="0.8"/>
<path d="M14.9566 18.6739C14.49 18.1388 13.9359 17.1641 13.609 16.2296C13.446 15.7635 13.3486 15.3325 13.3373 14.9886C13.3257 14.6309 13.4084 14.4584 13.492 14.386C13.5757 14.3137 13.7587 14.2563 14.1128 14.318C14.453 14.3772 14.8678 14.5337 15.3084 14.7598C16.1917 15.2131 17.0829 15.8961 17.5496 16.4313C18.0041 16.9526 18.2448 17.5524 18.281 18.0889C18.3172 18.625 18.1509 19.0728 17.8246 19.3549C17.4984 19.6371 17.0299 19.7384 16.502 19.6275C15.9738 19.5166 15.4112 19.1953 14.9566 18.6739Z" stroke="white" stroke-width="0.8"/>
<path d="M10.4072 19.1959C10.3698 18.4885 10.5346 17.3807 10.8539 16.4438C11.0132 15.9765 11.2025 15.5771 11.4059 15.2991C11.6175 15.0101 11.7894 14.9243 11.901 14.9184C12.0125 14.9126 12.1925 14.9799 12.4334 15.2452C12.6651 15.5003 12.8955 15.8776 13.1032 16.3257C13.5197 17.224 13.8006 18.3083 13.838 19.0158C13.8745 19.7048 13.694 20.3249 13.3914 20.7699C13.089 21.2146 12.6811 21.4662 12.2488 21.489C11.8164 21.5117 11.3842 21.3041 11.0366 20.8935C10.6887 20.4827 10.4437 19.885 10.4072 19.1959Z" stroke="white" stroke-width="0.8"/>
<path d="M6.3714 16.7987C6.75108 16.1993 7.52797 15.3896 8.3319 14.8082C8.73294 14.5181 9.11912 14.3009 9.44638 14.1909C9.78684 14.0765 9.97667 14.1055 10.0706 14.1645C10.1646 14.2236 10.2726 14.3817 10.3155 14.737C10.3568 15.0786 10.3261 15.5192 10.236 16.0046C10.0552 16.9776 9.6559 18.0246 9.27623 18.624C8.90638 19.2078 8.39934 19.6104 7.89418 19.7997C7.38933 19.989 6.91072 19.9598 6.54503 19.73C6.17934 19.5002 5.94678 19.0826 5.90093 18.5472C5.85505 18.0116 6.00156 17.3825 6.3714 16.7987Z" stroke="white" stroke-width="0.8"/>
<path d="M4.76701 12.5872C5.44001 12.3437 6.55056 12.1639 7.53715 12.1724C8.02986 12.1767 8.46498 12.2279 8.78651 12.3275C9.12646 12.4327 9.23752 12.5581 9.26445 12.6319C9.29137 12.7058 9.28709 12.873 9.09426 13.171C8.91188 13.4529 8.61129 13.7704 8.23626 14.0887C7.48532 14.726 6.51793 15.2982 5.84494 15.5418C5.18715 15.7798 4.53885 15.8011 4.02946 15.6622C3.51881 15.5229 3.18275 15.2367 3.0526 14.88C2.92246 14.5233 2.99566 14.089 3.29742 13.6557C3.59845 13.2235 4.10922 12.8253 4.76701 12.5872Z" stroke="white" stroke-width="0.8"/>
<path d="M5.70326 8.75364C6.39982 8.93953 7.42153 9.4104 8.23473 9.95268C8.64135 10.2238 8.97392 10.4985 9.18508 10.7468C9.4142 11.0162 9.41783 11.154 9.408 11.1905C9.39817 11.227 9.32586 11.3446 8.99218 11.4638C8.68467 11.5736 8.25876 11.6459 7.77049 11.6782C6.794 11.7429 5.67279 11.6419 4.97622 11.456C4.29293 11.2737 3.74042 10.9346 3.39482 10.5544C3.04583 10.1705 2.94207 9.7907 3.02383 9.48679C3.1056 9.18287 3.38611 8.90566 3.88108 8.74697C4.37125 8.58982 5.01996 8.5713 5.70326 8.75364Z" stroke="white" stroke-width="0.8"/>
<path d="M14.3257 11.9114C14.3257 13.1911 13.2836 14.2314 11.9947 14.2314C10.7058 14.2314 9.66367 13.1911 9.66367 11.9114C9.66367 10.6316 10.7058 9.59141 11.9947 9.59141C13.2836 9.59141 14.3257 10.6316 14.3257 11.9114Z" stroke="white" stroke-width="0.8"/>
</svg>
