<svg width="24" height="24" viewBox="0 0 24 24" fill="none" xmlns="http://www.w3.org/2000/svg">
<path d="M2 15.3056C2 13.0936 2 10.9237 2 8.69488C2.13136 8.69488 2.26272 8.69488 2.38678 8.69488C3.6785 8.69488 4.96291 8.70329 6.25463 8.68647C6.41518 8.68647 6.61222 8.60236 6.73629 8.48461C8.51695 6.76043 10.2903 5.01942 12.0637 3.27842C12.487 2.8663 12.9102 2.45418 13.3773 2C13.3773 8.61077 13.3773 15.1627 13.3773 21.7734C12.9029 21.3277 12.4505 20.9071 11.998 20.4782C10.626 19.1661 9.25403 17.8541 7.88934 16.5336C7.53175 16.1972 7.18875 15.8439 6.81656 15.5243C6.6779 15.4066 6.48086 15.3056 6.30571 15.3056C5.0067 15.2888 3.70039 15.2972 2.40138 15.2972C2.27732 15.3056 2.14596 15.3056 2 15.3056Z" fill="white"/>
<path d="M17.4863 4.25442C17.822 3.8423 18.1285 3.46382 18.435 3.09375C22.5729 7.19815 23.653 16.248 18.7343 22.0009C18.4131 21.6224 18.092 21.2439 17.7418 20.8402C19.6392 18.5189 20.6098 15.7181 20.5733 12.5221C20.5368 9.30922 19.5078 6.54212 17.4863 4.25442Z" fill="white"/>
<path d="M15.8439 18.8893C15.4936 18.5024 15.1652 18.1407 14.815 17.7538C16.0118 16.2735 16.6321 14.5409 16.6029 12.5224C16.581 10.5038 15.9169 8.78806 14.6836 7.34984C15.0266 6.97136 15.3623 6.6097 15.6907 6.24805C18.4493 9.02356 19.1061 15.0288 15.8439 18.8893Z" fill="white"/>
</svg>
