<svg width="113" height="145" viewBox="0 0 113 145" fill="none" xmlns="http://www.w3.org/2000/svg">
<path d="M90.9029 50.5014C90.5029 50.5014 90.2029 50.5014 89.8029 50.5014C89.2029 50.5014 88.6029 50.5014 87.9029 50.6014C91.2029 45.9014 91.8029 33.8014 83.0029 30.9014C79.5029 29.8014 74.5029 30.1014 67.5029 33.0014C54.4029 38.3014 45.103 46.6014 39.403 53.0014C38.003 49.3014 31.903 32.1014 29.403 23.8014C27.403 17.3014 20.503 -1.99857 8.10295 2.00143C7.50295 2.20143 6.90295 2.50143 6.40295 2.80143C-0.197049 6.70143 1.00295 18.7014 4.20295 31.3014C7.20295 43.0014 11.903 55.3014 13.603 62.2014C21.003 92.7014 27.803 123.301 31.303 130.901C34.703 138.401 40.303 145.601 48.103 143.501C57.703 140.901 60.603 131.601 61.103 124.401C61.503 118.201 64.1029 110.801 70.5029 106.601C75.2029 103.601 82.503 101.701 86.103 101.001C85.103 107.901 90.803 111.101 98.103 107.401C105.603 103.701 122.403 76.5014 101.403 71.6014C101.303 71.6014 101.203 71.6014 101.103 71.5014C103.403 69.4014 107.803 51.2014 90.9029 50.5014Z" fill="#FF4915"/>
<path d="M88.1029 50.5021C92.7029 44.0021 92.1029 22.8021 67.7029 32.9021C43.3029 43.0021 32.2029 62.6021 32.2029 62.6021" stroke="white" stroke-width="1.5" stroke-miterlimit="10" stroke-linecap="round" stroke-linejoin="round"/>
<path d="M52.5029 68.4027C52.5029 68.4027 71.3029 50.5027 89.9029 50.4027C108.503 50.3027 103.303 70.1027 100.903 71.4027" stroke="white" stroke-width="1.5" stroke-miterlimit="10" stroke-linecap="round" stroke-linejoin="round"/>
<path d="M58.1029 86.5038C58.1029 86.5038 80.4029 66.5038 101.403 71.4038C122.403 76.3038 105.603 103.504 98.1029 107.204C90.6029 110.904 84.9029 107.604 86.1029 100.504C87.3029 93.5038 90.0029 89.3038 90.0029 89.3038" stroke="white" stroke-width="1.5" stroke-miterlimit="10" stroke-linecap="round" stroke-linejoin="round"/>
<path d="M86.1029 100.603C86.1029 100.603 76.9029 102.303 70.5029 106.503C64.1029 110.703 61.5029 118.103 61.1029 124.303C60.6029 131.603 57.7029 140.803 48.1029 143.403C40.2029 145.503 34.7029 138.303 31.3029 130.803C27.8029 123.203 21.0029 92.603 13.6029 62.103C10.0029 47.303 -7.79706 7.00302 8.10294 2.00302C20.6029 -1.99698 27.4029 17.403 29.4029 23.803C32.0029 32.103 38.0029 49.303 39.4029 53.003" stroke="white" stroke-width="1.5" stroke-miterlimit="10" stroke-linecap="round" stroke-linejoin="round"/>
<path d="M6.40288 2.70312C6.40288 2.70312 8.40288 3.30313 9.90288 15.3031C11.6029 28.8031 7.10288 29.8031 4.20288 31.2031" stroke="white" stroke-width="1.5" stroke-miterlimit="10" stroke-linecap="round" stroke-linejoin="round"/>
<path d="M7.40295 41.8035C7.40295 41.8035 10.903 37.7035 16.203 36.6035" stroke="white" stroke-width="1.5" stroke-miterlimit="10" stroke-linecap="round" stroke-linejoin="round"/>
<path d="M8.90295 46.6039C8.90295 46.6039 12.703 42.7039 17.403 41.5039" stroke="white" stroke-width="1.5" stroke-miterlimit="10" stroke-linecap="round" stroke-linejoin="round"/>
<path d="M83.1029 30.8026C83.1029 30.8026 76.3029 30.4026 73.6029 37.8026" stroke="white" stroke-width="1.5" stroke-miterlimit="10" stroke-linecap="round" stroke-linejoin="round"/>
<path d="M91.0029 50.4023C91.0029 50.4023 86.2029 52.4023 84.5029 58.4023" stroke="white" stroke-width="1.5" stroke-miterlimit="10" stroke-linecap="round" stroke-linejoin="round"/>
<path d="M86.5029 50.6035C86.5029 50.6035 83.1029 52.0035 82.1029 56.1035" stroke="white" stroke-width="1.5" stroke-miterlimit="10" stroke-linecap="round" stroke-linejoin="round"/>
<path d="M83.7029 93.6035C83.7029 93.6035 81.2029 97.3035 81.6029 101.704" stroke="white" stroke-width="1.5" stroke-miterlimit="10" stroke-linecap="round" stroke-linejoin="round"/>
</svg>
