<svg width="205" height="225" viewBox="0 0 205 225" fill="none" xmlns="http://www.w3.org/2000/svg">
<path d="M158.515 101.75C165.013 93.7057 166.19 66.1896 133.615 77.0179C101.04 87.8463 84.9794 112.426 84.9794 112.426" stroke="white" stroke-width="1.5" stroke-miterlimit="10" stroke-linecap="round" stroke-linejoin="round"/>
<path d="M110.852 121.792C110.852 121.792 136.919 100.316 160.963 101.861C185.008 103.406 176.539 128.574 173.319 130.093" stroke="white" stroke-width="1.5" stroke-miterlimit="10" stroke-linecap="round" stroke-linejoin="round"/>
<path d="M116.397 145.712C116.397 145.712 147.075 121.832 173.899 130.063C200.722 138.294 176.438 172.091 166.447 176.238C156.456 180.386 149.348 175.546 151.491 166.48C153.634 157.414 157.603 152.289 157.603 152.289" stroke="white" stroke-width="1.5" stroke-miterlimit="10" stroke-linecap="round" stroke-linejoin="round"/>
<path d="M151.491 166.483C151.491 166.483 139.344 167.869 130.746 172.722C122.148 177.575 118.081 186.932 116.932 194.94C115.658 204.311 111.052 216.061 98.341 218.561C87.9743 220.633 81.4302 210.802 77.6695 200.791C73.8236 190.63 67.6875 150.335 60.8957 110.111C57.5503 90.6171 38.0899 36.7588 59.237 31.5851C75.7481 27.5364 82.8959 53.238 84.9561 61.8214C87.5624 72.7818 93.8661 95.5785 95.3547 100.506" stroke="white" stroke-width="1.5" stroke-miterlimit="10" stroke-linecap="round" stroke-linejoin="round"/>
<path d="M56.8798 32.5165C56.8798 32.5165 59.4854 33.4326 60.358 49.2502C61.3278 67.002 55.4693 67.723 51.5182 69.3565" stroke="white" stroke-width="1.5" stroke-miterlimit="10" stroke-linecap="round" stroke-linejoin="round"/>
<path d="M54.7329 83.1562C54.7329 83.1562 59.6367 78.1009 66.6131 77.2461" stroke="white" stroke-width="1.5" stroke-miterlimit="10" stroke-linecap="round" stroke-linejoin="round"/>
<path d="M56.2557 89.5578C56.2557 89.5578 61.5657 84.8699 67.7916 83.7425" stroke="white" stroke-width="1.5" stroke-miterlimit="10" stroke-linecap="round" stroke-linejoin="round"/>
<path d="M153.871 75.7325C153.871 75.7325 145.09 74.6226 140.905 83.9465" stroke="white" stroke-width="1.5" stroke-miterlimit="10" stroke-linecap="round" stroke-linejoin="round"/>
<path d="M162.402 101.943C162.402 101.943 156.074 104.123 153.198 111.713" stroke="white" stroke-width="1.5" stroke-miterlimit="10" stroke-linecap="round" stroke-linejoin="round"/>
<path d="M156.462 101.815C156.462 101.815 151.964 103.36 150.25 108.604" stroke="white" stroke-width="1.5" stroke-miterlimit="10" stroke-linecap="round" stroke-linejoin="round"/>
<path d="M148.931 157.185C148.931 157.185 145.361 161.786 145.492 167.48" stroke="white" stroke-width="1.5" stroke-miterlimit="10" stroke-linecap="round" stroke-linejoin="round"/>
</svg>
