<svg width="92" height="111" viewBox="0 0 92 111" fill="none" xmlns="http://www.w3.org/2000/svg">
<path d="M88.0029 37.5027C91.8029 33.7027 92.6029 22.2027 81.1029 12.5027C67.9029 1.40274 33.9029 -6.99726 15.7029 14.0027C-0.797121 33.0027 13.9029 53.4027 23.0029 58.3027C38.1029 66.5027 51.5029 61.6027 57.3029 68.7027C62.7029 75.4027 55.4029 87.1027 39.1029 79.6027C23.0029 72.2027 11.7029 62.9027 3.60287 71.2027C-3.19713 78.2027 2.1029 100.303 33.5029 107.903C65.0029 115.503 79.9029 100.703 84.6029 91.3027C89.9029 80.7027 92.4029 57.1027 66.5029 50.1027C34.7029 41.6027 35.9029 35.3027 37.7029 32.4027C44.1029 22.0027 60.7029 35.8027 68.4029 38.6027C74.7029 41.0027 84.2029 41.3027 88.0029 37.5027Z" stroke="white" stroke-width="1.5" stroke-miterlimit="10"/>
</svg>
