<svg width="146" height="196" viewBox="0 0 146 196" fill="none" xmlns="http://www.w3.org/2000/svg">
<path d="M136.091 114.045C135.743 113.784 135.307 113.523 134.872 113.262C134.176 112.826 133.479 112.391 132.783 112.043C139.747 109.344 149.148 96.4612 141.575 86.9729C138.528 83.2298 132.87 79.922 123.208 78.094C104.928 74.525 88.9106 76.8753 78.0295 79.7479C79.1611 74.6991 84.9063 51.6312 88.0401 40.7502C90.4774 32.2194 96.919 6.279 80.4669 1.57838C79.5964 1.31723 78.813 1.23019 78.0295 1.14314C68.0189 0.620847 60.7069 14.5486 55.1358 30.6526C49.9999 45.6249 46.2568 62.4252 43.1231 71.043C29.1953 109.606 14.6582 147.907 13.0043 158.701C11.3504 169.321 12.2209 181.159 22.3185 184.467C34.6794 188.558 44.5159 180.55 50.2611 172.977C55.2228 166.448 63.4054 160.268 73.3289 160.355C80.641 160.355 89.8681 163.663 94.3076 165.404C88.3012 172.193 92.1314 179.767 102.838 181.072C113.632 182.378 151.585 164.794 132.174 144.338C132.087 144.251 132 144.164 131.913 144.077C136.091 143.641 154.023 126.928 136.091 114.045Z" fill="#FF4915"/>
<path d="M132.957 111.955C142.619 108.125 157.244 84.622 123.382 78.0063C89.5199 71.3906 63.3184 84.9702 63.3184 84.9702" stroke="white" stroke-width="1.5" stroke-miterlimit="10" stroke-linecap="round" stroke-linejoin="round"/>
<path d="M81.3374 105.949C81.3374 105.949 114.764 100.03 135.046 113.261C155.329 126.492 135.482 144.337 131.913 144.076" stroke="white" stroke-width="1.5" stroke-miterlimit="10" stroke-linecap="round" stroke-linejoin="round"/>
<path d="M74.3735 129.626C74.3735 129.626 113.023 123.881 132.435 144.337C151.847 164.794 113.894 182.377 103.1 181.072C92.3055 179.766 88.4754 172.019 94.8299 165.142C101.184 158.265 107.191 155.741 107.191 155.741" stroke="white" stroke-width="1.5" stroke-miterlimit="10" stroke-linecap="round" stroke-linejoin="round"/>
<path d="M94.8299 165.142C94.8299 165.142 83.5136 160.355 73.5901 160.355C63.6666 160.355 55.484 166.535 50.5223 172.977C44.7771 180.55 34.9406 188.558 22.5797 184.467C12.4821 181.159 11.6116 169.32 13.2655 158.701C14.9195 147.907 29.4566 109.605 43.3843 71.0428C50.0871 52.3274 59.6624 -4.42821 80.7281 1.49109C97.1803 6.10466 90.7387 32.1321 88.3013 40.6629C85.1676 51.544 79.4224 74.6118 78.2907 79.6606" stroke="white" stroke-width="1.5" stroke-miterlimit="10" stroke-linecap="round" stroke-linejoin="round"/>
<path d="M78.2036 1.14258C78.2036 1.14258 80.0316 3.23173 72.9807 17.5077C65.0593 33.5246 59.5752 31.2613 55.3098 30.7391" stroke="white" stroke-width="1.5" stroke-miterlimit="10" stroke-linecap="round" stroke-linejoin="round"/>
<path d="M51.3057 44.4059C51.3057 44.4059 58.0955 42.4038 64.6241 45.1023" stroke="white" stroke-width="1.5" stroke-miterlimit="10" stroke-linecap="round" stroke-linejoin="round"/>
<path d="M49.4777 50.7605C49.4777 50.7605 56.4415 49.2806 62.4479 51.3698" stroke="white" stroke-width="1.5" stroke-miterlimit="10" stroke-linecap="round" stroke-linejoin="round"/>
<path d="M141.749 86.8842C141.749 86.8842 134.611 81.5742 126.341 87.6676" stroke="white" stroke-width="1.5" stroke-miterlimit="10" stroke-linecap="round" stroke-linejoin="round"/>
<path d="M136.265 114.043C136.265 114.043 129.649 112.825 123.382 118.048" stroke="white" stroke-width="1.5" stroke-miterlimit="10" stroke-linecap="round" stroke-linejoin="round"/>
<path d="M131.129 110.998C131.129 110.998 126.428 110.127 122.337 113.87" stroke="white" stroke-width="1.5" stroke-miterlimit="10" stroke-linecap="round" stroke-linejoin="round"/>
<path d="M97.1802 155.742C97.1802 155.742 91.7832 158.005 89.0847 163.054" stroke="white" stroke-width="1.5" stroke-miterlimit="10" stroke-linecap="round" stroke-linejoin="round"/>
<path d="M0.502874 167.803C0.502874 167.803 -1.19714 184.803 16.8029 195.703" stroke="white" stroke-width="0.5" stroke-miterlimit="10"/>
</svg>
