<svg width="103" height="113" viewBox="0 0 103 113" fill="none" xmlns="http://www.w3.org/2000/svg">
<path d="M79.6395 31.0517C81.5791 27.0655 79.1389 17.8712 67.5183 13.458C54.1989 8.33531 25.5923 10.9069 16.9955 32.1581C9.22272 51.345 26.19 63.3038 34.6142 64.7717C48.5807 67.0819 57.6858 59.7369 64.0581 63.6921C70.1389 67.505 67.5729 78.5858 52.7448 77.0581C38.2554 75.5755 26.9512 71.3771 22.9102 80.0527C19.4593 87.392 29.5078 103.191 56.0122 100.615C82.6137 98.0871 90.2079 82.6034 91.3495 73.9555C92.6006 64.2179 88.2928 45.1464 66.2244 46.7603C39.1819 48.7121 38.4735 43.3722 39.0733 40.6568C41.2658 30.8376 57.9082 37.1624 64.5787 37.2923C70.2578 37.359 77.6999 35.038 79.6395 31.0517Z" stroke="#231815" stroke-width="2" stroke-miterlimit="10" stroke-linecap="round" stroke-linejoin="round"/>
<path d="M59.2583 11.5279C59.2583 11.5279 58.6214 15.3081 60.9932 17.9709C63.3649 20.6337 72.1081 22.5582 79.1498 23.5313" stroke="#231815" stroke-width="2" stroke-miterlimit="10" stroke-linecap="round" stroke-linejoin="round"/>
<path d="M49.9772 11.3269C49.9772 11.3269 48.1867 13.4004 50.2252 18.8486" stroke="#231815" stroke-width="2" stroke-miterlimit="10" stroke-linecap="round" stroke-linejoin="round"/>
<path d="M42.0866 12.3455C42.0866 12.3455 41.5194 15.859 43.5127 19.2996" stroke="#231815" stroke-width="2" stroke-miterlimit="10" stroke-linecap="round" stroke-linejoin="round"/>
<path d="M66.5102 71.748C66.5102 71.748 69.0433 71.361 71.7289 73.9966" stroke="#231815" stroke-width="2" stroke-miterlimit="10" stroke-linecap="round" stroke-linejoin="round"/>
<path d="M67.1027 68.3076C67.1027 68.3076 69.9969 67.7961 71.8255 69.3512" stroke="#231815" stroke-width="2" stroke-miterlimit="10" stroke-linecap="round" stroke-linejoin="round"/>
</svg>
