<svg width="150" height="160" viewBox="0 0 150 160" fill="none" xmlns="http://www.w3.org/2000/svg">
<path d="M99.8772 112.739C106.939 114.276 124.52 106.46 107.566 89.4788C90.613 72.4977 70.2821 70.239 70.2821 70.239" stroke="#231815" stroke-width="2" stroke-miterlimit="10"/>
<path d="M72.5721 89.2255C72.5721 89.2255 94.1121 98.7429 100.634 114.249C107.156 129.755 88.839 132.408 86.8061 130.816" stroke="#231815" stroke-width="2" stroke-miterlimit="10"/>
<path d="M59.3127 100.176C59.3127 100.176 83.8525 111.826 87.0085 131.174C90.1646 150.522 61.5514 145.904 55.8875 140.976C50.1473 135.996 50.9979 130.125 57.3369 128.62C63.6759 127.115 68.0869 127.977 68.0869 127.977" stroke="#231815" stroke-width="2" stroke-miterlimit="10"/>
<path d="M57.2608 128.569C57.2608 128.569 52.6306 121.448 46.9095 117.592C41.1884 113.737 34.0904 114.064 28.7449 115.905C22.5299 118.049 13.6679 118.854 8.1699 111.704C3.65978 105.887 7.70847 98.7276 12.8709 93.2076C18.0847 87.6111 41.2802 71.1351 64.3497 54.3522C75.5002 46.2017 103.082 17.1275 112.894 28.7398C120.55 37.7887 106.72 50.244 102 54.2846C95.9474 59.3156 83.6565 70.475 81.0133 72.9155" stroke="#231815" stroke-width="2" stroke-miterlimit="10"/>
<path d="M111.471 27.5591C111.471 27.5591 111.715 29.5012 102.086 34.8999C91.279 41.0597 89.0268 37.653 86.7918 35.7023" stroke="#231815" stroke-width="2" stroke-miterlimit="10"/>
<path d="M79.148 42.1049C79.148 42.1049 83.8107 43.5809 86.5187 47.628" stroke="#231815" stroke-width="2" stroke-miterlimit="10"/>
<path d="M75.6603 44.9758C75.6603 44.9758 80.2697 46.8601 82.9299 50.3197" stroke="#231815" stroke-width="2" stroke-miterlimit="10"/>
<path d="M114.72 101.743C114.72 101.743 112.66 95.9112 105.562 96.2382" stroke="#231815" stroke-width="2" stroke-miterlimit="10"/>
<path d="M101.012 115.17C101.012 115.17 97.6617 111.912 92.0684 112.475" stroke="#231815" stroke-width="2" stroke-miterlimit="10"/>
<path d="M99.2973 111.46C99.2973 111.46 96.9364 109.202 93.1814 109.671" stroke="#231815" stroke-width="2" stroke-miterlimit="10"/>
<path d="M62.289 124.071C62.289 124.071 58.2861 123.262 54.8039 125.137" stroke="#231815" stroke-width="2" stroke-miterlimit="10"/>
</svg>
