<svg width="121" height="118" viewBox="0 0 121 118" fill="none" xmlns="http://www.w3.org/2000/svg">
<path d="M91.4192 64.0155C96.5871 63.0006 106.023 52.6 89.711 46.2464C73.3989 39.8929 59.2029 44.3593 59.2029 44.3593" stroke="#231815" stroke-width="2" stroke-miterlimit="10" stroke-linecap="round" stroke-linejoin="round"/>
<path d="M66.2702 56.4043C66.2702 56.4043 83.4419 56.4594 92.3134 64.8422C101.185 73.2249 89.7303 80.3676 87.9629 79.907" stroke="#231815" stroke-width="2" stroke-miterlimit="10" stroke-linecap="round" stroke-linejoin="round"/>
<path d="M60.64 67.5366C60.64 67.5366 80.423 68.1094 88.2215 80.0474C96.0201 91.9855 75.5906 97.3224 70.2843 95.7027C64.9779 94.0829 63.8406 89.8923 67.5835 87.055C71.3265 84.2177 74.5935 83.4774 74.5935 83.4774" stroke="#231815" stroke-width="2" stroke-miterlimit="10" stroke-linecap="round" stroke-linejoin="round"/>
<path d="M67.5846 87.0548C67.5846 87.0548 62.4115 83.656 57.4479 82.7622C52.4842 81.8685 47.8889 84.1727 44.8604 86.9964C41.3264 90.2509 35.6825 93.3628 29.9455 90.1946C25.1904 87.6302 25.8911 81.6828 27.6324 76.5396C29.4822 71.321 40.1076 53.59 50.5825 35.6421C55.632 26.9191 65.4825 -0.393975 75.4271 4.43343C83.1906 8.20381 77.6196 20.5815 75.6567 24.5935C73.1091 29.7338 68.1729 40.7074 67.1706 43.0893" stroke="#231815" stroke-width="2" stroke-miterlimit="10" stroke-linecap="round" stroke-linejoin="round"/>
<path d="M74.1356 3.96387C74.1356 3.96387 74.8168 5.17788 70.0384 11.6247C64.6878 18.8701 62.1306 17.2709 60.0665 16.6145" stroke="#231815" stroke-width="2" stroke-miterlimit="10" stroke-linecap="round" stroke-linejoin="round"/>
<path d="M56.8465 23.1056C56.8465 23.1056 60.4312 22.7071 63.3979 24.6648" stroke="#231815" stroke-width="2" stroke-miterlimit="10" stroke-linecap="round" stroke-linejoin="round"/>
<path d="M55.3978 26.1177C55.3978 26.1177 59.0242 26.0115 61.782 27.552" stroke="#231815" stroke-width="2" stroke-miterlimit="10" stroke-linecap="round" stroke-linejoin="round"/>
<path d="M98.0472 52.351C98.0472 52.351 94.9841 49.0948 90.3511 51.3448" stroke="#231815" stroke-width="2" stroke-miterlimit="10" stroke-linecap="round" stroke-linejoin="round"/>
<path d="M92.7976 65.3087C92.7976 65.3087 89.5511 64.1073 86.0503 66.1341" stroke="#231815" stroke-width="2" stroke-miterlimit="10" stroke-linecap="round" stroke-linejoin="round"/>
<path d="M90.5837 63.3913C90.5837 63.3913 88.3149 62.5558 85.9588 64.0295" stroke="#231815" stroke-width="2" stroke-miterlimit="10" stroke-linecap="round" stroke-linejoin="round"/>
<path d="M69.6305 82.5839C69.6305 82.5839 66.7102 83.2443 64.9183 85.5314" stroke="#231815" stroke-width="2" stroke-miterlimit="10" stroke-linecap="round" stroke-linejoin="round"/>
</svg>
