<svg width="101" height="99" viewBox="0 0 101 99" fill="none" xmlns="http://www.w3.org/2000/svg">
<path d="M76.2598 18.2795C76.028 18.3569 75.719 18.4343 75.4099 18.5117C74.9463 18.6664 74.4827 18.8212 74.0964 18.976C75.4099 14.7972 72.9375 5.66597 65.752 5.66597C62.8932 5.66597 59.2619 7.13625 54.8579 10.9281C46.5134 18.1247 41.6458 26.4048 39.0189 32.5181C37.0873 30.1192 28.511 18.976 24.6479 13.4817C21.6346 9.2256 11.8994 -3.38793 3.70948 2.57062C3.32316 2.88015 2.93684 3.18968 2.62778 3.5766C-1.31265 7.98747 2.47326 16.5771 7.8817 25.0119C12.9038 32.9051 19.3167 40.7982 22.1754 45.4412C34.9239 66.1027 47.286 86.9189 51.69 91.7167C56.0168 96.4372 61.8116 100.384 67.0655 96.9014C73.4783 92.6453 73.4011 85.1391 72.0103 79.7222C70.8514 75.0792 70.9286 68.9659 74.6373 64.4003C77.3415 61.0728 82.2864 57.9 84.6815 56.5071C85.6087 61.7692 90.5535 62.7752 95.0348 58.2869C99.5934 53.7213 105.388 29.6549 88.7765 31.1252C88.6992 31.1252 88.622 31.1252 88.5447 31.1252C90.0127 29.1906 88.8538 14.7199 76.2598 18.2795Z" fill="#0F0F0F"/>
<path d="M74.1737 18.9757C75.9508 13.0945 70.4651 -2.3822 54.9351 10.9278C39.4051 24.2378 36.0828 41.3396 36.0828 41.3396" stroke="white" stroke-miterlimit="10" stroke-linecap="round" stroke-linejoin="round"/>
<path d="M52.3854 40.7203C52.3854 40.7203 61.8888 23.0767 75.4872 18.5111C89.0855 13.9454 90.0899 29.7318 88.6219 31.3568" stroke="white" stroke-miterlimit="10" stroke-linecap="round" stroke-linejoin="round"/>
<path d="M60.8071 52.716C60.8071 52.716 72.3194 32.6736 88.931 31.2033C105.543 29.733 99.7479 53.7994 95.1894 58.365C90.6308 62.9307 85.6087 61.7699 84.7588 56.353C83.9089 50.9362 84.9906 47.1443 84.9906 47.1443" stroke="white" stroke-miterlimit="10" stroke-linecap="round" stroke-linejoin="round"/>
<path d="M84.7588 56.2757C84.7588 56.2757 78.4232 59.758 74.7146 64.401C71.0059 69.044 70.9286 75.0799 72.0876 79.723C73.4783 85.1398 73.5556 92.7234 67.1427 96.9021C61.8888 100.384 56.0941 96.4379 51.7673 91.7175C47.3633 86.9197 35.0011 66.1034 22.2527 45.442C16.0716 35.4595 -6.72113 10.0776 3.7867 2.5714C11.9766 -3.30976 21.6346 9.22638 24.7251 13.4825C28.5883 18.9767 37.1645 30.12 39.0961 32.5189" stroke="white" stroke-miterlimit="10" stroke-linecap="round" stroke-linejoin="round"/>
<path d="M2.70496 3.5762C2.70496 3.5762 4.32749 3.49881 8.3452 12.011C12.8265 21.5293 9.81321 23.3091 7.95888 25.0889" stroke="white" stroke-miterlimit="10" stroke-linecap="round" stroke-linejoin="round"/>
<path d="M12.9039 32.054C12.9039 32.054 14.4491 28.1848 18.1578 26.1729" stroke="white" stroke-miterlimit="10" stroke-linecap="round" stroke-linejoin="round"/>
<path d="M15.1444 35.1495C15.1444 35.1495 16.9987 31.3577 20.1665 29.3457" stroke="white" stroke-miterlimit="10" stroke-linecap="round" stroke-linejoin="round"/>
<path d="M65.8291 5.66602C65.8291 5.66602 60.7297 7.05891 60.4979 13.0948" stroke="white" stroke-miterlimit="10" stroke-linecap="round" stroke-linejoin="round"/>
<path d="M76.337 18.2021C76.337 18.2021 73.3238 20.8332 73.4783 25.631" stroke="white" stroke-miterlimit="10" stroke-linecap="round" stroke-linejoin="round"/>
<path d="M73.092 19.4404C73.092 19.4404 71.0059 21.2977 71.1604 24.5478" stroke="white" stroke-miterlimit="10" stroke-linecap="round" stroke-linejoin="round"/>
<path d="M81.3591 51.7109C81.3591 51.7109 80.4319 55.0384 81.7454 58.2112" stroke="white" stroke-miterlimit="10" stroke-linecap="round" stroke-linejoin="round"/>
</svg>
