<svg width="119" height="122" viewBox="0 0 119 122" fill="none" xmlns="http://www.w3.org/2000/svg">
<path d="M85.6216 28.355C87.0138 23.8183 82.7601 15.0859 69.4364 13.5113C54.1536 11.6411 23.7202 21.4185 18.1805 45.1677C13.1671 66.6127 33.5922 74.5164 42.9462 73.8984C58.4324 72.7483 66.9697 63.0039 74.5462 65.4275C81.783 67.7793 80.9638 79.6827 64.685 81.8437C48.78 83.9657 35.8357 82.5301 33.0004 92.3586C30.5669 100.681 44.1982 114.22 72.361 104.965C100.637 95.7338 106.11 78.0969 105.82 69.0227C105.456 58.8137 97.4464 40.5113 73.9036 47.6783C45.0499 56.4342 43.3447 51.185 43.5141 48.2753C44.1524 37.7476 63.2347 40.0073 70.4595 38.4687C76.6765 37.0708 84.303 32.8483 85.6216 28.355Z" fill="#1D1D1D"/>
<path d="M60.2522 13.5773C60.2522 13.5773 60.2301 17.5784 63.2598 19.6905C66.2894 21.8025 76.0682 21.5687 83.8424 20.794" fill="#1D1D1D"/>
<path d="M50.2362 15.7635C50.2362 15.7635 48.6682 18.3191 51.8285 23.3452L50.2362 15.7635Z" fill="#1D1D1D"/>
<path d="M41.8567 18.7082C41.8567 18.7082 41.8629 22.4208 44.6209 25.418L41.8567 18.7082Z" fill="#1D1D1D"/>
<path d="M78.6868 72.959C78.6868 72.959 81.3536 71.9312 84.7173 73.9371L78.6868 72.959Z" fill="#1D1D1D"/>
<path d="M78.7199 69.3135C78.7199 69.3135 81.7547 68.0688 84.0028 69.1912L78.7199 69.3135Z" fill="#1D1D1D"/>
<path d="M85.6216 28.355C87.0138 23.8183 82.7601 15.0859 69.4364 13.5113C54.1536 11.6411 23.7202 21.4185 18.1805 45.1677C13.1671 66.6127 33.5922 74.5164 42.9462 73.8984C58.4324 72.7483 66.9697 63.0039 74.5462 65.4275C81.783 67.7793 80.9638 79.6827 64.685 81.8437C48.78 83.9657 35.8357 82.5301 33.0004 92.3586C30.5669 100.681 44.1982 114.22 72.361 104.965C100.637 95.7338 106.11 78.0969 105.82 69.0227C105.456 58.8137 97.4464 40.5113 73.9036 47.6783C45.0499 56.4342 43.3447 51.185 43.5141 48.2753C44.1524 37.7476 63.2347 40.0073 70.4595 38.4687C76.6765 37.0708 84.303 32.8483 85.6216 28.355Z" stroke="white" stroke-miterlimit="10" stroke-linecap="round" stroke-linejoin="round"/>
<path d="M60.2521 13.5773C60.2521 13.5773 60.2301 17.5784 63.2598 19.6905C66.2894 21.8025 76.0682 21.5687 83.8424 20.794" stroke="white" stroke-miterlimit="10" stroke-linecap="round" stroke-linejoin="round"/>
<path d="M50.2362 15.7635C50.2362 15.7635 48.6682 18.3191 51.8285 23.3452" stroke="white" stroke-miterlimit="10" stroke-linecap="round" stroke-linejoin="round"/>
<path d="M41.8567 18.7082C41.8567 18.7082 41.8629 22.4208 44.6209 25.418" stroke="white" stroke-miterlimit="10" stroke-linecap="round" stroke-linejoin="round"/>
<path d="M78.6868 72.959C78.6868 72.959 81.3536 71.9312 84.7173 73.9371" stroke="white" stroke-miterlimit="10" stroke-linecap="round" stroke-linejoin="round"/>
<path d="M78.7199 69.3135C78.7199 69.3135 81.7547 68.0688 84.0028 69.1912" stroke="white" stroke-miterlimit="10" stroke-linecap="round" stroke-linejoin="round"/>
</svg>
