<svg width="91" height="108" viewBox="0 0 91 108" fill="none" xmlns="http://www.w3.org/2000/svg">
<path d="M64.203 24.6025C64.903 20.0025 59.603 11.5025 46.403 10.6025C31.303 9.60249 3.10297 21.2025 1.10297 45.4025C-0.697032 67.3025 20.203 74.0025 29.103 72.8025C44.003 70.8025 50.903 60.4025 58.603 62.4025C65.903 64.3025 66.803 76.4025 51.403 79.5025C36.203 82.6025 23.503 81.9025 22.103 91.9025C20.903 100.402 36.003 113.202 62.103 102.302C88.203 91.4025 91.003 73.3025 89.503 64.2025C87.803 54.0025 77.403 36.0025 55.503 44.6025C28.703 55.0025 26.303 49.9025 26.103 47.0025C25.303 36.4025 44.103 37.5025 50.903 35.5025C56.703 33.9025 63.503 29.2025 64.203 24.6025Z" stroke="white" stroke-width="1.5" stroke-miterlimit="10"/>
<path d="M67.5029 10.5026C67.5029 10.5026 53.5029 -5.29737 30.1029 4.60263" stroke="black" stroke-miterlimit="10"/>
</svg>
