<svg width="111" height="123" viewBox="0 0 111 123" fill="none" xmlns="http://www.w3.org/2000/svg">
<path d="M95.3887 42.9341C99.4887 38.8341 100.389 26.4341 87.8887 16.0341C73.5887 4.03411 37.0888 -4.96589 17.3888 17.6341C-0.411249 38.0341 15.4887 60.0341 25.2887 65.4341C41.5887 74.2341 55.9887 69.0341 62.1887 76.6341C68.0887 83.9341 60.1888 96.5341 42.4888 88.3341C25.1888 80.3341 12.9887 70.3341 4.28874 79.3341C-3.11126 86.9341 2.58875 110.734 36.4888 118.834C70.4888 127.034 86.4888 111.134 91.5888 100.934C97.2888 89.4341 100.089 64.0341 72.0888 56.6341C37.7888 47.5341 39.1888 40.6341 41.0888 37.5341C47.9888 26.3341 65.8888 41.2341 74.0888 44.2341C81.0888 46.7341 91.3887 47.0341 95.3887 42.9341Z" fill="white"/>
<path d="M78.5888 10.1348C78.5888 10.1348 76.1888 14.5348 77.9888 18.8348C79.7888 23.1348 89.7888 29.2348 98.0888 33.4348" fill="white"/>
<path d="M67.1888 5.93359C67.1888 5.93359 64.0888 7.73359 64.2888 15.3336Z" fill="white"/>
<path d="M56.9887 3.83398C56.9887 3.83398 54.7887 7.93399 55.7887 13.034Z" fill="white"/>
<path d="M61.8888 87.6348C61.8888 87.6348 65.1888 88.2348 67.3888 92.6348Z" fill="white"/>
<path d="M63.9888 83.6348C63.9888 83.6348 67.7888 84.2348 69.3888 86.9348Z" fill="white"/>
<path d="M95.3029 43.3033C99.4029 39.2033 100.303 26.8033 87.8029 16.4033C73.5029 4.40325 37.0029 -4.59675 17.3029 18.0033C-0.497065 38.4033 15.4029 60.4032 25.2029 65.8032C41.5029 74.6032 55.9029 69.4033 62.1029 77.0033C68.0029 84.3033 60.1029 96.9033 42.4029 88.7033C25.1029 80.7033 12.9029 70.7033 4.20293 79.7033C-3.19707 87.3033 2.50294 111.103 36.4029 119.203C70.4029 127.403 86.4029 111.503 91.5029 101.303C97.2029 89.8033 100.003 64.4033 72.0029 57.0033C37.7029 47.9033 39.1029 41.0033 41.0029 37.9033C47.9029 26.7033 65.8029 41.6033 74.0029 44.6033C81.0029 47.1033 91.3029 47.4033 95.3029 43.3033Z" stroke="black" stroke-width="1.5" stroke-miterlimit="10" stroke-linecap="round" stroke-linejoin="round"/>
<path d="M78.5029 10.5039C78.5029 10.5039 76.1029 14.9039 77.9029 19.2039C79.7029 23.5039 89.7029 29.6039 98.0029 33.8039" stroke="black" stroke-width="1.5" stroke-miterlimit="10" stroke-linecap="round" stroke-linejoin="round"/>
<path d="M67.1029 6.30273C67.1029 6.30273 64.0029 8.10274 64.2029 15.7027" stroke="black" stroke-width="1.5" stroke-miterlimit="10" stroke-linecap="round" stroke-linejoin="round"/>
<path d="M56.903 4.20312C56.903 4.20312 54.703 8.30313 55.703 13.4031" stroke="black" stroke-width="1.5" stroke-miterlimit="10" stroke-linecap="round" stroke-linejoin="round"/>
<path d="M61.803 88.0039C61.803 88.0039 65.103 88.6039 67.303 93.0039" stroke="black" stroke-width="1.5" stroke-miterlimit="10" stroke-linecap="round" stroke-linejoin="round"/>
<path d="M63.903 84.0039C63.903 84.0039 67.7029 84.6039 69.3029 87.3039" stroke="black" stroke-width="1.5" stroke-miterlimit="10" stroke-linecap="round" stroke-linejoin="round"/>
<path d="M109.903 30.4023C109.903 30.4023 110.103 9.30234 86.1029 0.902344" stroke="white" stroke-width="0.5" stroke-miterlimit="10"/>
</svg>
