<svg width="171" height="168" viewBox="0 0 171 168" fill="none" xmlns="http://www.w3.org/2000/svg">
<path d="M125.344 63.9986C125.025 64.0442 124.66 64.1354 124.295 64.2266C123.702 64.3634 123.11 64.5002 122.562 64.6826C124.797 59.6206 122.973 47.9462 114.035 46.9429C110.478 46.5781 105.78 47.8093 99.7607 51.9137C88.3142 59.6206 81.1544 69.243 76.9589 76.4483C74.9068 73.2105 65.8317 58.1157 61.773 50.7736C58.5807 45.0275 48.3655 28.0631 37.2839 34.2195C36.6911 34.5387 36.235 34.9036 35.779 35.2684C30.261 40.2392 33.7268 51.3664 39.2449 62.7217C44.3981 73.2561 51.2386 84.0185 54.1116 90.175C67.0174 117.674 79.4671 145.355 84.2555 151.876C88.9526 158.307 95.6108 164.053 102.634 160.496C111.253 156.163 112.21 146.815 111.253 139.837C110.432 133.818 111.481 126.293 116.725 121.14C120.556 117.309 127.123 114.208 130.361 112.794C130.771 119.498 136.745 121.459 143.038 116.534C149.377 111.563 160.048 82.468 139.162 81.9207C139.071 81.9207 138.98 81.9207 138.888 81.9207C140.849 79.5037 141.488 61.3536 125.344 63.9986Z" fill="white"/>
<path d="M122.608 64.5474C125.664 57.4789 121.012 37.5045 99.8064 51.7784C78.6008 66.0523 71.9883 86.8931 71.9883 86.8931" stroke="#111111" stroke-width="1.5" stroke-miterlimit="10" stroke-linecap="round" stroke-linejoin="round"/>
<path d="M92.4186 88.4435C92.4186 88.4435 106.829 67.8307 124.387 64.1368C141.944 60.4429 140.895 80.1892 138.889 81.9221" stroke="#111111" stroke-width="1.5" stroke-miterlimit="10" stroke-linecap="round" stroke-linejoin="round"/>
<path d="M101.174 104.497C101.174 104.497 118.413 81.239 139.299 81.7862C160.185 82.3335 149.514 111.429 143.175 116.399C136.836 121.37 130.771 119.318 130.497 112.386C130.224 105.454 132.048 100.985 132.048 100.985" stroke="#111111" stroke-width="1.5" stroke-miterlimit="10" stroke-linecap="round" stroke-linejoin="round"/>
<path d="M130.497 112.386C130.497 112.386 122.061 115.807 116.862 121.006C111.663 126.204 110.614 133.729 111.39 139.703C112.347 146.68 111.39 156.029 102.771 160.361C95.7476 163.918 89.0895 158.172 84.3924 151.742C79.604 145.221 67.1542 117.54 54.2485 90.0407C47.9552 76.7245 23.2381 41.9747 37.3752 34.0397C48.4112 27.8376 58.672 44.8477 61.8642 50.5937C65.9229 57.9359 74.998 73.0307 77.0502 76.2685" stroke="#111111" stroke-width="1.5" stroke-miterlimit="10" stroke-linecap="round" stroke-linejoin="round"/>
<path d="M35.8704 35.1801C35.8704 35.1801 37.9226 35.3169 41.7077 46.4898C45.9488 59.0307 41.8901 60.7181 39.3819 62.679" stroke="#111111" stroke-width="1.5" stroke-miterlimit="10" stroke-linecap="round" stroke-linejoin="round"/>
<path d="M44.4438 71.9349C44.4438 71.9349 46.952 67.3289 51.786 65.3224" stroke="#111111" stroke-width="1.5" stroke-miterlimit="10" stroke-linecap="round" stroke-linejoin="round"/>
<path d="M46.8151 76.2234C46.8151 76.2234 49.6881 71.7999 53.9293 69.7477" stroke="#111111" stroke-width="1.5" stroke-miterlimit="10" stroke-linecap="round" stroke-linejoin="round"/>
<path d="M114.08 46.8092C114.08 46.8092 107.559 47.7668 106.419 55.2914" stroke="#111111" stroke-width="1.5" stroke-miterlimit="10" stroke-linecap="round" stroke-linejoin="round"/>
<path d="M125.436 63.909C125.436 63.909 121.331 66.7365 120.784 72.7561" stroke="#111111" stroke-width="1.5" stroke-miterlimit="10" stroke-linecap="round" stroke-linejoin="round"/>
<path d="M121.149 65.0045C121.149 65.0045 118.23 67.011 118.048 71.1153" stroke="#111111" stroke-width="1.5" stroke-miterlimit="10" stroke-linecap="round" stroke-linejoin="round"/>
<path d="M126.804 106.228C126.804 106.228 125.162 110.241 126.393 114.299" stroke="#111111" stroke-width="1.5" stroke-miterlimit="10" stroke-linecap="round" stroke-linejoin="round"/>
<path d="M162.603 92.9023C162.603 92.9023 165.303 116.702 148.003 128.002" stroke="white" stroke-width="0.5" stroke-miterlimit="10"/>
<path d="M170.203 98.002C170.203 98.002 173.003 118.202 158.403 128.002" stroke="white" stroke-width="0.5" stroke-miterlimit="10"/>
</svg>
