<svg width="109" height="112" viewBox="0 0 109 112" fill="none" xmlns="http://www.w3.org/2000/svg">
<path d="M105.503 37.9031C109.303 34.1031 110.103 22.6031 98.6029 12.9031C85.4029 1.80313 51.4029 -6.59687 33.2029 14.4031C16.7029 33.4031 31.4029 53.8031 40.5029 58.7031C55.6029 66.9031 69.0029 62.0031 74.8029 69.1031C80.2029 75.8031 72.9029 87.5031 56.6029 80.0031C40.5029 72.6031 29.2029 63.3031 21.1029 71.6031C14.3029 78.6031 19.6029 100.703 51.0029 108.303C82.5029 115.903 97.4029 101.103 102.103 91.7031C107.403 81.1031 109.903 57.5031 84.0029 50.5031C52.2029 42.0031 53.4029 35.7031 55.2029 32.8031C61.6029 22.4031 78.2029 36.2031 85.9029 39.0031C92.2029 41.4031 101.703 41.7031 105.503 37.9031Z" stroke="white" stroke-width="1.5" stroke-miterlimit="10"/>
<path d="M7.70296 74.3027C7.70296 74.3027 0.902958 100.303 26.803 110.503" stroke="white" stroke-width="0.5" stroke-miterlimit="10"/>
<path d="M0.60291 84.8027C0.60291 84.8027 0.00291157 104.403 13.9029 110.003" stroke="white" stroke-width="0.5" stroke-miterlimit="10"/>
</svg>
