<svg width="102" height="141" viewBox="0 0 102 141" fill="none" xmlns="http://www.w3.org/2000/svg">
<path d="M91.903 84.5027C99.203 81.6027 110.303 63.9027 84.7029 58.9027C59.1029 53.9027 39.403 64.2027 39.403 64.2027" stroke="white" stroke-width="1.5" stroke-miterlimit="10" stroke-linecap="round" stroke-linejoin="round"/>
<path d="M52.903 80.0019C52.903 80.0019 78.103 75.5019 93.403 85.5019C108.703 95.5019 93.803 109.002 91.003 108.802" stroke="white" stroke-width="1.5" stroke-miterlimit="10" stroke-linecap="round" stroke-linejoin="round"/>
<path d="M47.7029 97.9032C47.7029 97.9032 76.9029 93.5032 91.5029 109.003C106.103 124.503 77.5029 137.703 69.4029 136.703C61.3029 135.703 58.4029 129.903 63.2029 124.703C68.0029 119.503 72.5029 117.603 72.5029 117.603" stroke="white" stroke-width="1.5" stroke-miterlimit="10" stroke-linecap="round" stroke-linejoin="round"/>
<path d="M63.1029 124.703C63.1029 124.703 54.6029 121.103 47.1029 121.103C39.6029 121.103 33.4029 125.703 29.7029 130.603C25.4029 136.303 17.9029 142.403 8.60291 139.303C1.00291 136.803 0.302914 127.903 1.60291 119.803C2.90291 111.603 13.8029 82.7025 24.4029 53.6025C29.5029 39.5025 36.7029 -3.3975 52.6029 1.1025C65.0029 4.6025 60.1029 24.2025 58.3029 30.7025C55.9029 38.9025 51.6029 56.4025 50.7029 60.2025" stroke="white" stroke-width="1.5" stroke-miterlimit="10" stroke-linecap="round" stroke-linejoin="round"/>
<path d="M50.603 0.802734C50.603 0.802734 52.003 2.40274 46.603 13.1027C40.603 25.2027 36.503 23.5027 33.303 23.1027" stroke="white" stroke-width="1.5" stroke-miterlimit="10" stroke-linecap="round" stroke-linejoin="round"/>
<path d="M30.2029 33.6025C30.2029 33.6025 35.3029 32.1025 40.2029 34.1025" stroke="white" stroke-width="1.5" stroke-miterlimit="10" stroke-linecap="round" stroke-linejoin="round"/>
<path d="M28.903 38.303C28.903 38.303 34.2029 37.203 38.7029 38.703" stroke="white" stroke-width="1.5" stroke-miterlimit="10" stroke-linecap="round" stroke-linejoin="round"/>
<path d="M98.503 65.6027C98.503 65.6027 93.103 61.6027 86.903 66.2027" stroke="white" stroke-width="1.5" stroke-miterlimit="10" stroke-linecap="round" stroke-linejoin="round"/>
<path d="M94.4029 86.1034C94.4029 86.1034 89.4029 85.2034 84.7029 89.1034" stroke="white" stroke-width="1.5" stroke-miterlimit="10" stroke-linecap="round" stroke-linejoin="round"/>
<path d="M90.6029 83.8029C90.6029 83.8029 87.1029 83.2029 84.0029 85.9029" stroke="white" stroke-width="1.5" stroke-miterlimit="10" stroke-linecap="round" stroke-linejoin="round"/>
<path d="M64.903 117.602C64.903 117.602 60.803 119.302 58.803 123.102" stroke="white" stroke-width="1.5" stroke-miterlimit="10" stroke-linecap="round" stroke-linejoin="round"/>
</svg>
