<svg width="92" height="111" viewBox="0 0 92 111" fill="none" xmlns="http://www.w3.org/2000/svg">
<path d="M88.6028 37.202C92.4028 33.402 93.2029 21.902 81.7029 12.202C68.5029 1.10196 34.5029 -7.29804 16.3029 13.702C-0.197142 32.702 14.5028 53.1019 23.6028 58.0019C38.7028 66.2019 52.1029 61.3019 57.9029 68.4019C63.3029 75.1019 56.0029 86.802 39.7029 79.302C23.6029 71.902 12.3029 62.6019 4.20285 70.9019C-2.59715 77.9019 2.70285 100.002 34.1028 107.602C65.6028 115.202 80.5029 100.402 85.2029 91.0019C90.5029 80.4019 93.0028 56.8019 67.1028 49.8019C35.3028 41.3019 36.5029 35.0019 38.3029 32.1019C44.7029 21.702 61.3029 35.5019 69.0029 38.3019C75.3029 40.702 84.8028 41.002 88.6028 37.202Z" fill="#FF4915"/>
<path d="M88.6028 37.202C92.4028 33.402 93.2029 21.902 81.7029 12.202C68.5029 1.10196 34.5029 -7.29804 16.3029 13.702C-0.197142 32.702 14.5028 53.1019 23.6028 58.0019C38.7028 66.2019 52.1029 61.3019 57.9029 68.4019C63.3029 75.1019 56.0029 86.802 39.7029 79.302C23.6029 71.902 12.3029 62.6019 4.20285 70.9019C-2.59715 77.9019 2.70285 100.002 34.1028 107.602C65.6028 115.202 80.5029 100.402 85.2029 91.0019C90.5029 80.4019 93.0028 56.8019 67.1028 49.8019C35.3028 41.3019 36.5029 35.0019 38.3029 32.1019C44.7029 21.702 61.3029 35.5019 69.0029 38.3019C75.3029 40.7019 84.8028 41.002 88.6028 37.202Z" stroke="white" stroke-width="1.5" stroke-miterlimit="10"/>
</svg>
