<svg width="99" height="120" viewBox="0 0 99 120" fill="none" xmlns="http://www.w3.org/2000/svg">
<path d="M95.5029 40.8033C99.6029 36.7033 100.503 24.3032 88.0029 13.9032C73.7029 1.90325 37.2029 -7.09674 17.5029 15.5033C-0.297083 35.9033 15.6029 57.9033 25.4029 63.3033C41.7029 72.1033 56.1029 66.9033 62.3029 74.5033C68.2029 81.8033 60.3029 94.4033 42.6029 86.2033C25.3029 78.2033 13.1029 68.2033 4.40288 77.2033C-2.99712 84.8033 2.70289 108.603 36.6029 116.703C70.6029 124.903 86.6029 109.003 91.7029 98.8033C97.4029 87.3033 100.203 61.9033 72.2029 54.5033C37.9029 45.4033 39.3029 38.5033 41.2029 35.4033C48.1029 24.2033 66.0029 39.1033 74.2029 42.1033C81.3029 44.6033 91.5029 44.9033 95.5029 40.8033Z" stroke="white" stroke-width="1.5" stroke-miterlimit="10" stroke-linecap="round" stroke-linejoin="round"/>
<path d="M78.7029 8.00391C78.7029 8.00391 76.3029 12.4039 78.1029 16.7039C79.9029 21.0039 89.9029 27.1039 98.2029 31.3039" stroke="white" stroke-width="1.5" stroke-miterlimit="10" stroke-linecap="round" stroke-linejoin="round"/>
<path d="M67.3029 3.80273C67.3029 3.80273 64.2028 5.60273 64.4028 13.2027" stroke="white" stroke-width="1.5" stroke-miterlimit="10" stroke-linecap="round" stroke-linejoin="round"/>
<path d="M57.103 1.70312C57.103 1.70312 54.903 5.80311 55.903 10.9031" stroke="white" stroke-width="1.5" stroke-miterlimit="10" stroke-linecap="round" stroke-linejoin="round"/>
<path d="M62.0029 85.5039C62.0029 85.5039 65.3029 86.1039 67.5029 90.5039" stroke="white" stroke-width="1.5" stroke-miterlimit="10" stroke-linecap="round" stroke-linejoin="round"/>
<path d="M64.1029 81.4023C64.1029 81.4023 67.9029 82.0024 69.5029 84.7024" stroke="white" stroke-width="1.5" stroke-miterlimit="10" stroke-linecap="round" stroke-linejoin="round"/>
</svg>
