<svg width="165" height="165" viewBox="0 0 165 165" fill="none" xmlns="http://www.w3.org/2000/svg">
<path d="M122.96 62.8672C122.647 62.9119 122.289 63.0015 121.93 63.091C121.348 63.2254 120.766 63.3597 120.229 63.5388C122.423 58.5686 120.632 47.106 111.856 46.1209C108.363 45.7627 103.751 46.9716 97.8409 51.0015C86.6021 58.5686 79.5722 68.0164 75.4528 75.0911C73.4379 71.912 64.5274 57.091 60.5423 49.8821C57.408 44.2403 47.3781 27.5836 36.4975 33.6283C35.9154 33.9418 35.4677 34.3 35.0199 34.6582C29.602 39.5388 33.005 50.4642 38.4229 61.6134C43.4826 71.9567 50.199 82.5239 53.0199 88.5687C65.6916 115.569 77.9155 142.748 82.617 149.151C87.2289 155.464 93.7662 161.106 100.662 157.614C109.124 153.36 110.065 144.181 109.124 137.33C108.318 131.419 109.348 124.031 114.498 118.972C118.259 115.211 124.707 112.166 127.886 110.778C128.289 117.36 134.154 119.285 140.333 114.449C146.557 109.569 157.035 81.0015 136.527 80.4642C136.438 80.4642 136.348 80.4642 136.259 80.4642C138.184 78.091 138.811 60.2701 122.96 62.8672Z" fill="white"/>
<path d="M120.274 63.4045C123.274 56.4642 118.707 36.8522 97.8858 50.8671C77.0649 64.8821 70.5723 85.3448 70.5723 85.3448" stroke="#111111" stroke-width="1.5" stroke-miterlimit="10" stroke-linecap="round" stroke-linejoin="round"/>
<path d="M90.632 86.8684C90.632 86.8684 104.781 66.6296 122.02 63.0027C139.259 59.3758 138.229 78.7639 136.259 80.4654" stroke="#111111" stroke-width="1.5" stroke-miterlimit="10" stroke-linecap="round" stroke-linejoin="round"/>
<path d="M99.229 102.628C99.229 102.628 116.154 79.7925 136.662 80.3298C157.169 80.8672 146.692 109.434 140.468 114.315C134.244 119.196 128.289 117.181 128.02 110.375C127.751 103.569 129.542 99.1806 129.542 99.1806" stroke="#111111" stroke-width="1.5" stroke-miterlimit="10" stroke-linecap="round" stroke-linejoin="round"/>
<path d="M128.02 110.376C128.02 110.376 119.736 113.734 114.632 118.839C109.528 123.943 108.498 131.331 109.259 137.197C110.199 144.048 109.259 153.227 100.796 157.481C93.9006 160.973 87.3633 155.331 82.7514 149.018C78.0499 142.615 65.826 115.436 53.1543 88.4358C46.9752 75.3611 22.7065 41.2417 36.5871 33.4506C47.423 27.3611 57.4976 44.0626 60.6319 49.7044C64.617 56.9134 73.5275 71.7343 75.5424 74.9134" stroke="#111111" stroke-width="1.5" stroke-miterlimit="10" stroke-linecap="round" stroke-linejoin="round"/>
<path d="M35.1096 34.5696C35.1096 34.5696 37.1246 34.7039 40.841 45.674C45.0052 57.9875 41.0201 59.6442 38.5574 61.5696" stroke="#111111" stroke-width="1.5" stroke-miterlimit="10" stroke-linecap="round" stroke-linejoin="round"/>
<path d="M43.5275 70.6586C43.5275 70.6586 45.9902 66.1362 50.7364 64.166" stroke="#111111" stroke-width="1.5" stroke-miterlimit="10" stroke-linecap="round" stroke-linejoin="round"/>
<path d="M45.8558 74.869C45.8558 74.869 48.6767 70.5257 52.8409 68.5108" stroke="#111111" stroke-width="1.5" stroke-miterlimit="10" stroke-linecap="round" stroke-linejoin="round"/>
<path d="M111.901 45.988C111.901 45.988 105.498 46.9283 104.378 54.3163" stroke="#111111" stroke-width="1.5" stroke-miterlimit="10" stroke-linecap="round" stroke-linejoin="round"/>
<path d="M123.05 62.7784C123.05 62.7784 119.02 65.5545 118.483 71.465" stroke="#111111" stroke-width="1.5" stroke-miterlimit="10" stroke-linecap="round" stroke-linejoin="round"/>
<path d="M118.841 63.8528C118.841 63.8528 115.975 65.823 115.796 69.8528" stroke="#111111" stroke-width="1.5" stroke-miterlimit="10" stroke-linecap="round" stroke-linejoin="round"/>
<path d="M124.393 104.33C124.393 104.33 122.781 108.27 123.99 112.255" stroke="#111111" stroke-width="1.5" stroke-miterlimit="10" stroke-linecap="round" stroke-linejoin="round"/>
<path d="M26.5029 25.502C26.5029 25.502 13.4029 36.202 26.5029 58.702" stroke="white" stroke-width="0.5" stroke-miterlimit="10"/>
<path d="M16.2029 27.7031C16.2029 27.7031 6.60295 35.6031 16.2029 52.0031" stroke="white" stroke-width="0.5" stroke-miterlimit="10"/>
</svg>
