<svg width="217" height="56" viewBox="0 0 217 56" fill="none" xmlns="http://www.w3.org/2000/svg">
<path d="M216.255 31.7549C216.255 37.2777 211.778 41.7549 206.255 41.7549L10.2554 41.7548C4.73251 41.7548 0.255371 37.2777 0.255372 31.7548L0.255374 10.5639C0.255374 5.04108 4.73252 0.563935 10.2554 0.563935L206.255 0.563953C211.778 0.563953 216.255 5.0411 216.255 10.564L216.255 31.7549Z" fill="#EDEDED"/>
<path d="M28.1691 36.3249C27.5376 46.9918 21.107 51.9197 17.5894 55.1292C34.5114 52.0898 40.6676 44.111 45.1827 36.325L28.1691 36.3249Z" fill="#EDEDED" stroke="#EDEDED"/>
<path d="M29.6076 22.8155C29.1596 22.7035 28.707 22.5448 28.2496 22.3395C27.8016 22.1248 27.377 21.8868 26.9756 21.6255C26.5743 21.3641 26.2196 21.0841 25.9116 20.7855C25.6036 20.4868 25.375 20.1835 25.2256 19.8755C25.0576 20.2021 24.8243 20.5148 24.5256 20.8135C24.227 21.1028 23.8816 21.3735 23.4896 21.6255C23.0883 21.8868 22.6683 22.1155 22.2296 22.3115C21.791 22.5075 21.329 22.6801 20.8436 22.8295L19.7516 21.6395C20.3956 21.4808 20.9883 21.2801 21.5296 21.0375C22.0803 20.7948 22.5656 20.5101 22.9856 20.1835C23.4056 19.8568 23.7323 19.4881 23.9656 19.0775C24.2083 18.6668 24.3296 18.2095 24.3296 17.7055V17.3975H20.7456V16.0675H29.7056V17.3975H26.1216V17.7055C26.1216 18.1908 26.243 18.6435 26.4856 19.0635C26.7376 19.4835 27.0736 19.8615 27.4936 20.1975C27.9136 20.5335 28.3943 20.8275 28.9356 21.0795C29.4863 21.3221 30.0603 21.5088 30.6576 21.6395L29.6076 22.8155ZM31.0216 26.6095H19.4436V25.2795H24.4136V22.5075H26.0376V25.2795H31.0216V26.6095ZM41.9426 25.8395C41.9426 26.5768 41.5553 27.1648 40.7806 27.6035C40.006 28.0421 38.844 28.2615 37.2946 28.2615C35.736 28.2615 34.5693 28.0421 33.7946 27.6035C33.0293 27.1648 32.6466 26.5768 32.6466 25.8395C32.6466 25.1115 33.034 24.5281 33.8086 24.0895C34.5833 23.6415 35.7453 23.4175 37.2946 23.4175C38.8346 23.4175 39.992 23.6415 40.7666 24.0895C41.5506 24.5281 41.9426 25.1115 41.9426 25.8395ZM39.3806 26.7355C39.9033 26.5488 40.1646 26.2455 40.1646 25.8255C40.1646 25.4335 39.9033 25.1348 39.3806 24.9295C38.8673 24.7241 38.172 24.6215 37.2946 24.6215C36.3893 24.6215 35.6846 24.7241 35.1806 24.9295C34.6766 25.1348 34.4246 25.4335 34.4246 25.8255C34.4246 26.2455 34.6766 26.5488 35.1806 26.7355C35.6846 26.9315 36.3893 27.0295 37.2946 27.0295C38.1626 27.0295 38.858 26.9315 39.3806 26.7355ZM43.0766 22.7035H31.5266V21.3735H34.5086V19.7495C33.9206 19.5535 33.4726 19.2875 33.1646 18.9515C32.8566 18.6155 32.7026 18.2235 32.7026 17.7755C32.7026 17.0755 33.1086 16.5061 33.9206 16.0675C34.7513 15.6288 35.876 15.4095 37.2946 15.4095C38.704 15.4095 39.824 15.6288 40.6546 16.0675C41.476 16.4968 41.8866 17.0661 41.8866 17.7755C41.8866 18.2235 41.7326 18.6155 41.4246 18.9515C41.1166 19.2781 40.6826 19.5395 40.1226 19.7355V21.3735H43.0766V22.7035ZM38.5686 21.3735V20.0855C38.3726 20.1135 38.1673 20.1321 37.9526 20.1415C37.738 20.1508 37.5186 20.1555 37.2946 20.1555C37.0706 20.1555 36.856 20.1508 36.6506 20.1415C36.4453 20.1321 36.2493 20.1135 36.0626 20.0855V21.3735H38.5686ZM39.3526 18.6575C39.614 18.5548 39.8146 18.4335 39.9546 18.2935C40.0946 18.1535 40.1646 17.9901 40.1646 17.8035C40.1646 17.6075 40.0946 17.4348 39.9546 17.2855C39.8146 17.1361 39.6186 17.0101 39.3666 16.9075C39.1146 16.7955 38.8113 16.7115 38.4566 16.6555C38.102 16.5995 37.7146 16.5715 37.2946 16.5715C36.4266 16.5715 35.7313 16.6835 35.2086 16.9075C34.686 17.1221 34.4246 17.4208 34.4246 17.8035C34.4246 17.9901 34.4946 18.1535 34.6346 18.2935C34.7746 18.4335 34.9706 18.5548 35.2226 18.6575C35.4746 18.7601 35.778 18.8395 36.1326 18.8955C36.4873 18.9421 36.8746 18.9655 37.2946 18.9655C37.7146 18.9655 38.0973 18.9421 38.4426 18.8955C38.7973 18.8395 39.1006 18.7601 39.3526 18.6575ZM49.7836 16.9495H45.8776V15.6615H49.7836V16.9495ZM51.4776 19.0915H44.1696V17.7475H51.4776V19.0915ZM50.8896 24.0195C50.7403 24.4021 50.5209 24.7241 50.2316 24.9855C49.9423 25.2561 49.5923 25.4661 49.1816 25.6155C48.7803 25.7648 48.3369 25.8395 47.8516 25.8395C47.3476 25.8395 46.8949 25.7648 46.4936 25.6155C46.0923 25.4661 45.7516 25.2561 45.4716 24.9855C45.1823 24.7148 44.9583 24.3928 44.7996 24.0195C44.6409 23.6461 44.5616 23.2355 44.5616 22.7875C44.5616 22.3581 44.6363 21.9568 44.7856 21.5835C44.9349 21.2101 45.1543 20.8881 45.4436 20.6175C45.7329 20.3468 46.0783 20.1368 46.4796 19.9875C46.8903 19.8288 47.3476 19.7495 47.8516 19.7495C48.3556 19.7495 48.8083 19.8288 49.2096 19.9875C49.6109 20.1368 49.9563 20.3468 50.2456 20.6175C50.5349 20.8881 50.7543 21.2101 50.9036 21.5835C51.0623 21.9568 51.1416 22.3581 51.1416 22.7875C51.1416 23.2355 51.0576 23.6461 50.8896 24.0195ZM47.8516 24.4955C48.3649 24.4955 48.7709 24.3368 49.0696 24.0195C49.3683 23.7021 49.5176 23.2915 49.5176 22.7875C49.5176 22.3115 49.3683 21.9101 49.0696 21.5835C48.7709 21.2568 48.3649 21.0935 47.8516 21.0935C47.3196 21.0935 46.9089 21.2568 46.6196 21.5835C46.3303 21.9101 46.1856 22.3115 46.1856 22.7875C46.1856 23.2915 46.3303 23.7021 46.6196 24.0195C46.9089 24.3368 47.3196 24.4955 47.8516 24.4955ZM54.5576 28.0235H52.9616V15.4935H54.5576V28.0235ZM64.8351 20.4915C64.9378 20.0155 65.0218 19.4881 65.0871 18.9095C65.1618 18.3215 65.2131 17.7708 65.2411 17.2575H60.4251V15.9135H66.5291C66.7905 15.9135 66.9211 16.0441 66.9211 16.3055C66.9025 16.6508 66.8745 17.0148 66.8371 17.3975C66.8091 17.7708 66.7718 18.1395 66.7251 18.5035C66.6785 18.8768 66.6271 19.2361 66.5711 19.5815C66.5245 19.9268 66.4778 20.2301 66.4311 20.4915H64.8351ZM67.9431 22.5355C67.6445 22.5821 67.2665 22.6288 66.8091 22.6755C66.3518 22.7221 65.8385 22.7641 65.2691 22.8015C64.6998 22.8481 64.0838 22.8855 63.4211 22.9135C62.7585 22.9321 62.0631 22.9415 61.3351 22.9415H59.7111V21.5835H61.9931V18.9095H63.5611V21.5835C63.7665 21.5835 64.0558 21.5741 64.4291 21.5555C64.8025 21.5368 65.1991 21.5088 65.6191 21.4715C66.0391 21.4435 66.4545 21.4108 66.8651 21.3735C67.2851 21.3268 67.6445 21.2755 67.9431 21.2195V22.5355ZM69.8471 24.8175H68.2651V15.4795H69.8471V19.2175H71.4711V20.5755H69.8471V24.8175ZM70.2111 27.7855H62.0351C61.8858 27.7855 61.7831 27.7575 61.7271 27.7015C61.6805 27.6455 61.6571 27.5428 61.6571 27.3935V23.7675H63.2531V26.4415H70.2111V27.7855ZM79.7601 21.9755C79.5174 22.0221 79.2188 22.0641 78.8641 22.1015C78.5094 22.1388 78.1221 22.1761 77.7021 22.2135C77.2821 22.2508 76.8528 22.2835 76.4141 22.3115C75.9848 22.3301 75.5741 22.3395 75.1821 22.3395C75.1074 22.3395 74.9674 22.3441 74.7621 22.3535C74.5661 22.3535 74.3468 22.3535 74.1041 22.3535C73.8614 22.3535 73.6141 22.3581 73.3621 22.3675C73.1194 22.3675 72.9094 22.3675 72.7321 22.3675C72.5828 22.3675 72.4801 22.3395 72.4241 22.2835C72.3681 22.2275 72.3401 22.1248 72.3401 21.9755V18.9095C72.3401 18.7695 72.3681 18.6715 72.4241 18.6155C72.4801 18.5501 72.5828 18.5175 72.7321 18.5175H76.6661V17.2155H72.3401V15.9135H77.8281C78.0894 15.9135 78.2201 16.0441 78.2201 16.3055V19.3435C78.2201 19.4928 78.1921 19.5955 78.1361 19.6515C78.0801 19.7075 77.9821 19.7355 77.8421 19.7355H73.9081V21.0515H75.6581C75.9288 21.0515 76.2461 21.0421 76.6101 21.0235C76.9834 20.9955 77.3661 20.9628 77.7581 20.9255C78.1501 20.8975 78.5188 20.8601 78.8641 20.8135C79.2188 20.7668 79.5174 20.7201 79.7601 20.6735V21.9755ZM81.8321 22.8435H80.2641V15.4935H81.8321V18.1255H83.4421V19.4695H81.8321V22.8435ZM80.2641 26.5955V24.6635H75.1821V26.5955H80.2641ZM81.8321 27.4915C81.8321 27.6408 81.7994 27.7435 81.7341 27.7995C81.6781 27.8555 81.5801 27.8835 81.4401 27.8835H73.9781C73.8288 27.8835 73.7261 27.8555 73.6701 27.7995C73.6141 27.7435 73.5861 27.6408 73.5861 27.4915V23.7535C73.5861 23.6135 73.6141 23.5155 73.6701 23.4595C73.7261 23.3941 73.8288 23.3615 73.9781 23.3615H81.4401C81.7014 23.3615 81.8321 23.4921 81.8321 23.7535V27.4915ZM89.6591 16.9495H85.7531V15.6615H89.6591V16.9495ZM91.3391 19.0915H84.0311V17.7475H91.3391V19.0915ZM90.7511 24.0195C90.6018 24.4021 90.3824 24.7241 90.0931 24.9855C89.8038 25.2561 89.4538 25.4661 89.0431 25.6155C88.6418 25.7648 88.1984 25.8395 87.7131 25.8395C87.2091 25.8395 86.7564 25.7648 86.3551 25.6155C85.9538 25.4661 85.6131 25.2561 85.3331 24.9855C85.0438 24.7148 84.8198 24.3928 84.6611 24.0195C84.5024 23.6461 84.4231 23.2355 84.4231 22.7875C84.4231 22.3581 84.4978 21.9568 84.6471 21.5835C84.7964 21.2101 85.0158 20.8881 85.3051 20.6175C85.5944 20.3468 85.9398 20.1368 86.3411 19.9875C86.7518 19.8288 87.2091 19.7495 87.7131 19.7495C88.2171 19.7495 88.6698 19.8288 89.0711 19.9875C89.4724 20.1368 89.8178 20.3468 90.1071 20.6175C90.3964 20.8881 90.6158 21.2101 90.7651 21.5835C90.9238 21.9568 91.0031 22.3581 91.0031 22.7875C91.0031 23.2355 90.9191 23.6461 90.7511 24.0195ZM87.7131 24.4955C88.2264 24.4955 88.6324 24.3368 88.9311 24.0195C89.2298 23.7021 89.3791 23.2915 89.3791 22.7875C89.3791 22.3115 89.2298 21.9101 88.9311 21.5835C88.6324 21.2568 88.2264 21.0935 87.7131 21.0935C87.1811 21.0935 86.7704 21.2568 86.4811 21.5835C86.1918 21.9101 86.0471 22.3115 86.0471 22.7875C86.0471 23.2915 86.1918 23.7021 86.4811 24.0195C86.7704 24.3368 87.1811 24.4955 87.7131 24.4955ZM93.9851 28.0095H92.4171V15.4935H93.9851V20.4775H95.6931V21.9195H93.9851V28.0095ZM103.576 23.6555C103.753 22.6661 103.907 21.6441 104.038 20.5895C104.169 19.5255 104.248 18.4988 104.276 17.5095H96.9961V16.1795H105.578C105.839 16.1795 105.97 16.3101 105.97 16.5715C105.933 17.1035 105.886 17.6681 105.83 18.2655C105.783 18.8535 105.723 19.4555 105.648 20.0715C105.583 20.6968 105.503 21.3175 105.41 21.9335C105.326 22.5401 105.237 23.1141 105.144 23.6555H103.576ZM107.356 26.6375H95.7781V25.2935H99.8381V20.6315H101.448V25.2935H107.356V26.6375ZM118.6 21.8775C118.292 21.7375 117.988 21.5741 117.69 21.3875C117.4 21.2008 117.13 21.0001 116.878 20.7855C116.616 20.5801 116.383 20.3701 116.178 20.1555C115.972 19.9315 115.814 19.7168 115.702 19.5115C115.506 19.9875 115.151 20.4681 114.638 20.9535C114.124 21.4388 113.532 21.8635 112.86 22.2275L111.6 21.1915C112.514 20.7901 113.275 20.2441 113.882 19.5535C114.171 19.2081 114.4 18.8395 114.568 18.4475C114.745 18.0555 114.838 17.6495 114.848 17.2295V15.7595H116.528V17.1875C116.528 17.5795 116.612 17.9575 116.78 18.3215C116.948 18.6855 117.172 19.0261 117.452 19.3435C117.741 19.6515 118.068 19.9315 118.432 20.1835C118.805 20.4261 119.192 20.6221 119.594 20.7715L118.6 21.8775ZM122.436 22.4795H120.854V15.4935H122.436V22.4795ZM119.454 26.5675L119.496 24.2995H116.85L116.878 26.5675H119.454ZM122.716 27.8835H113.616V26.5675H115.338L115.268 24.2995H113.798V22.9695H122.534V24.2995H121.092L121.008 26.5675H122.716V27.8835ZM134.211 18.0555C134.211 18.8581 133.8 19.5021 132.979 19.9875C132.185 20.4728 131.065 20.7155 129.619 20.7155C128.163 20.7155 127.038 20.4728 126.245 19.9875C125.433 19.5021 125.027 18.8581 125.027 18.0555C125.027 17.2808 125.433 16.6461 126.245 16.1515C127.075 15.6568 128.2 15.4095 129.619 15.4095C131.028 15.4095 132.148 15.6568 132.979 16.1515C133.8 16.6368 134.211 17.2715 134.211 18.0555ZM131.677 19.1055C131.938 18.9841 132.139 18.8395 132.279 18.6715C132.419 18.4941 132.489 18.2935 132.489 18.0695C132.489 17.8455 132.419 17.6448 132.279 17.4675C132.139 17.2901 131.943 17.1408 131.691 17.0195C131.439 16.8981 131.135 16.8048 130.781 16.7395C130.426 16.6741 130.039 16.6415 129.619 16.6415C128.751 16.6415 128.055 16.7675 127.533 17.0195C127.01 17.2715 126.749 17.6215 126.749 18.0695C126.749 18.2935 126.819 18.4941 126.959 18.6715C127.099 18.8395 127.295 18.9841 127.547 19.1055C127.799 19.2175 128.102 19.3061 128.457 19.3715C128.811 19.4368 129.199 19.4695 129.619 19.4695C130.039 19.4695 130.421 19.4368 130.767 19.3715C131.121 19.3061 131.425 19.2175 131.677 19.1055ZM135.415 23.1375H123.851V21.8075H135.415V23.1375ZM134.351 27.7855H125.685C125.535 27.7855 125.433 27.7575 125.377 27.7015C125.33 27.6455 125.307 27.5428 125.307 27.3935V24.0615H126.903V26.4415H134.351V27.7855ZM148.408 19.4555V18.2095H142.794V19.4555H148.408ZM149.99 20.3655C149.99 20.5148 149.957 20.6175 149.892 20.6735C149.836 20.7295 149.738 20.7575 149.598 20.7575H141.604C141.455 20.7575 141.352 20.7295 141.296 20.6735C141.249 20.6175 141.226 20.5148 141.226 20.3655V15.5915H142.794V16.9215H148.408V15.5915H149.99V20.3655ZM151.39 23.1095H146.616V25.5315H144.992V23.1095H139.84V21.7795H151.39V23.1095ZM150.368 27.7855H141.66C141.511 27.7855 141.408 27.7575 141.352 27.7015C141.305 27.6455 141.282 27.5428 141.282 27.3935V23.9915H142.878V26.4415H150.368V27.7855ZM162.269 18.0555C162.269 18.8581 161.858 19.5021 161.037 19.9875C160.244 20.4728 159.124 20.7155 157.677 20.7155C156.221 20.7155 155.096 20.4728 154.303 19.9875C153.491 19.5021 153.085 18.8581 153.085 18.0555C153.085 17.2808 153.491 16.6461 154.303 16.1515C155.134 15.6568 156.258 15.4095 157.677 15.4095C159.086 15.4095 160.206 15.6568 161.037 16.1515C161.858 16.6368 162.269 17.2715 162.269 18.0555ZM159.735 19.1055C159.996 18.9841 160.197 18.8395 160.337 18.6715C160.477 18.4941 160.547 18.2935 160.547 18.0695C160.547 17.8455 160.477 17.6448 160.337 17.4675C160.197 17.2901 160.001 17.1408 159.749 17.0195C159.497 16.8981 159.194 16.8048 158.839 16.7395C158.484 16.6741 158.097 16.6415 157.677 16.6415C156.809 16.6415 156.114 16.7675 155.591 17.0195C155.068 17.2715 154.807 17.6215 154.807 18.0695C154.807 18.2935 154.877 18.4941 155.017 18.6715C155.157 18.8395 155.353 18.9841 155.605 19.1055C155.857 19.2175 156.16 19.3061 156.515 19.3715C156.87 19.4368 157.257 19.4695 157.677 19.4695C158.097 19.4695 158.48 19.4368 158.825 19.3715C159.18 19.3061 159.483 19.2175 159.735 19.1055ZM163.473 23.1375H151.909V21.8075H163.473V23.1375ZM162.409 27.7855H153.743C153.594 27.7855 153.491 27.7575 153.435 27.7015C153.388 27.6455 153.365 27.5428 153.365 27.3935V24.0615H154.961V26.4415H162.409V27.7855ZM176.509 23.6975C176.453 24.2201 176.308 24.6821 176.075 25.0835C175.851 25.4755 175.566 25.8068 175.221 26.0775C174.885 26.3388 174.497 26.5348 174.059 26.6655C173.629 26.8055 173.177 26.8755 172.701 26.8755C171.917 26.8755 171.24 26.7215 170.671 26.4135C170.111 26.1148 169.649 25.7135 169.285 25.2095C168.921 24.6961 168.65 24.1081 168.473 23.4455C168.305 22.7828 168.221 22.0921 168.221 21.3735C168.221 20.6641 168.305 19.9781 168.473 19.3155C168.65 18.6528 168.921 18.0648 169.285 17.5515C169.649 17.0381 170.111 16.6275 170.671 16.3195C171.24 16.0021 171.917 15.8435 172.701 15.8435C173.149 15.8435 173.587 15.9041 174.017 16.0255C174.446 16.1375 174.829 16.3195 175.165 16.5715C175.51 16.8235 175.795 17.1455 176.019 17.5375C176.252 17.9295 176.397 18.3961 176.453 18.9375H174.815C174.721 18.3215 174.483 17.8828 174.101 17.6215C173.727 17.3508 173.27 17.2155 172.729 17.2155C172.178 17.2155 171.721 17.3368 171.357 17.5795C170.993 17.8128 170.699 18.1255 170.475 18.5175C170.251 18.9095 170.092 19.3575 169.999 19.8615C169.905 20.3561 169.859 20.8601 169.859 21.3735C169.859 21.8961 169.905 22.4048 169.999 22.8995C170.092 23.3941 170.251 23.8375 170.475 24.2295C170.699 24.6215 170.993 24.9388 171.357 25.1815C171.721 25.4148 172.178 25.5315 172.729 25.5315C173.27 25.5315 173.723 25.4008 174.087 25.1395C174.46 24.8781 174.721 24.3975 174.871 23.6975H176.509ZM179.17 26.6655H177.644V15.9415H179.17V26.6655ZM182.283 26.6655H180.757V19.1755H182.283V26.6655ZM182.339 17.6215H180.701V16.0675H182.339V17.6215ZM189.807 23.9915C189.667 24.9715 189.313 25.7041 188.743 26.1895C188.174 26.6748 187.483 26.9175 186.671 26.9175C186.111 26.9175 185.621 26.8055 185.201 26.5815C184.791 26.3668 184.445 26.0775 184.165 25.7135C183.895 25.3495 183.689 24.9341 183.549 24.4675C183.419 24.0008 183.353 23.5201 183.353 23.0255C183.353 22.5308 183.423 22.0501 183.563 21.5835C183.713 21.1168 183.932 20.7015 184.221 20.3375C184.511 19.9735 184.865 19.6841 185.285 19.4695C185.705 19.2455 186.195 19.1335 186.755 19.1335C187.147 19.1335 187.521 19.1988 187.875 19.3295C188.23 19.4508 188.543 19.6375 188.813 19.8895C189.093 20.1321 189.317 20.4355 189.485 20.7995C189.653 21.1541 189.751 21.5601 189.779 22.0175H188.155C188.118 21.4015 187.973 20.9768 187.721 20.7435C187.479 20.5101 187.119 20.3935 186.643 20.3935C186.391 20.3935 186.163 20.4588 185.957 20.5895C185.752 20.7108 185.575 20.8881 185.425 21.1215C185.285 21.3548 185.173 21.6348 185.089 21.9615C185.015 22.2788 184.977 22.6335 184.977 23.0255C184.977 23.4081 185.015 23.7628 185.089 24.0895C185.173 24.4068 185.285 24.6821 185.425 24.9155C185.575 25.1488 185.747 25.3308 185.943 25.4615C186.149 25.5828 186.377 25.6435 186.629 25.6435C187.077 25.6435 187.427 25.5268 187.679 25.2935C187.931 25.0508 188.09 24.6168 188.155 23.9915H189.807ZM197.337 26.6655H195.363L192.423 23.4875V26.6655H190.939V15.9835H192.423V21.6395L195.097 19.3155H197.155L193.417 22.5215L197.337 26.6655ZM199.603 24.5795H198.161L197.951 15.6475H199.799L199.603 24.5795ZM199.827 27.1275H197.937V25.3495H199.827V27.1275Z" fill="black"/>
</svg>
