<svg xmlns="http://www.w3.org/2000/svg" viewBox="0 0 590.81 503.95"><defs><style>.cls-1{fill:#fff;}</style></defs><g id="Layer_2" data-name="Layer 2"><g id="Layer_4" data-name="Layer 4"><path class="cls-1" d="M368.66,480.83l20.91,14.62-2.46,8.5L366.2,489.33Z"/><path class="cls-1" d="M413.55,411.36,403,427l-9.14.27,10.63-15.63Z"/><path class="cls-1" d="M427.86,19l-13.35-7.2L421.28,0l13.35,7.21Z"/><path class="cls-1" d="M513.68,184.23l14-19L540,156.49l-13.87,19Z"/><path class="cls-1" d="M66.07,227.47,77.4,237.6l4,7.27L70,234.81Z"/><path class="cls-1" d="M530.72,51.67,517.64,71l-11.25.34L519.48,52Z"/><path class="cls-1" d="M201.77,263.7l8.87,20.8L203.17,291l-9-20.73Z"/><path class="cls-1" d="M0,54.52,19.5,41.47l13.62,1.22L13.62,55.75Z"/><path class="cls-1" d="M0,183.35l19.5-13,13.62,1.23-19.5,13Z"/><path class="cls-1" d="M368.66,173l20.91,14.68-2.38,8.5-21-14.68Z"/><path class="cls-1" d="M572.18,226.52l18.63,16.38-1.41,10.26-18.71-16.38Z"/><path class="cls-1" d="M482.5,407.14l9.05,15.16-5,5.37-9.05-15.16Z"/></g></g></svg>