<svg xmlns="http://www.w3.org/2000/svg" viewBox="0 0 609.11 524.17"><defs><style>.cls-1{fill:#fff;}</style></defs><g id="Layer_2" data-name="Layer 2"><g id="Layer_2-2" data-name="Layer 2"><path class="cls-1" d="M128.28,368.4l-14.62,20.9-8.5-2.46,14.62-20.9Z"/><path class="cls-1" d="M197.75,413.28l-15.63-10.54-.27-9.13,15.63,10.63Z"/><path class="cls-1" d="M240.81,196l-15.9,19.32L214,208.44l15.91-19.32Z"/><path class="cls-1" d="M130.11,6.85,114.2,26.18l-10.87-6.86L119.23,0Z"/><path class="cls-1" d="M473.4,492.25l7.2-13.35,11.83,6.67-7.27,13.36Z"/><path class="cls-1" d="M590.08,427.6l7.2-13.35L609.11,421l-7.21,13.35Z"/><path class="cls-1" d="M384.75,62.64,374.27,75.07l-7.52,4.33L377.15,67Z"/><path class="cls-1" d="M265.86,71l11.77,23.72-4.06,10L261.87,81Z"/><path class="cls-1" d="M567.93,523.3,583,505.44l11.21.87-15.08,17.86Z"/><path class="cls-1" d="M310.81,261.6,290,270.47,283.55,263l20.73-9Z"/><path class="cls-1" d="M405,384.91l16-15.28,10.47,2.63-16,15.29Z"/><path class="cls-1" d="M585.22,136l13,19.5L597,169.09l-13-19.5Z"/><path class="cls-1" d="M486.52,242l13.05,19.5-1.22,13.61-13.06-19.5Z"/><path class="cls-1" d="M432.66,119.42l13,19.5-1.23,13.61-13-19.5Z"/><path class="cls-1" d="M295.14,468l-14.69,20.9L272,486.54l14.68-21Z"/><path class="cls-1" d="M23.26,278.08,1.17,266.8,0,256.51l22.17,11.26Z"/><path class="cls-1" d="M119.24,512.79l-15.16,9-5.37-5,15.16-9.05Z"/></g></g></svg>