<svg xmlns="http://www.w3.org/2000/svg" viewBox="0 0 549.81 494.43"><defs><style>.cls-1{fill:#fff;}</style></defs><g id="Layer_2" data-name="Layer 2"><g id="Layer_3" data-name="Layer 3"><path class="cls-1" d="M342.35,471.32l20.91,14.61-2.46,8.5-20.91-14.62Z"/><path class="cls-1" d="M262.86,348.13,282.18,364l-6.85,10.88L256,359Z"/><path class="cls-1" d="M131,447.33l19.32,15.91-6.85,10.88L124.1,458.21Z"/><path class="cls-1" d="M543.13,19l-13.35-7.2L536.45,0l13.36,7.27Z"/><path class="cls-1" d="M20.16,304,6.81,296.77l6.76-11.83,13.35,7.21Z"/><path class="cls-1" d="M0,411.8,23.72,400l10,4.08L9.93,415.81Z"/><path class="cls-1" d="M69.57,86.26l19.5-13,13.61,1.23-19.5,13Z"/><path class="cls-1" d="M442.62,304l18.62,16.38-1.4,10.27-18.71-16.39Z"/></g></g></svg>