<svg width="687" height="586" viewBox="0 0 687 586" fill="none" xmlns="http://www.w3.org/2000/svg">
<path d="M428.686 559.123L452.995 576.119L450.135 586L425.826 569.004L428.686 559.123Z" fill="white"/>
<path d="M480.88 478.333L468.623 496.515L458 496.831L470.359 478.649L480.88 478.333Z" fill="white"/>
<path d="M228.183 503.709L250.654 522.207L242.687 534.855L220.216 516.357L228.183 503.709Z" fill="white"/>
<path d="M38.7114 519.281L61.1825 537.779L53.2155 550.427L30.7444 531.929L38.7114 519.281Z" fill="white"/>
<path d="M480.777 122.844L465.252 114.465L473.015 100.71L488.54 109.168L480.777 122.844Z" fill="white"/>
<path d="M497.529 22.1341L482.003 13.7548L489.868 0L505.393 8.37933L497.529 22.1341Z" fill="white"/>
<path d="M597.32 214.226L613.561 192.092L627.963 181.974L611.824 204.108L597.32 214.226Z" fill="white"/>
<path d="M45.9634 264.502L59.1396 276.28L63.736 284.739L50.5598 273.039L45.9634 264.502Z" fill="white"/>
<path d="M185.488 46.4023L198.664 58.1018L203.26 66.6392L190.084 54.9398L185.488 46.4023Z" fill="white"/>
<path d="M141.465 465.764L154.641 477.463L159.238 486.001L146.062 474.301L141.465 465.764Z" fill="white"/>
<path d="M111.129 445.212L138.707 431.457L150.352 436.2L122.671 449.876L111.129 445.212Z" fill="white"/>
<path d="M617.136 60.0781L601.917 82.6075L588.843 83.0027L604.062 60.4734L617.136 60.0781Z" fill="white"/>
<path d="M234.618 306.636L244.934 330.825L236.252 338.335L225.834 314.225L234.618 306.636Z" fill="white"/>
<path d="M447.888 237.309L430.116 218.732L433.18 206.559L450.952 225.214L447.888 237.309Z" fill="white"/>
<path d="M213.679 107.588L236.354 92.4893L252.186 93.9122L229.511 109.011L213.679 107.588Z" fill="white"/>
<path d="M0 63.3993L22.6753 48.2217L38.5071 49.6446L15.8318 64.8222L0 63.3993Z" fill="white"/>
<path d="M0 213.199L22.6753 198.101L38.5071 199.523L15.8318 214.622L0 213.199Z" fill="white"/>
<path d="M477.815 349.244L502.125 366.319L499.367 376.2L474.956 359.125L477.815 349.244Z" fill="white"/>
<path d="M665.346 263.396L687 282.448L685.366 294.384L663.61 275.333L665.346 263.396Z" fill="white"/>
<path d="M561.06 473.433L571.581 491.061L565.759 497.306L555.238 479.678L561.06 473.433Z" fill="white"/>
</svg>
