<svg width="197" height="56" viewBox="0 0 197 56" fill="none" xmlns="http://www.w3.org/2000/svg">
<path d="M0 24.374C0 18.8512 4.47715 14.374 10 14.374H187C192.523 14.374 197 18.8512 197 24.374V45.5649C197 51.0878 192.523 55.5649 187 55.5649H10C4.47715 55.5649 0 51.0878 0 45.5649V24.374Z" fill="#EDEDED"/>
<path d="M180.882 19.804C181.513 9.13713 187.944 4.20919 191.461 0.999661C174.539 4.03912 168.383 12.0179 163.868 19.8039L180.882 19.804Z" fill="#EDEDED" stroke="#EDEDED"/>
<path d="M44.1279 36.4243C43.6159 36.2643 43.1039 36.0456 42.5919 35.7683C42.0799 35.4803 41.5999 35.1603 41.1519 34.8083C40.7039 34.4563 40.3039 34.0829 39.9519 33.6883C39.6106 33.2936 39.3492 32.9043 39.1679 32.5203C38.7199 33.3843 38.0906 34.1523 37.2799 34.8243C36.4692 35.4856 35.4666 36.0243 34.2719 36.4403L33.0079 35.0803C33.7439 34.8669 34.4266 34.5843 35.0559 34.2323C35.6959 33.8696 36.2452 33.4589 36.7039 33.0003C37.1839 32.5203 37.5519 32.0083 37.8079 31.4643C38.0746 30.9096 38.2079 30.3229 38.2079 29.7043V28.3763H40.1599V29.7043C40.1492 30.3229 40.2879 30.9203 40.5759 31.4963C40.8746 32.0616 41.2639 32.5843 41.7439 33.0643C42.2239 33.5443 42.7732 33.9656 43.3919 34.3283C44.0106 34.6803 44.6452 34.9416 45.2959 35.1123L44.1279 36.4243ZM45.8079 40.4563H32.5759V38.9203H45.8079V40.4563ZM59.601 40.4243H46.369V38.8883H54.769C54.961 38.2056 55.137 37.5176 55.297 36.8243C55.4677 36.1203 55.617 35.4163 55.745 34.7123C55.041 34.8616 54.2463 34.9629 53.361 35.0163C52.4863 35.0589 51.5957 35.0803 50.689 35.0803H47.681V33.5443H51.649C52.4597 33.5443 53.201 33.5336 53.873 33.5123C54.5557 33.4803 55.2544 33.4163 55.969 33.3203C56.097 32.3603 56.161 31.3789 56.161 30.3763H47.857V28.8563H57.601C57.8997 28.8563 58.049 29.0056 58.049 29.3043C58.049 29.9229 58.0064 30.6323 57.921 31.4323C57.8464 32.2216 57.745 33.0483 57.617 33.9123C57.489 34.7763 57.3343 35.6349 57.153 36.4883C56.9717 37.3416 56.7797 38.1416 56.577 38.8883H59.601V40.4243ZM73.3781 35.8323H60.1781V34.5363H65.7301V33.5763H62.2741C62.1035 33.5763 61.9861 33.5443 61.9221 33.4803C61.8581 33.4163 61.8261 33.2989 61.8261 33.1283V30.6963C61.8261 30.5363 61.8581 30.4243 61.9221 30.3603C61.9861 30.2856 62.1035 30.2483 62.2741 30.2483H69.7141V29.4003H61.8261V28.1523H71.2181C71.5168 28.1523 71.6661 28.3016 71.6661 28.6003V30.9843C71.6661 31.1549 71.6288 31.2723 71.5541 31.3363C71.4901 31.4003 71.3781 31.4323 71.2181 31.4323H63.7781V32.3283H71.9221V33.5763H67.6821V34.5363H73.3781V35.8323ZM72.0501 42.1203H62.2901C62.1195 42.1203 62.0021 42.0883 61.9381 42.0243C61.8741 41.9603 61.8421 41.8429 61.8421 41.6723V39.2243C61.8421 39.0643 61.8741 38.9523 61.9381 38.8883C62.0021 38.8136 62.1195 38.7763 62.2901 38.7763H69.7621V37.8963H61.8421V36.6483H71.2501C71.5488 36.6483 71.6981 36.7976 71.6981 37.0963V39.4963C71.6981 39.6669 71.6608 39.7843 71.5861 39.8483C71.5221 39.9123 71.4101 39.9443 71.2501 39.9443H63.7941V40.8723H72.0501V42.1203ZM75.3153 30.2803C75.3153 29.5656 75.7793 28.9736 76.7073 28.5043C77.7099 28.0349 78.9953 27.8003 80.5633 27.8003C82.1313 27.8003 83.4113 28.0349 84.4033 28.5043C85.3419 28.9629 85.8113 29.5549 85.8113 30.2803C85.8113 30.6536 85.6886 30.9949 85.4433 31.3043C85.0913 31.7523 84.4939 32.1043 83.6513 32.3603C82.8193 32.6163 81.7899 32.7443 80.5633 32.7443C79.7419 32.7443 79.0059 32.6856 78.3553 32.5683C77.7046 32.4509 77.1553 32.2856 76.7073 32.0723C76.2593 31.8589 75.9126 31.6029 75.6673 31.3043C75.4326 30.9949 75.3153 30.6536 75.3153 30.2803ZM83.6033 30.7763C83.7633 30.6376 83.8433 30.4723 83.8433 30.2803C83.8433 30.0883 83.7633 29.9176 83.6033 29.7683C83.4433 29.6189 83.2193 29.4963 82.9313 29.4003C82.6433 29.2936 82.2966 29.2136 81.8913 29.1603C81.4859 29.1069 81.0433 29.0803 80.5633 29.0803C79.5713 29.0803 78.7766 29.1869 78.1793 29.4003C77.5819 29.6029 77.2833 29.8963 77.2833 30.2803C77.2833 30.4616 77.3633 30.6269 77.5233 30.7763C77.6833 30.9149 77.9073 31.0376 78.1953 31.1443C78.4833 31.2403 78.8299 31.3203 79.2353 31.3843C79.6406 31.4376 80.0833 31.4643 80.5633 31.4643C81.2993 31.4643 81.9286 31.4056 82.4513 31.2883C82.9846 31.1603 83.3686 30.9896 83.6033 30.7763ZM87.1713 34.9843H73.9713V33.5443H87.1713V34.9843ZM85.8273 42.1203H76.0513C75.8806 42.1203 75.7633 42.0883 75.6993 42.0243C75.6353 41.9603 75.6033 41.8429 75.6033 41.6723V38.8563C75.6033 38.6963 75.6353 38.5843 75.6993 38.5203C75.7633 38.4456 75.8806 38.4083 76.0513 38.4083H83.4753V37.3363H75.6033V35.9763H85.0753C85.3739 35.9763 85.5233 36.1256 85.5233 36.4243V39.1923C85.5233 39.3629 85.4859 39.4803 85.4113 39.5443C85.3473 39.6083 85.2353 39.6403 85.0753 39.6403H77.6513V40.7763H85.8273V42.1203ZM99.141 38.3123C99.0024 38.3443 98.805 38.3816 98.549 38.4243C98.293 38.4669 98.005 38.5096 97.685 38.5523C97.3757 38.5843 97.0557 38.6163 96.725 38.6483C96.3944 38.6696 96.0904 38.6803 95.813 38.6803C95.717 38.6909 95.5624 38.7016 95.349 38.7123C95.1357 38.7123 94.917 38.7123 94.693 38.7123C94.469 38.7229 94.2717 38.7283 94.101 38.7283C93.9304 38.7283 93.8397 38.7229 93.829 38.7123C93.6584 38.7123 93.541 38.6803 93.477 38.6163C93.4237 38.5523 93.397 38.4349 93.397 38.2643V28.5523H95.221V37.0963L96.453 37.0643C96.6024 37.0643 96.7944 37.0536 97.029 37.0323C97.2744 37.0109 97.525 36.9896 97.781 36.9683C98.037 36.9363 98.2877 36.9043 98.533 36.8723C98.7784 36.8296 98.981 36.7923 99.141 36.7603V38.3123ZM104.549 42.2163H102.805V34.4563H101.397V41.5283H99.653V28.1363H101.397V32.6963H102.805V27.8803H104.549V42.2163ZM115.158 38.4563C114.913 38.4989 114.598 38.5469 114.214 38.6003C113.841 38.6429 113.43 38.6856 112.982 38.7283C112.534 38.7709 112.07 38.8136 111.59 38.8563C111.11 38.8883 110.646 38.9043 110.198 38.9043C110.07 38.9043 109.873 38.9096 109.606 38.9203C109.339 38.9203 109.067 38.9203 108.79 38.9203H107.686C107.515 38.9203 107.398 38.8883 107.334 38.8243C107.27 38.7603 107.238 38.6429 107.238 38.4723V33.4163C107.238 33.2563 107.27 33.1443 107.334 33.0803C107.398 33.0056 107.515 32.9683 107.686 32.9683H111.702V30.1203H107.238V28.5843H113.03C113.329 28.5843 113.478 28.7336 113.478 29.0323V34.0243C113.478 34.1949 113.441 34.3123 113.366 34.3763C113.302 34.4403 113.19 34.4723 113.03 34.4723H109.062V37.3843L110.63 37.3683C110.982 37.3683 111.366 37.3523 111.782 37.3203C112.209 37.2883 112.63 37.2509 113.046 37.2083C113.462 37.1656 113.851 37.1229 114.214 37.0803C114.587 37.0269 114.902 36.9736 115.158 36.9203V38.4563ZM118.134 42.2163H116.342V35.8003H114.102V34.2643H116.342V32.0243H114.102V30.5043H116.342V27.8963H118.134V42.2163ZM131.383 34.6163C130.935 34.5096 130.471 34.3709 129.991 34.2003C129.522 34.0296 129.063 33.8216 128.615 33.5763C128.167 33.3416 127.751 33.0696 127.367 32.7603C126.994 32.4403 126.679 32.0883 126.423 31.7043C125.975 32.3763 125.341 32.9576 124.519 33.4483C123.709 33.9389 122.706 34.3283 121.511 34.6163L120.279 33.3043C120.919 33.1656 121.522 32.9949 122.087 32.7923C122.663 32.5896 123.175 32.3496 123.623 32.0723C124.082 31.7843 124.461 31.4589 124.759 31.0963C125.069 30.7336 125.277 30.3229 125.383 29.8643H121.303V28.3443H131.527V29.8643H127.447C127.543 30.3123 127.741 30.7229 128.039 31.0963C128.349 31.4589 128.733 31.7843 129.191 32.0723C129.639 32.3603 130.146 32.6109 130.711 32.8243C131.287 33.0376 131.885 33.2083 132.503 33.3363L131.383 34.6163ZM133.031 37.4003H127.399V42.2163H125.559V37.4003H119.831V35.8803H133.031V37.4003ZM139.64 39.1123C139.096 38.6643 138.611 38.1469 138.184 37.5603C137.768 36.9629 137.459 36.3603 137.256 35.7523C137.182 36.0616 137.059 36.3869 136.888 36.7283C136.728 37.0589 136.531 37.3843 136.296 37.7043C136.062 38.0349 135.806 38.3549 135.528 38.6643C135.251 38.9629 134.968 39.2349 134.68 39.4803L133.144 38.3923C133.731 37.9763 134.227 37.5123 134.632 37.0003C135.038 36.4883 135.363 35.9336 135.608 35.3363C135.864 34.7389 136.046 34.1043 136.152 33.4323C136.27 32.7496 136.328 32.0403 136.328 31.3043V28.4563H138.232V31.4163C138.222 32.9309 138.435 34.2269 138.872 35.3043C139.31 36.3709 140.03 37.2616 141.032 37.9763L139.64 39.1123ZM146.152 42.2163H144.408V27.8963H146.152V42.2163ZM143.352 41.5443H141.592V33.7203H139.368V32.0403H141.592V28.1363H143.352V41.5443ZM156.202 28.4883C156.852 28.7016 157.386 28.9843 157.802 29.3363C158.25 29.6883 158.586 30.1096 158.81 30.6003C159.034 31.0803 159.146 31.5976 159.146 32.1523C159.146 33.3149 158.698 34.2536 157.802 34.9683C157.354 35.3203 156.815 35.5976 156.186 35.8003C155.556 35.9923 154.836 36.0883 154.026 36.0883C153.194 36.0883 152.463 35.9923 151.834 35.8003C151.215 35.5976 150.682 35.3203 150.234 34.9683C149.338 34.2643 148.89 33.3256 148.89 32.1523C148.89 31.5976 148.996 31.0803 149.21 30.6003C149.434 30.1096 149.77 29.6883 150.218 29.3363C150.666 28.9736 151.204 28.6909 151.834 28.4883C152.463 28.2856 153.194 28.1843 154.026 28.1843C154.879 28.1843 155.604 28.2856 156.202 28.4883ZM156.314 33.9443C156.922 33.5176 157.226 32.9203 157.226 32.1523C157.226 31.3949 156.922 30.7976 156.314 30.3603C155.684 29.9229 154.922 29.7043 154.026 29.7043C153.556 29.7043 153.124 29.7629 152.73 29.8803C152.346 29.9869 152.01 30.1469 151.722 30.3603C151.444 30.5629 151.226 30.8189 151.066 31.1283C150.906 31.4269 150.826 31.7683 150.826 32.1523C150.826 32.5363 150.906 32.8776 151.066 33.1763C151.226 33.4749 151.444 33.7309 151.722 33.9443C152.01 34.1469 152.346 34.3016 152.73 34.4083C153.124 34.5149 153.556 34.5683 154.026 34.5683C154.943 34.5683 155.706 34.3603 156.314 33.9443ZM160.618 40.6323H147.402V39.0963H150.458V36.2483H152.298V39.0963H155.786V36.2483H157.594V39.0963H160.618V40.6323ZM164.187 41.1283H162.027V39.0963H164.187V41.1283Z" fill="black"/>
</svg>
