<svg width="519" height="236" viewBox="0 0 519 236" fill="none" xmlns="http://www.w3.org/2000/svg">
<path d="M8.03868 207.628C8.76668 207.255 9.42468 206.816 10.0127 206.312C10.6007 205.808 11.1047 205.244 11.5247 204.618C11.954 203.993 12.2994 203.316 12.5607 202.588C12.822 201.851 12.9854 201.072 13.0507 200.25H8.76668V199.284H13.9887C14.1007 199.284 14.1754 199.308 14.2127 199.354C14.2594 199.392 14.2827 199.466 14.2827 199.578C14.236 200.568 14.0774 201.492 13.8067 202.35C13.536 203.209 13.1627 204.007 12.6867 204.744C12.2107 205.5 11.6554 206.182 11.0207 206.788C10.3954 207.395 9.70002 207.922 8.93468 208.37L8.03868 207.628ZM18.0067 210.974H16.8867L16.8867 198.57H18.0067L18.0067 210.974ZM29.8517 203.834C29.4223 203.741 28.9837 203.606 28.5357 203.428C28.097 203.251 27.6817 203.036 27.2897 202.784C26.8977 202.542 26.543 202.271 26.2257 201.972C25.9177 201.664 25.6797 201.338 25.5117 200.992C25.0637 201.748 24.4663 202.36 23.7197 202.826C22.973 203.284 22.119 203.624 21.1577 203.848L20.4437 203.022C21.769 202.752 22.7863 202.35 23.4957 201.818C24.2143 201.277 24.6717 200.628 24.8677 199.872H21.2417V198.934H29.7817V199.872H26.1557C26.249 200.302 26.4403 200.689 26.7297 201.034C27.0283 201.38 27.3783 201.683 27.7797 201.944C28.1997 202.206 28.6477 202.425 29.1237 202.602C29.5997 202.78 30.0757 202.91 30.5517 202.994L29.8517 203.834ZM31.1957 206.158H19.8277V205.22H24.9517L24.9517 203.19H26.0857L26.0857 205.22H31.1957V206.158ZM30.1177 210.722H21.6477C21.5357 210.722 21.4563 210.699 21.4097 210.652C21.3723 210.615 21.3537 210.54 21.3537 210.428V207.18H22.4457V209.77H30.1177V210.722ZM46.0932 202.952H37.9172C37.7959 202.952 37.7165 202.934 37.6792 202.896C37.6419 202.859 37.6232 202.784 37.6232 202.672V199.242C37.6232 199.13 37.6419 199.056 37.6792 199.018C37.7259 198.972 37.8052 198.948 37.9172 198.948H45.9532V199.872H38.7292V202.014H46.0932V202.952ZM47.4652 205.29H36.0972V204.366H47.4652V205.29ZM41.7812 206.424C43.2092 206.424 44.3059 206.653 45.0712 207.11C45.8459 207.558 46.2332 208.128 46.2332 208.818C46.2332 209.173 46.1352 209.495 45.9392 209.784C45.7432 210.074 45.4539 210.326 45.0712 210.54C44.6979 210.755 44.2312 210.918 43.6712 211.03C43.1205 211.152 42.4905 211.212 41.7812 211.212C41.0625 211.212 40.4279 211.152 39.8772 211.03C39.3265 210.918 38.8599 210.755 38.4772 210.54C38.1039 210.326 37.8192 210.074 37.6232 209.784C37.4272 209.495 37.3292 209.173 37.3292 208.818C37.3292 208.128 37.7119 207.558 38.4772 207.11C39.2425 206.653 40.3439 206.424 41.7812 206.424ZM41.7812 210.358C42.6585 210.358 43.4332 210.223 44.1052 209.952C44.7119 209.682 45.0152 209.299 45.0152 208.804C45.0152 208.328 44.7119 207.955 44.1052 207.684C43.4332 207.414 42.6585 207.278 41.7812 207.278C40.8012 207.278 40.0172 207.414 39.4292 207.684C38.8412 207.946 38.5472 208.319 38.5472 208.804C38.5472 209.308 38.8412 209.691 39.4292 209.952C40.0172 210.223 40.8012 210.358 41.7812 210.358ZM54.9842 205.458C54.7229 205.337 54.4429 205.183 54.1442 204.996C53.8549 204.8 53.5702 204.581 53.2902 204.338C53.0102 204.086 52.7442 203.816 52.4922 203.526C52.2495 203.228 52.0535 202.91 51.9042 202.574C51.7735 202.938 51.5962 203.279 51.3722 203.596C51.1482 203.914 50.8962 204.212 50.6162 204.492C50.3362 204.763 50.0375 205.01 49.7202 205.234C49.4122 205.458 49.1042 205.654 48.7962 205.822L47.9422 205.052C48.3995 204.838 48.8289 204.581 49.2302 204.282C49.6409 203.984 50.0002 203.638 50.3082 203.246C50.6162 202.854 50.8589 202.425 51.0362 201.958C51.2135 201.492 51.3022 200.978 51.3022 200.418V198.878H52.4642V200.32C52.4642 200.852 52.5529 201.342 52.7302 201.79C52.9075 202.238 53.1502 202.644 53.4582 203.008C53.7569 203.372 54.1022 203.69 54.4942 203.96C54.8862 204.231 55.2922 204.441 55.7122 204.59L54.9842 205.458ZM58.1342 207.67H57.0422V198.57H58.1342V202.266H59.8422V203.246H58.1342V207.67ZM58.5262 210.722H50.6582C50.5462 210.722 50.4669 210.699 50.4202 210.652C50.3829 210.615 50.3642 210.54 50.3642 210.428V206.76H51.4702V209.77H58.5262V210.722ZM70.8332 211.002H69.7412V203.904H67.3192C67.2912 204.66 67.1885 205.309 67.0112 205.85C66.8432 206.392 66.6238 206.844 66.3532 207.208C66.0732 207.572 65.7512 207.843 65.3872 208.02C65.0325 208.198 64.6545 208.286 64.2532 208.286C63.8238 208.286 63.4225 208.193 63.0492 208.006C62.6758 207.82 62.3492 207.53 62.0692 207.138C61.7892 206.746 61.5698 206.261 61.4112 205.682C61.2525 205.094 61.1732 204.39 61.1732 203.568C61.1732 202.747 61.2525 202.042 61.4112 201.454C61.5698 200.866 61.7845 200.376 62.0552 199.984C62.3352 199.592 62.6572 199.308 63.0212 199.13C63.3945 198.944 63.8052 198.85 64.2532 198.85C64.6452 198.85 65.0138 198.934 65.3592 199.102C65.7045 199.261 66.0125 199.508 66.2832 199.844C66.5632 200.18 66.7918 200.6 66.9692 201.104C67.1465 201.608 67.2585 202.21 67.3052 202.91H69.7412V198.57H70.8332V211.002ZM65.1212 206.998C65.2518 206.896 65.3685 206.774 65.4712 206.634C65.5738 206.494 65.6625 206.345 65.7372 206.186C65.8958 205.85 66.0125 205.458 66.0872 205.01C66.1712 204.553 66.2132 204.072 66.2132 203.568C66.2132 203.064 66.1712 202.593 66.0872 202.154C66.0125 201.706 65.8958 201.31 65.7372 200.964C65.5785 200.628 65.3732 200.358 65.1212 200.152C64.8785 199.947 64.5892 199.844 64.2532 199.844C63.9078 199.844 63.6092 199.947 63.3572 200.152C63.1052 200.358 62.8998 200.633 62.7412 200.978C62.5732 201.324 62.4518 201.72 62.3772 202.168C62.3025 202.616 62.2652 203.083 62.2652 203.568C62.2652 204.072 62.3025 204.553 62.3772 205.01C62.4612 205.458 62.5825 205.85 62.7412 206.186C62.9092 206.532 63.1145 206.802 63.3572 206.998C63.6092 207.194 63.9078 207.292 64.2532 207.292C64.5892 207.292 64.8785 207.194 65.1212 206.998ZM80.2562 201.958L80.2842 199.746H76.5742L76.6022 201.958H80.2562ZM83.0142 202.826H73.8302V201.958H75.5102L75.4822 199.746H74.0542V198.892H82.7482V199.746H81.3762L81.3202 201.958H83.0142V202.826ZM84.0922 204.744H72.7242V203.862H84.0922V204.744ZM82.8462 210.862H74.5582C74.4462 210.862 74.3668 210.839 74.3202 210.792C74.2828 210.755 74.2642 210.68 74.2642 210.568V208.258C74.2642 208.146 74.2828 208.072 74.3202 208.034C74.3668 207.988 74.4462 207.964 74.5582 207.964H81.3482V206.76H74.2642V205.892H82.2722C82.3842 205.892 82.4588 205.916 82.4962 205.962C82.5428 206 82.5662 206.074 82.5662 206.186V208.468C82.5662 208.58 82.5428 208.66 82.4962 208.706C82.4588 208.744 82.3842 208.762 82.2722 208.762H75.4822V210.008H82.8462V210.862ZM90.8271 207.138C90.5471 207.53 90.2205 207.824 89.8471 208.02C89.4831 208.207 89.0911 208.3 88.6711 208.3C88.2418 208.3 87.8405 208.207 87.4671 208.02C87.0938 207.834 86.7671 207.544 86.4871 207.152C86.2071 206.76 85.9878 206.275 85.8291 205.696C85.6705 205.108 85.5911 204.404 85.5911 203.582C85.5911 202.761 85.6705 202.056 85.8291 201.468C85.9878 200.88 86.2025 200.39 86.4731 199.998C86.7531 199.606 87.0751 199.322 87.4391 199.144C87.8125 198.958 88.2231 198.864 88.6711 198.864C89.0911 198.864 89.4831 198.962 89.8471 199.158C90.2205 199.345 90.5471 199.634 90.8271 200.026C91.1071 200.418 91.3265 200.904 91.4851 201.482C91.6531 202.061 91.7371 202.761 91.7371 203.582C91.7371 204.404 91.6531 205.104 91.4851 205.682C91.3265 206.261 91.1071 206.746 90.8271 207.138ZM89.5391 207.012C89.6698 206.91 89.7865 206.788 89.8891 206.648C89.9918 206.508 90.0805 206.359 90.1551 206.2C90.3138 205.864 90.4305 205.472 90.5051 205.024C90.5891 204.567 90.6311 204.086 90.6311 203.582C90.6311 203.078 90.5891 202.607 90.5051 202.168C90.4305 201.72 90.3138 201.324 90.1551 200.978C89.9965 200.642 89.7911 200.372 89.5391 200.166C89.2965 199.961 89.0071 199.858 88.6711 199.858C88.3258 199.858 88.0271 199.961 87.7751 200.166C87.5231 200.372 87.3178 200.647 87.1591 200.992C86.9911 201.338 86.8698 201.734 86.7951 202.182C86.7205 202.63 86.6831 203.097 86.6831 203.582C86.6831 204.086 86.7205 204.567 86.7951 205.024C86.8791 205.472 87.0005 205.864 87.1591 206.2C87.3271 206.546 87.5325 206.816 87.7751 207.012C88.0271 207.208 88.3258 207.306 88.6711 207.306C89.0071 207.306 89.2965 207.208 89.5391 207.012ZM95.2651 211.002H94.1591V198.57H95.2651V211.002ZM108.539 208.174C108.212 207.96 107.895 207.717 107.587 207.446C107.279 207.176 106.975 206.877 106.677 206.55C106.089 205.906 105.65 205.155 105.361 204.296C105.23 204.716 105.048 205.132 104.815 205.542C104.581 205.944 104.315 206.331 104.017 206.704C103.727 207.068 103.415 207.404 103.079 207.712C102.752 208.02 102.435 208.286 102.127 208.51L101.217 207.74C102.337 207.04 103.209 206.154 103.835 205.08C104.469 204.007 104.787 202.742 104.787 201.286V200.222H102.113V199.284H108.637V200.222H105.935V201.468C105.935 202.822 106.21 203.979 106.761 204.94C107.311 205.892 108.17 206.704 109.337 207.376L108.539 208.174ZM111.801 211.002H110.695V198.598H111.801V211.002ZM121.938 204.562C121.714 204.618 121.415 204.679 121.042 204.744C120.678 204.81 120.258 204.866 119.782 204.912C119.306 204.959 118.806 205.001 118.284 205.038C117.761 205.066 117.234 205.08 116.702 205.08H114.63C114.518 205.08 114.438 205.062 114.392 205.024C114.354 204.978 114.336 204.898 114.336 204.786V198.92H115.442V204.086H116.898C117.355 204.086 117.836 204.072 118.34 204.044C118.844 204.016 119.334 203.979 119.81 203.932C120.286 203.886 120.71 203.839 121.084 203.792C121.457 203.736 121.742 203.68 121.938 203.624V204.562ZM123.632 207.698H122.554V198.57H123.632V207.698ZM123.94 210.722H115.946C115.834 210.722 115.754 210.699 115.708 210.652C115.67 210.615 115.652 210.54 115.652 210.428V206.634H116.786V209.77H123.94V210.722ZM138.487 202.378V199.858H132.229V202.378H138.487ZM141.049 205.794H136.121V208.636H135.043V205.794H129.681V204.856H141.049V205.794ZM139.537 203.022C139.537 203.134 139.514 203.214 139.467 203.26C139.43 203.298 139.355 203.316 139.243 203.316H131.473C131.361 203.316 131.282 203.298 131.235 203.26C131.198 203.214 131.179 203.134 131.179 203.022V199.228C131.179 199.116 131.198 199.042 131.235 199.004C131.282 198.958 131.361 198.934 131.473 198.934H139.243C139.355 198.934 139.43 198.958 139.467 199.004C139.514 199.042 139.537 199.116 139.537 199.228V203.022ZM139.971 210.722H131.501C131.389 210.722 131.31 210.699 131.263 210.652C131.226 210.615 131.207 210.54 131.207 210.428V207.04H132.271V209.77H139.971V210.722ZM147.686 208.09C147.453 207.941 147.224 207.759 147 207.544C146.776 207.33 146.548 207.078 146.314 206.788C145.866 206.228 145.526 205.566 145.292 204.8C145.19 205.164 145.05 205.528 144.872 205.892C144.695 206.256 144.494 206.602 144.27 206.928C144.037 207.255 143.785 207.563 143.514 207.852C143.244 208.132 142.973 208.37 142.702 208.566L141.736 207.866C142.772 207.166 143.533 206.289 144.018 205.234C144.513 204.18 144.76 202.906 144.76 201.412V200.334H142.688V199.396H147.91V200.334H145.894V201.384C145.894 202.084 145.936 202.733 146.02 203.33C146.114 203.928 146.258 204.478 146.454 204.982C146.66 205.477 146.93 205.92 147.266 206.312C147.602 206.704 148.018 207.045 148.512 207.334L147.686 208.09ZM152.726 210.974H151.676V198.57H152.726V210.974ZM150.304 210.386H149.212V203.582H147.154V202.532H149.212V198.78H150.304V210.386ZM161.267 205.178C161.024 205.076 160.754 204.945 160.455 204.786C160.166 204.618 159.876 204.422 159.587 204.198C159.298 203.974 159.022 203.722 158.761 203.442C158.5 203.162 158.285 202.85 158.117 202.504C157.846 203.232 157.417 203.834 156.829 204.31C156.53 204.553 156.222 204.782 155.905 204.996C155.597 205.202 155.275 205.384 154.939 205.542L154.085 204.814C154.533 204.637 154.967 204.418 155.387 204.156C155.807 203.886 156.176 203.568 156.493 203.204C156.81 202.84 157.062 202.43 157.249 201.972C157.445 201.515 157.543 201.006 157.543 200.446V200.096H155.037V199.144H161.099V200.096H158.691V200.474C158.691 200.988 158.78 201.454 158.957 201.874C159.144 202.285 159.391 202.654 159.699 202.98C160.007 203.307 160.357 203.587 160.749 203.82C161.141 204.054 161.547 204.236 161.967 204.366L161.267 205.178ZM164.641 205.738H163.535V202.266H160.959V201.314H163.535V198.57H164.641V205.738ZM163.535 209.924V207.292H157.725V209.924H163.535ZM164.641 210.54C164.641 210.652 164.618 210.727 164.571 210.764C164.534 210.811 164.459 210.834 164.347 210.834H156.913C156.801 210.834 156.722 210.811 156.675 210.764C156.638 210.727 156.619 210.652 156.619 210.54V206.676C156.619 206.564 156.638 206.49 156.675 206.452C156.722 206.406 156.801 206.382 156.913 206.382H164.347C164.459 206.382 164.534 206.406 164.571 206.452C164.618 206.49 164.641 206.564 164.641 206.676V210.54ZM176.36 200.67C176.36 201.324 176.005 201.842 175.296 202.224C174.587 202.607 173.49 202.798 172.006 202.798C170.531 202.798 169.435 202.607 168.716 202.224C167.997 201.842 167.638 201.324 167.638 200.67C167.638 200.017 167.997 199.49 168.716 199.088C169.444 198.687 170.541 198.486 172.006 198.486C173.471 198.486 174.563 198.692 175.282 199.102C176.001 199.504 176.36 200.026 176.36 200.67ZM174.302 201.664C174.881 201.45 175.17 201.118 175.17 200.67C175.17 200.446 175.091 200.25 174.932 200.082C174.783 199.914 174.568 199.774 174.288 199.662C174.017 199.541 173.686 199.452 173.294 199.396C172.911 199.34 172.482 199.312 172.006 199.312C171.53 199.312 171.096 199.34 170.704 199.396C170.312 199.452 169.976 199.536 169.696 199.648C169.416 199.76 169.201 199.905 169.052 200.082C168.903 200.25 168.828 200.446 168.828 200.67C168.828 201.118 169.108 201.45 169.668 201.664C170.237 201.87 171.017 201.972 172.006 201.972C173.014 201.972 173.779 201.87 174.302 201.664ZM177.676 204.646H166.308V203.75H177.676V204.646ZM176.43 210.862H168.128C168.016 210.862 167.937 210.839 167.89 210.792C167.853 210.755 167.834 210.68 167.834 210.568V208.16C167.834 208.048 167.853 207.974 167.89 207.936C167.937 207.89 168.016 207.866 168.128 207.866H174.932V206.606H167.834V205.738H175.856C175.968 205.738 176.043 205.762 176.08 205.808C176.127 205.846 176.15 205.92 176.15 206.032V208.37C176.15 208.482 176.127 208.562 176.08 208.608C176.043 208.646 175.968 208.664 175.856 208.664H169.052V210.008H176.43V210.862ZM190.67 207.446C190.334 207.502 189.97 207.549 189.578 207.586C189.195 207.624 188.794 207.652 188.374 207.67C187.954 207.698 187.538 207.717 187.128 207.726C186.726 207.736 186.339 207.74 185.966 207.74H182.76V206.76H184.244L184.188 200.278H183.054V199.298H189.858V200.278H188.668L188.64 206.69C189.032 206.672 189.391 206.648 189.718 206.62C190.054 206.583 190.371 206.541 190.67 206.494V207.446ZM185.644 206.76C185.97 206.76 186.292 206.76 186.61 206.76C186.927 206.751 187.235 206.742 187.534 206.732L187.59 200.278H185.294L185.336 206.76H185.644ZM192.406 210.988H191.286V198.57H192.406V202.63H194.24V203.652H192.406V210.988ZM200.737 204.198C200.447 204.478 200.102 204.702 199.701 204.87C199.309 205.029 198.875 205.108 198.399 205.108C197.923 205.108 197.484 205.029 197.083 204.87C196.681 204.702 196.336 204.478 196.047 204.198C195.748 203.909 195.519 203.573 195.361 203.19C195.202 202.798 195.123 202.378 195.123 201.93C195.123 201.501 195.202 201.095 195.361 200.712C195.519 200.33 195.748 199.994 196.047 199.704C196.336 199.424 196.681 199.2 197.083 199.032C197.484 198.864 197.923 198.78 198.399 198.78C198.875 198.78 199.309 198.864 199.701 199.032C200.102 199.2 200.447 199.424 200.737 199.704C201.026 199.994 201.25 200.33 201.409 200.712C201.577 201.095 201.661 201.501 201.661 201.93C201.661 202.378 201.577 202.798 201.409 203.19C201.25 203.573 201.026 203.909 200.737 204.198ZM198.413 204.114C199.085 204.114 199.603 203.904 199.967 203.484C200.331 203.064 200.513 202.551 200.513 201.944C200.513 201.636 200.466 201.352 200.373 201.09C200.279 200.82 200.144 200.591 199.967 200.404C199.789 200.208 199.57 200.054 199.309 199.942C199.047 199.83 198.749 199.774 198.413 199.774C198.077 199.774 197.773 199.83 197.503 199.942C197.241 200.054 197.017 200.208 196.831 200.404C196.653 200.591 196.518 200.82 196.425 201.09C196.331 201.352 196.285 201.636 196.285 201.944C196.285 202.551 196.467 203.064 196.831 203.484C197.204 203.904 197.731 204.114 198.413 204.114ZM204.699 205.836H203.607V198.57H204.699V201.454H206.407V202.434H204.699V205.836ZM204.713 211.058H203.607V207.502H196.593V206.522H204.419C204.531 206.522 204.605 206.546 204.643 206.592C204.689 206.63 204.713 206.704 204.713 206.816V211.058ZM214.458 201.762H207.402V200.81H214.458V201.762ZM212.764 199.718L209.124 199.732V198.794H212.764V199.718ZM213.786 206.942C213.627 207.297 213.412 207.61 213.142 207.88C212.871 208.142 212.549 208.347 212.176 208.496C211.802 208.646 211.392 208.72 210.944 208.72C210.496 208.72 210.08 208.646 209.698 208.496C209.324 208.347 209.002 208.142 208.732 207.88C208.461 207.61 208.246 207.297 208.088 206.942C207.938 206.578 207.864 206.172 207.864 205.724C207.864 205.276 207.938 204.875 208.088 204.52C208.237 204.156 208.447 203.844 208.718 203.582C208.988 203.321 209.31 203.12 209.684 202.98C210.066 202.831 210.486 202.756 210.944 202.756C211.401 202.756 211.816 202.831 212.19 202.98C212.572 203.12 212.899 203.321 213.17 203.582C213.44 203.844 213.65 204.156 213.8 204.52C213.949 204.875 214.024 205.276 214.024 205.724C214.024 206.116 213.944 206.522 213.786 206.942ZM210.944 207.754C211.56 207.754 212.036 207.563 212.372 207.18C212.717 206.798 212.89 206.312 212.89 205.724C212.89 205.127 212.717 204.642 212.372 204.268C212.036 203.895 211.56 203.708 210.944 203.708C210.328 203.708 209.847 203.895 209.502 204.268C209.166 204.642 208.998 205.127 208.998 205.724C208.998 206.312 209.166 206.798 209.502 207.18C209.847 207.563 210.328 207.754 210.944 207.754ZM216.95 210.988H215.858V198.57H216.95V203.61H218.798V204.632H216.95V210.988ZM227.227 206.592C227.423 205.584 227.591 204.52 227.731 203.4C227.805 202.831 227.866 202.29 227.913 201.776C227.959 201.254 227.992 200.74 228.011 200.236H220.535V199.298H228.879C228.991 199.298 229.065 199.322 229.103 199.368C229.149 199.406 229.173 199.48 229.173 199.592C229.135 200.152 229.089 200.726 229.033 201.314C228.986 201.902 228.925 202.504 228.851 203.12C228.776 203.718 228.692 204.315 228.599 204.912C228.515 205.5 228.426 206.06 228.333 206.592H227.227ZM230.601 209.42H219.191V208.454H223.475V203.694H224.581V208.454H230.601V209.42ZM239.758 201.566C239.758 202.21 239.823 202.812 239.954 203.372C240.085 203.923 240.285 204.427 240.556 204.884C241.153 205.92 242.021 206.77 243.16 207.432C243.085 207.488 243.006 207.554 242.922 207.628C242.847 207.703 242.773 207.773 242.698 207.838C242.623 207.913 242.553 207.988 242.488 208.062C242.423 208.128 242.367 208.184 242.32 208.23C242.031 208.034 241.737 207.81 241.438 207.558C241.149 207.297 240.869 207.012 240.598 206.704C240.309 206.368 240.043 206.004 239.8 205.612C239.557 205.22 239.352 204.796 239.184 204.338C239.072 204.758 238.904 205.169 238.68 205.57C238.456 205.962 238.204 206.34 237.924 206.704C237.635 207.096 237.327 207.451 237 207.768C236.673 208.076 236.356 208.333 236.048 208.538C235.936 208.436 235.787 208.314 235.6 208.174C235.413 208.025 235.241 207.899 235.082 207.796C236.211 207.096 237.093 206.186 237.728 205.066C238.017 204.534 238.237 203.96 238.386 203.344C238.535 202.728 238.61 202.07 238.61 201.37V199.046H239.758V201.566ZM245.302 210.988H244.196V198.57H245.302V203.33H247.136V204.324H245.302V210.988ZM257.525 209.84C257.254 210.26 256.778 210.596 256.097 210.848C255.416 211.1 254.51 211.226 253.381 211.226C252.634 211.226 251.981 211.166 251.421 211.044C250.87 210.932 250.408 210.774 250.035 210.568C249.662 210.363 249.382 210.12 249.195 209.84C249.018 209.56 248.929 209.252 248.929 208.916C248.929 208.244 249.298 207.694 250.035 207.264C250.782 206.835 251.897 206.62 253.381 206.62C254.118 206.62 254.762 206.681 255.313 206.802C255.873 206.914 256.335 207.073 256.699 207.278C257.072 207.484 257.348 207.726 257.525 208.006C257.712 208.286 257.805 208.594 257.805 208.93C257.805 209.238 257.712 209.542 257.525 209.84ZM255.705 209.98C256.284 209.728 256.573 209.378 256.573 208.93C256.573 208.454 256.288 208.09 255.719 207.838C255.15 207.577 254.37 207.446 253.381 207.446C252.336 207.446 251.533 207.577 250.973 207.838C250.422 208.1 250.147 208.459 250.147 208.916C250.147 209.374 250.422 209.728 250.973 209.98C251.533 210.242 252.336 210.372 253.381 210.372C254.408 210.372 255.182 210.242 255.705 209.98ZM254.893 204.674V203.106C254.66 203.162 254.412 203.2 254.151 203.218C253.89 203.237 253.628 203.246 253.367 203.246C253.106 203.246 252.844 203.237 252.583 203.218C252.331 203.2 252.102 203.167 251.897 203.12V204.674H254.893ZM255.649 201.958C256.246 201.678 256.545 201.314 256.545 200.866C256.545 200.418 256.26 200.05 255.691 199.76C255.122 199.471 254.347 199.326 253.367 199.326C252.35 199.326 251.566 199.466 251.015 199.746C250.474 200.026 250.203 200.39 250.203 200.838C250.203 201.268 250.492 201.632 251.071 201.93C251.64 202.22 252.406 202.364 253.367 202.364C254.216 202.364 254.977 202.229 255.649 201.958ZM259.051 205.626H247.683V204.674H250.805V202.854C250.208 202.63 249.76 202.346 249.461 202C249.172 201.655 249.027 201.272 249.027 200.852C249.027 200.208 249.391 199.653 250.119 199.186C250.866 198.72 251.948 198.486 253.367 198.486C254.842 198.486 255.938 198.724 256.657 199.2C257.376 199.667 257.735 200.227 257.735 200.88C257.735 201.282 257.586 201.655 257.287 202C256.998 202.346 256.559 202.63 255.971 202.854V204.674H259.051V205.626ZM267.074 200.222H264.344V201.426C264.344 202.696 264.619 203.816 265.17 204.786C265.739 205.832 266.603 206.686 267.76 207.348C267.639 207.451 267.499 207.582 267.34 207.74C267.181 207.899 267.055 208.03 266.962 208.132C266.645 207.936 266.337 207.712 266.038 207.46C265.739 207.208 265.464 206.928 265.212 206.62C264.605 205.93 264.129 205.141 263.784 204.254C263.663 204.674 263.49 205.085 263.266 205.486C263.051 205.878 262.804 206.256 262.524 206.62C262.244 207.012 261.941 207.367 261.614 207.684C261.287 207.992 260.97 208.254 260.662 208.468C260.531 208.356 260.373 208.23 260.186 208.09C260.009 207.95 259.836 207.824 259.668 207.712C260.237 207.367 260.741 206.975 261.18 206.536C261.619 206.098 261.987 205.598 262.286 205.038C262.585 204.506 262.813 203.923 262.972 203.288C263.131 202.654 263.21 201.972 263.21 201.244V200.222L260.564 200.222V199.284L267.074 199.284V200.222ZM269.748 210.988H268.656V198.57H269.748V203.33H271.596V204.324H269.748V210.988ZM279.717 202.084C279.717 202.467 279.638 202.873 279.479 203.302C279.32 203.685 279.106 204.012 278.835 204.282C278.546 204.562 278.2 204.786 277.799 204.954C277.407 205.113 276.968 205.192 276.483 205.192C275.97 205.192 275.512 205.113 275.111 204.954C274.71 204.786 274.369 204.562 274.089 204.282C273.809 204.002 273.594 203.676 273.445 203.302C273.305 202.92 273.235 202.514 273.235 202.084C273.235 201.664 273.305 201.268 273.445 200.894C273.594 200.521 273.809 200.194 274.089 199.914C274.369 199.634 274.71 199.41 275.111 199.242C275.512 199.074 275.97 198.99 276.483 198.99C276.987 198.99 277.44 199.074 277.841 199.242C278.242 199.41 278.583 199.634 278.863 199.914C279.134 200.194 279.344 200.521 279.493 200.894C279.642 201.268 279.717 201.664 279.717 202.084ZM276.483 204.254C277.202 204.254 277.738 204.044 278.093 203.624C278.438 203.195 278.611 202.682 278.611 202.084C278.611 201.506 278.434 200.997 278.079 200.558C277.734 200.129 277.202 199.914 276.483 199.914C275.783 199.914 275.246 200.129 274.873 200.558C274.509 200.997 274.327 201.506 274.327 202.084C274.327 202.672 274.504 203.186 274.859 203.624C275.204 204.044 275.746 204.254 276.483 204.254ZM281.033 207.754C280.1 207.894 279.05 208.006 277.883 208.09C276.716 208.165 275.419 208.202 273.991 208.202H272.591V207.236H273.991L276.343 207.208C276.576 207.208 276.88 207.199 277.253 207.18C277.636 207.152 278.051 207.12 278.499 207.082C278.947 207.045 279.39 207.003 279.829 206.956C280.268 206.91 280.669 206.858 281.033 206.802V207.754ZM282.615 210.974H281.523V198.57H282.615V210.974ZM298.605 210.988H297.513V198.57H298.605V210.988ZM296.855 207.236C296.659 207.283 296.402 207.334 296.085 207.39C295.777 207.437 295.436 207.484 295.063 207.53C294.689 207.577 294.302 207.619 293.901 207.656C293.499 207.694 293.126 207.717 292.781 207.726L289.771 207.768C289.659 207.768 289.579 207.75 289.533 207.712C289.495 207.666 289.477 207.586 289.477 207.474V199.088H290.597V206.76L292.865 206.732C293.163 206.723 293.499 206.704 293.873 206.676C294.246 206.639 294.615 206.597 294.979 206.55C295.352 206.504 295.702 206.457 296.029 206.41C296.365 206.354 296.64 206.298 296.855 206.242V207.236ZM310.674 205.836C310.282 205.724 309.871 205.561 309.442 205.346C309.012 205.122 308.588 204.861 308.168 204.562C307.748 204.273 307.37 203.946 307.034 203.582C306.698 203.218 306.441 202.826 306.264 202.406C306.086 202.826 305.844 203.204 305.536 203.54C305.237 203.876 304.892 204.189 304.5 204.478C304.108 204.758 303.688 205.015 303.24 205.248C302.792 205.472 302.33 205.673 301.854 205.85L301.014 204.982C301.63 204.805 302.218 204.586 302.778 204.324C303.338 204.054 303.828 203.741 304.248 203.386C304.668 203.022 305.004 202.616 305.256 202.168C305.508 201.711 305.634 201.188 305.634 200.6V200.194H301.966V199.242H310.562V200.194H306.88V200.6C306.88 201.17 307.015 201.692 307.286 202.168C307.566 202.644 307.93 203.069 308.378 203.442C308.826 203.806 309.316 204.119 309.848 204.38C310.389 204.642 310.926 204.838 311.458 204.968L310.674 205.836ZM311.962 209.28H300.566V208.328H311.962V209.28ZM324.157 205.192H312.817V204.366H324.157V205.192ZM322.827 203.33H314.623C314.511 203.33 314.431 203.312 314.385 203.274C314.347 203.228 314.329 203.148 314.329 203.036V200.992C314.329 200.88 314.347 200.806 314.385 200.768C314.431 200.722 314.511 200.698 314.623 200.698H321.399V199.648H314.329V198.836H322.267C322.379 198.836 322.453 198.86 322.491 198.906C322.537 198.944 322.561 199.018 322.561 199.13V201.174C322.561 201.286 322.537 201.366 322.491 201.412C322.453 201.45 322.379 201.468 322.267 201.468H315.477V202.532H322.827V203.33ZM322.925 210.862H314.623C314.511 210.862 314.431 210.839 314.385 210.792C314.347 210.755 314.329 210.68 314.329 210.568V208.454C314.329 208.342 314.347 208.268 314.385 208.23C314.431 208.184 314.511 208.16 314.623 208.16H321.469V207.054H314.329V206.256H322.337C322.449 206.256 322.523 206.28 322.561 206.326C322.607 206.364 322.631 206.438 322.631 206.55V208.65C322.631 208.762 322.607 208.842 322.561 208.888C322.523 208.926 322.449 208.944 322.337 208.944H315.505V210.05H322.925V210.862ZM337.15 207.446C336.814 207.502 336.45 207.549 336.058 207.586C335.675 207.624 335.274 207.652 334.854 207.67C334.434 207.698 334.019 207.717 333.608 207.726C333.207 207.736 332.819 207.74 332.446 207.74H329.24V206.76H330.724L330.668 200.278H329.534V199.298H336.338V200.278H335.148L335.12 206.69C335.512 206.672 335.871 206.648 336.198 206.62C336.534 206.583 336.851 206.541 337.15 206.494V207.446ZM332.124 206.76C332.451 206.76 332.773 206.76 333.09 206.76C333.407 206.751 333.715 206.742 334.014 206.732L334.07 200.278H331.774L331.816 206.76H332.124ZM338.886 210.988H337.766V198.57H338.886V202.63H340.72V203.652H338.886V210.988ZM347.217 204.198C346.928 204.478 346.582 204.702 346.181 204.87C345.789 205.029 345.355 205.108 344.879 205.108C344.403 205.108 343.964 205.029 343.563 204.87C343.162 204.702 342.816 204.478 342.527 204.198C342.228 203.909 342 203.573 341.841 203.19C341.682 202.798 341.603 202.378 341.603 201.93C341.603 201.501 341.682 201.095 341.841 200.712C342 200.33 342.228 199.994 342.527 199.704C342.816 199.424 343.162 199.2 343.563 199.032C343.964 198.864 344.403 198.78 344.879 198.78C345.355 198.78 345.789 198.864 346.181 199.032C346.582 199.2 346.928 199.424 347.217 199.704C347.506 199.994 347.73 200.33 347.889 200.712C348.057 201.095 348.141 201.501 348.141 201.93C348.141 202.378 348.057 202.798 347.889 203.19C347.73 203.573 347.506 203.909 347.217 204.198ZM344.893 204.114C345.565 204.114 346.083 203.904 346.447 203.484C346.811 203.064 346.993 202.551 346.993 201.944C346.993 201.636 346.946 201.352 346.853 201.09C346.76 200.82 346.624 200.591 346.447 200.404C346.27 200.208 346.05 200.054 345.789 199.942C345.528 199.83 345.229 199.774 344.893 199.774C344.557 199.774 344.254 199.83 343.983 199.942C343.722 200.054 343.498 200.208 343.311 200.404C343.134 200.591 342.998 200.82 342.905 201.09C342.812 201.352 342.765 201.636 342.765 201.944C342.765 202.551 342.947 203.064 343.311 203.484C343.684 203.904 344.212 204.114 344.893 204.114ZM351.179 205.836H350.087V198.57H351.179V201.454H352.887V202.434H351.179V205.836ZM351.193 211.058H350.087V207.502H343.073V206.522H350.899C351.011 206.522 351.086 206.546 351.123 206.592C351.17 206.63 351.193 206.704 351.193 206.816V211.058ZM360.938 201.762H353.882V200.81H360.938V201.762ZM359.244 199.718L355.604 199.732V198.794H359.244V199.718ZM360.266 206.942C360.107 207.297 359.893 207.61 359.622 207.88C359.351 208.142 359.029 208.347 358.656 208.496C358.283 208.646 357.872 208.72 357.424 208.72C356.976 208.72 356.561 208.646 356.178 208.496C355.805 208.347 355.483 208.142 355.212 207.88C354.941 207.61 354.727 207.297 354.568 206.942C354.419 206.578 354.344 206.172 354.344 205.724C354.344 205.276 354.419 204.875 354.568 204.52C354.717 204.156 354.927 203.844 355.198 203.582C355.469 203.321 355.791 203.12 356.164 202.98C356.547 202.831 356.967 202.756 357.424 202.756C357.881 202.756 358.297 202.831 358.67 202.98C359.053 203.12 359.379 203.321 359.65 203.582C359.921 203.844 360.131 204.156 360.28 204.52C360.429 204.875 360.504 205.276 360.504 205.724C360.504 206.116 360.425 206.522 360.266 206.942ZM357.424 207.754C358.04 207.754 358.516 207.563 358.852 207.18C359.197 206.798 359.37 206.312 359.37 205.724C359.37 205.127 359.197 204.642 358.852 204.268C358.516 203.895 358.04 203.708 357.424 203.708C356.808 203.708 356.327 203.895 355.982 204.268C355.646 204.642 355.478 205.127 355.478 205.724C355.478 206.312 355.646 206.798 355.982 207.18C356.327 207.563 356.808 207.754 357.424 207.754ZM363.43 210.988H362.338V198.57H363.43V203.61H365.278V204.632H363.43V210.988ZM366.105 207.628C366.833 207.255 367.491 206.816 368.079 206.312C368.667 205.808 369.171 205.244 369.591 204.618C370.02 203.993 370.366 203.316 370.627 202.588C370.888 201.851 371.052 201.072 371.117 200.25H366.833V199.284H372.055C372.167 199.284 372.242 199.308 372.279 199.354C372.326 199.392 372.349 199.466 372.349 199.578C372.302 200.568 372.144 201.492 371.873 202.35C371.602 203.209 371.229 204.007 370.753 204.744C370.277 205.5 369.722 206.182 369.087 206.788C368.462 207.395 367.766 207.922 367.001 208.37L366.105 207.628ZM376.073 210.974H374.953V198.57H376.073V210.974ZM389.403 201.454C389.403 201.865 389.328 202.215 389.179 202.504C389.029 202.85 388.829 203.134 388.577 203.358C388.306 203.601 387.979 203.792 387.597 203.932C387.214 204.072 386.78 204.142 386.295 204.142C385.791 204.142 385.347 204.072 384.965 203.932C384.591 203.792 384.269 203.601 383.999 203.358C383.728 203.116 383.523 202.831 383.383 202.504C383.243 202.178 383.173 201.828 383.173 201.454C383.173 201.09 383.243 200.745 383.383 200.418C383.523 200.092 383.723 199.802 383.985 199.55C384.255 199.298 384.582 199.098 384.965 198.948C385.347 198.799 385.791 198.724 386.295 198.724C386.78 198.724 387.214 198.799 387.597 198.948C387.989 199.098 388.315 199.298 388.577 199.55C388.847 199.802 389.053 200.092 389.193 200.418C389.333 200.745 389.403 201.09 389.403 201.454ZM388.353 201.44C388.353 200.964 388.185 200.544 387.849 200.18C387.531 199.807 387.013 199.62 386.295 199.62C385.595 199.62 385.077 199.807 384.741 200.18C384.405 200.544 384.237 200.964 384.237 201.44C384.237 201.898 384.4 202.318 384.727 202.7C385.063 203.064 385.585 203.246 386.295 203.246C387.004 203.246 387.522 203.064 387.849 202.7C388.185 202.336 388.353 201.916 388.353 201.44ZM392.455 210.974H391.349V198.57H392.455V210.974ZM386.645 210.708H385.595V206.382H382.389V205.416H385.973C386.215 205.416 386.547 205.412 386.967 205.402C387.387 205.384 387.835 205.36 388.311 205.332C388.787 205.304 389.244 205.272 389.683 205.234C390.131 205.197 390.499 205.155 390.789 205.108V206.032C390.201 206.135 389.552 206.21 388.843 206.256C388.143 206.303 387.41 206.34 386.645 206.368V210.708ZM401.626 201.762H394.57V200.81H401.626V201.762ZM399.932 199.718L396.292 199.732V198.794H399.932V199.718ZM400.954 206.942C400.795 207.297 400.58 207.61 400.31 207.88C400.039 208.142 399.717 208.347 399.344 208.496C398.97 208.646 398.56 208.72 398.112 208.72C397.664 208.72 397.248 208.646 396.866 208.496C396.492 208.347 396.17 208.142 395.9 207.88C395.629 207.61 395.414 207.297 395.256 206.942C395.106 206.578 395.032 206.172 395.032 205.724C395.032 205.276 395.106 204.875 395.256 204.52C395.405 204.156 395.615 203.844 395.886 203.582C396.156 203.321 396.478 203.12 396.852 202.98C397.234 202.831 397.654 202.756 398.112 202.756C398.569 202.756 398.984 202.831 399.358 202.98C399.74 203.12 400.067 203.321 400.338 203.582C400.608 203.844 400.818 204.156 400.968 204.52C401.117 204.875 401.192 205.276 401.192 205.724C401.192 206.116 401.112 206.522 400.954 206.942ZM398.112 207.754C398.728 207.754 399.204 207.563 399.54 207.18C399.885 206.798 400.058 206.312 400.058 205.724C400.058 205.127 399.885 204.642 399.54 204.268C399.204 203.895 398.728 203.708 398.112 203.708C397.496 203.708 397.015 203.895 396.67 204.268C396.334 204.642 396.166 205.127 396.166 205.724C396.166 206.312 396.334 206.798 396.67 207.18C397.015 207.563 397.496 207.754 398.112 207.754ZM404.118 210.988H403.026V198.57H404.118V203.61H405.966V204.632H404.118V210.988ZM416.705 211.002H415.599V206.13H412.785C412.523 206.858 412.155 207.404 411.679 207.768C411.203 208.123 410.68 208.3 410.111 208.3C409.681 208.3 409.28 208.207 408.907 208.02C408.533 207.834 408.207 207.544 407.927 207.152C407.647 206.76 407.427 206.275 407.269 205.696C407.11 205.108 407.031 204.404 407.031 203.582C407.031 202.761 407.11 202.056 407.269 201.468C407.427 200.88 407.642 200.39 407.913 199.998C408.193 199.606 408.515 199.322 408.879 199.144C409.252 198.958 409.663 198.864 410.111 198.864C410.671 198.864 411.184 199.037 411.651 199.382C412.117 199.728 412.486 200.25 412.757 200.95H415.599V198.57H416.705V211.002ZM415.599 205.164V201.902H413.023C413.069 202.154 413.107 202.42 413.135 202.7C413.163 202.98 413.177 203.274 413.177 203.582C413.177 203.881 413.163 204.161 413.135 204.422C413.116 204.684 413.088 204.931 413.051 205.164H415.599ZM410.979 207.012C411.109 206.91 411.226 206.788 411.329 206.648C411.431 206.508 411.52 206.359 411.595 206.2C411.753 205.864 411.87 205.472 411.945 205.024C412.029 204.567 412.071 204.086 412.071 203.582C412.071 203.078 412.029 202.607 411.945 202.168C411.87 201.72 411.753 201.324 411.595 200.978C411.436 200.642 411.231 200.372 410.979 200.166C410.736 199.961 410.447 199.858 410.111 199.858C409.765 199.858 409.467 199.961 409.215 200.166C408.963 200.372 408.757 200.647 408.599 200.992C408.431 201.338 408.309 201.734 408.235 202.182C408.16 202.63 408.123 203.097 408.123 203.582C408.123 204.086 408.16 204.567 408.235 205.024C408.319 205.472 408.44 205.864 408.599 206.2C408.767 206.546 408.972 206.816 409.215 207.012C409.467 207.208 409.765 207.306 410.111 207.306C410.447 207.306 410.736 207.208 410.979 207.012ZM426.926 201.566C426.926 202.21 426.991 202.812 427.122 203.372C427.253 203.923 427.453 204.427 427.724 204.884C428.321 205.92 429.189 206.77 430.328 207.432C430.253 207.488 430.174 207.554 430.09 207.628C430.015 207.703 429.941 207.773 429.866 207.838C429.791 207.913 429.721 207.988 429.656 208.062C429.591 208.128 429.535 208.184 429.488 208.23C429.199 208.034 428.905 207.81 428.606 207.558C428.317 207.297 428.037 207.012 427.766 206.704C427.477 206.368 427.211 206.004 426.968 205.612C426.725 205.22 426.52 204.796 426.352 204.338C426.24 204.758 426.072 205.169 425.848 205.57C425.624 205.962 425.372 206.34 425.092 206.704C424.803 207.096 424.495 207.451 424.168 207.768C423.841 208.076 423.524 208.333 423.216 208.538C423.104 208.436 422.955 208.314 422.768 208.174C422.581 208.025 422.409 207.899 422.25 207.796C423.379 207.096 424.261 206.186 424.896 205.066C425.185 204.534 425.405 203.96 425.554 203.344C425.703 202.728 425.778 202.07 425.778 201.37V199.046H426.926V201.566ZM432.47 210.988H431.364V198.57H432.47V203.33H434.304V204.324H432.47V210.988ZM444.693 209.84C444.422 210.26 443.946 210.596 443.265 210.848C442.584 211.1 441.678 211.226 440.549 211.226C439.802 211.226 439.149 211.166 438.589 211.044C438.038 210.932 437.576 210.774 437.203 210.568C436.83 210.363 436.55 210.12 436.363 209.84C436.186 209.56 436.097 209.252 436.097 208.916C436.097 208.244 436.466 207.694 437.203 207.264C437.95 206.835 439.065 206.62 440.549 206.62C441.286 206.62 441.93 206.681 442.481 206.802C443.041 206.914 443.503 207.073 443.867 207.278C444.24 207.484 444.516 207.726 444.693 208.006C444.88 208.286 444.973 208.594 444.973 208.93C444.973 209.238 444.88 209.542 444.693 209.84ZM442.873 209.98C443.452 209.728 443.741 209.378 443.741 208.93C443.741 208.454 443.456 208.09 442.887 207.838C442.318 207.577 441.538 207.446 440.549 207.446C439.504 207.446 438.701 207.577 438.141 207.838C437.59 208.1 437.315 208.459 437.315 208.916C437.315 209.374 437.59 209.728 438.141 209.98C438.701 210.242 439.504 210.372 440.549 210.372C441.576 210.372 442.35 210.242 442.873 209.98ZM442.061 204.674V203.106C441.828 203.162 441.58 203.2 441.319 203.218C441.058 203.237 440.796 203.246 440.535 203.246C440.274 203.246 440.012 203.237 439.751 203.218C439.499 203.2 439.27 203.167 439.065 203.12V204.674H442.061ZM442.817 201.958C443.414 201.678 443.713 201.314 443.713 200.866C443.713 200.418 443.428 200.05 442.859 199.76C442.29 199.471 441.515 199.326 440.535 199.326C439.518 199.326 438.734 199.466 438.183 199.746C437.642 200.026 437.371 200.39 437.371 200.838C437.371 201.268 437.66 201.632 438.239 201.93C438.808 202.22 439.574 202.364 440.535 202.364C441.384 202.364 442.145 202.229 442.817 201.958ZM446.219 205.626H434.851V204.674H437.973V202.854C437.376 202.63 436.928 202.346 436.629 202C436.34 201.655 436.195 201.272 436.195 200.852C436.195 200.208 436.559 199.653 437.287 199.186C438.034 198.72 439.116 198.486 440.535 198.486C442.01 198.486 443.106 198.724 443.825 199.2C444.544 199.667 444.903 200.227 444.903 200.88C444.903 201.282 444.754 201.655 444.455 202C444.166 202.346 443.727 202.63 443.139 202.854V204.674H446.219V205.626ZM454.242 200.222H451.512V201.426C451.512 202.696 451.787 203.816 452.338 204.786C452.907 205.832 453.771 206.686 454.928 207.348C454.807 207.451 454.667 207.582 454.508 207.74C454.349 207.899 454.223 208.03 454.13 208.132C453.813 207.936 453.505 207.712 453.206 207.46C452.907 207.208 452.632 206.928 452.38 206.62C451.773 205.93 451.297 205.141 450.952 204.254C450.831 204.674 450.658 205.085 450.434 205.486C450.219 205.878 449.972 206.256 449.692 206.62C449.412 207.012 449.109 207.367 448.782 207.684C448.455 207.992 448.138 208.254 447.83 208.468C447.699 208.356 447.541 208.23 447.354 208.09C447.177 207.95 447.004 207.824 446.836 207.712C447.405 207.367 447.909 206.975 448.348 206.536C448.787 206.098 449.155 205.598 449.454 205.038C449.753 204.506 449.981 203.923 450.14 203.288C450.299 202.654 450.378 201.972 450.378 201.244V200.222H447.732V199.284H454.242V200.222ZM456.916 210.988H455.824V198.57H456.916V203.33H458.764V204.324H456.916V210.988ZM465.738 205.136C465.336 204.959 464.996 204.716 464.716 204.408C464.426 204.11 464.202 203.76 464.044 203.358C463.885 202.957 463.806 202.528 463.806 202.07C463.806 201.613 463.885 201.184 464.044 200.782C464.202 200.381 464.426 200.026 464.716 199.718C464.996 199.42 465.336 199.182 465.738 199.004C466.139 198.827 466.582 198.738 467.068 198.738C467.544 198.738 467.982 198.827 468.384 199.004C468.785 199.182 469.13 199.42 469.42 199.718C469.709 200.026 469.933 200.381 470.092 200.782C470.26 201.184 470.344 201.613 470.344 202.07C470.344 202.528 470.26 202.957 470.092 203.358C469.933 203.76 469.709 204.11 469.42 204.408C469.13 204.716 468.785 204.959 468.384 205.136C467.982 205.304 467.544 205.388 467.068 205.388C466.582 205.388 466.139 205.304 465.738 205.136ZM467.068 204.38C467.73 204.38 468.253 204.156 468.636 203.708C469.009 203.279 469.196 202.733 469.196 202.07C469.196 201.426 469.009 200.876 468.636 200.418C468.262 199.961 467.74 199.732 467.068 199.732C466.396 199.732 465.873 199.961 465.5 200.418C465.126 200.876 464.94 201.426 464.94 202.07C464.94 202.733 465.126 203.279 465.5 203.708C465.873 204.156 466.396 204.38 467.068 204.38ZM473.704 207.684H472.598V198.57H473.704V207.684ZM474.04 210.722H465.934C465.822 210.722 465.742 210.699 465.696 210.652C465.658 210.615 465.64 210.54 465.64 210.428V206.662H466.774V209.77H474.04V210.722ZM483.589 207.46C483.187 207.544 482.753 207.619 482.287 207.684C481.82 207.74 481.316 207.787 480.775 207.824C480.243 207.862 479.715 207.89 479.193 207.908C478.679 207.927 478.194 207.936 477.737 207.936H476.939C476.827 207.936 476.747 207.918 476.701 207.88C476.663 207.834 476.645 207.754 476.645 207.642V199.466C476.645 199.354 476.663 199.28 476.701 199.242C476.747 199.196 476.827 199.172 476.939 199.172H482.245V200.124H477.751V202.98H481.741V203.932H477.751V206.942H478.787C479.16 206.942 479.566 206.933 480.005 206.914C480.453 206.886 480.891 206.854 481.321 206.816C481.769 206.779 482.184 206.737 482.567 206.69C482.959 206.644 483.299 206.592 483.589 206.536V207.46ZM485.843 210.974H484.751V203.792H482.609V202.784H484.751V198.57H485.843V210.974ZM496.484 203.372V201.342H490.366V203.372H496.484ZM497.59 204.016C497.59 204.128 497.566 204.208 497.52 204.254C497.482 204.292 497.408 204.31 497.296 204.31H489.568C489.456 204.31 489.376 204.292 489.33 204.254C489.292 204.208 489.274 204.128 489.274 204.016V198.836H490.366V200.432H496.484V198.836H497.59V204.016ZM496.092 210.974H494.986V206.802H491.906V210.876H490.786V206.802H487.748V205.85H499.102V206.802H496.092V210.974ZM508.301 208.048C508.058 208.095 507.769 208.137 507.433 208.174C507.097 208.202 506.714 208.235 506.285 208.272C505.445 208.328 504.567 208.356 503.653 208.356H500.083V207.404H503.401V205.122C502.981 205.066 502.603 204.95 502.267 204.772C501.94 204.586 501.66 204.357 501.427 204.086C501.193 203.806 501.011 203.489 500.881 203.134C500.759 202.78 500.699 202.402 500.699 202C500.699 201.552 500.773 201.137 500.923 200.754C501.072 200.372 501.287 200.04 501.567 199.76C501.847 199.48 502.183 199.261 502.575 199.102C502.967 198.934 503.415 198.85 503.919 198.85C504.404 198.85 504.847 198.934 505.249 199.102C505.65 199.261 505.991 199.48 506.271 199.76C506.56 200.04 506.779 200.372 506.929 200.754C507.087 201.137 507.167 201.552 507.167 202C507.167 202.822 506.929 203.517 506.453 204.086C505.977 204.656 505.328 204.996 504.507 205.108V207.376C504.768 207.367 505.067 207.358 505.403 207.348C505.748 207.33 506.093 207.306 506.439 207.278C506.793 207.26 507.129 207.236 507.447 207.208C507.773 207.18 508.058 207.143 508.301 207.096V208.048ZM503.919 204.17C504.619 204.17 505.151 203.97 505.515 203.568C505.888 203.167 506.075 202.644 506.075 202C506.075 201.692 506.028 201.403 505.935 201.132C505.841 200.862 505.701 200.628 505.515 200.432C505.337 200.227 505.113 200.068 504.843 199.956C504.572 199.844 504.264 199.788 503.919 199.788C503.564 199.788 503.251 199.844 502.981 199.956C502.719 200.068 502.5 200.222 502.323 200.418C502.145 200.614 502.01 200.848 501.917 201.118C501.823 201.389 501.777 201.683 501.777 202C501.777 202.654 501.959 203.181 502.323 203.582C502.687 203.974 503.219 204.17 503.919 204.17ZM509.869 210.988H508.777V198.556H509.869V203.498H511.633V204.506H509.869V210.988ZM96.2613 230.174C95.6173 229.754 94.992 229.213 94.3853 228.55C93.7973 227.906 93.3587 227.155 93.0693 226.296C92.9387 226.716 92.7567 227.132 92.5233 227.542C92.29 227.944 92.0287 228.331 91.7393 228.704C91.4407 229.068 91.128 229.404 90.8013 229.712C90.4747 230.02 90.1573 230.286 89.8493 230.51L88.9393 229.74C90.0687 229.04 90.9413 228.163 91.5573 227.108C92.1733 226.044 92.4813 224.77 92.4813 223.286V222.236H89.8353V221.284H96.3453V222.236H93.6433V223.468C93.6433 224.822 93.9187 225.979 94.4693 226.94C95.0293 227.892 95.8927 228.704 97.0593 229.376L96.2613 230.174ZM99.5233 232.974H98.4313V227.248H95.9953V226.282H98.4313V224.21H96.0093V223.244H98.4313V220.57H99.5233V232.974ZM111.368 232.988L110.276 232.988V220.57H111.368V232.988ZM109.618 229.236C109.422 229.283 109.166 229.334 108.848 229.39C108.54 229.437 108.2 229.484 107.826 229.53C107.453 229.577 107.066 229.619 106.664 229.656C106.263 229.694 105.89 229.717 105.544 229.726L102.534 229.768C102.422 229.768 102.343 229.75 102.296 229.712C102.259 229.666 102.24 229.586 102.24 229.474V221.088H103.36V228.76L105.628 228.732C105.927 228.723 106.263 228.704 106.636 228.676C107.01 228.639 107.378 228.597 107.742 228.55C108.116 228.504 108.466 228.457 108.792 228.41C109.128 228.354 109.404 228.298 109.618 228.242V229.236ZM117.683 225.372V222.096H115.191V225.372H117.683ZM118.761 226.03C118.761 226.142 118.738 226.222 118.691 226.268C118.654 226.306 118.579 226.324 118.467 226.324H114.421C114.309 226.324 114.23 226.306 114.183 226.268C114.146 226.222 114.127 226.142 114.127 226.03V221.452C114.127 221.34 114.146 221.266 114.183 221.228C114.23 221.182 114.309 221.158 114.421 221.158H118.467C118.579 221.158 118.654 221.182 118.691 221.228C118.738 221.266 118.761 221.34 118.761 221.452V226.03ZM123.885 227.108H122.807V223.958H121.183V227.108H120.105V220.794H121.183V222.95H122.807V220.57H123.885V227.108ZM122.793 231.938V230.174H116.759V231.938H122.793ZM123.885 232.554C123.885 232.666 123.862 232.741 123.815 232.778C123.778 232.825 123.703 232.848 123.591 232.848H115.947C115.835 232.848 115.756 232.825 115.709 232.778C115.672 232.741 115.653 232.666 115.653 232.554V227.724H116.759V229.264H122.807V227.71H123.885V232.554ZM135.604 222.67C135.604 223.324 135.25 223.842 134.54 224.224C133.831 224.607 132.734 224.798 131.25 224.798C129.776 224.798 128.679 224.607 127.96 224.224C127.242 223.842 126.882 223.324 126.882 222.67C126.882 222.017 127.242 221.49 127.96 221.088C128.688 220.687 129.785 220.486 131.25 220.486C132.716 220.486 133.808 220.692 134.526 221.102C135.245 221.504 135.604 222.026 135.604 222.67ZM133.546 223.664C134.125 223.45 134.414 223.118 134.414 222.67C134.414 222.446 134.335 222.25 134.176 222.082C134.027 221.914 133.812 221.774 133.532 221.662C133.262 221.541 132.93 221.452 132.538 221.396C132.156 221.34 131.726 221.312 131.25 221.312C130.774 221.312 130.34 221.34 129.948 221.396C129.556 221.452 129.22 221.536 128.94 221.648C128.66 221.76 128.446 221.905 128.296 222.082C128.147 222.25 128.072 222.446 128.072 222.67C128.072 223.118 128.352 223.45 128.912 223.664C129.482 223.87 130.261 223.972 131.25 223.972C132.258 223.972 133.024 223.87 133.546 223.664ZM136.92 226.646H125.552V225.75H136.92V226.646ZM135.674 232.862H127.372C127.26 232.862 127.181 232.839 127.134 232.792C127.097 232.755 127.078 232.68 127.078 232.568V230.16C127.078 230.048 127.097 229.974 127.134 229.936C127.181 229.89 127.26 229.866 127.372 229.866H134.176V228.606H127.078V227.738H135.1C135.212 227.738 135.287 227.762 135.324 227.808C135.371 227.846 135.394 227.92 135.394 228.032V230.37C135.394 230.482 135.371 230.562 135.324 230.608C135.287 230.646 135.212 230.664 135.1 230.664H128.296V232.008H135.674V232.862ZM149.13 227.542C148.887 227.44 148.616 227.304 148.318 227.136C148.028 226.959 147.739 226.754 147.45 226.52C147.151 226.287 146.871 226.026 146.61 225.736C146.348 225.438 146.129 225.111 145.952 224.756C145.812 225.12 145.625 225.461 145.392 225.778C145.168 226.086 144.911 226.371 144.622 226.632C144.332 226.903 144.02 227.146 143.684 227.36C143.357 227.566 143.035 227.748 142.718 227.906L141.892 227.15C142.368 226.954 142.811 226.716 143.222 226.436C143.642 226.147 144.01 225.816 144.328 225.442C144.645 225.069 144.897 224.654 145.084 224.196C145.28 223.739 145.378 223.23 145.378 222.67V222.082H142.788V221.144H149.06V222.082H146.526V222.698C146.526 223.202 146.624 223.674 146.82 224.112C147.016 224.542 147.272 224.924 147.59 225.26C147.907 225.606 148.262 225.904 148.654 226.156C149.055 226.399 149.456 226.586 149.858 226.716L149.13 227.542ZM152.364 229.67H151.272V220.57H152.364V229.67ZM152.714 232.722H144.622C144.51 232.722 144.43 232.699 144.384 232.652C144.346 232.615 144.328 232.54 144.328 232.428V228.746H145.462V231.77H152.714V232.722ZM160.233 223.23H154.465V222.362H160.233V223.23ZM158.819 221.592H155.851V220.724H158.819V221.592ZM157.335 227.99C156.569 227.99 155.935 227.794 155.431 227.402C154.936 226.992 154.689 226.478 154.689 225.862C154.689 225.545 154.754 225.256 154.885 224.994C155.015 224.733 155.193 224.509 155.417 224.322C155.65 224.136 155.93 223.996 156.257 223.902C156.583 223.8 156.943 223.748 157.335 223.748C157.727 223.748 158.081 223.8 158.399 223.902C158.725 223.996 159.005 224.136 159.239 224.322C159.472 224.509 159.649 224.733 159.771 224.994C159.901 225.256 159.967 225.545 159.967 225.862C159.967 226.488 159.715 227.001 159.211 227.402C158.716 227.794 158.091 227.99 157.335 227.99ZM158.511 226.856C158.791 226.604 158.931 226.278 158.931 225.876C158.931 225.456 158.791 225.13 158.511 224.896C158.231 224.654 157.839 224.532 157.335 224.532C156.803 224.532 156.397 224.654 156.117 224.896C155.846 225.13 155.711 225.456 155.711 225.876C155.711 226.278 155.846 226.604 156.117 226.856C156.397 227.099 156.803 227.22 157.335 227.22C157.82 227.22 158.212 227.099 158.511 226.856ZM164.783 228.578H163.719V224.952H162.179V228.172H161.115V220.794H162.179V223.972H163.719V220.57H164.783V228.578ZM164.531 231.826C164.26 232.274 163.784 232.62 163.103 232.862C162.431 233.114 161.558 233.24 160.485 233.24C159.757 233.24 159.117 233.18 158.567 233.058C158.016 232.946 157.554 232.783 157.181 232.568C156.817 232.363 156.541 232.116 156.355 231.826C156.177 231.537 156.089 231.224 156.089 230.888C156.089 230.552 156.182 230.244 156.369 229.964C156.555 229.675 156.831 229.428 157.195 229.222C157.568 229.008 158.025 228.844 158.567 228.732C159.117 228.611 159.757 228.55 160.485 228.55C161.194 228.55 161.819 228.611 162.361 228.732C162.902 228.844 163.355 229.008 163.719 229.222C164.083 229.428 164.353 229.675 164.531 229.964C164.717 230.244 164.811 230.552 164.811 230.888C164.811 231.215 164.717 231.528 164.531 231.826ZM162.753 231.966C163.341 231.705 163.635 231.35 163.635 230.902C163.635 230.669 163.555 230.459 163.397 230.272C163.247 230.086 163.033 229.932 162.753 229.81C162.482 229.689 162.151 229.596 161.759 229.53C161.376 229.465 160.951 229.432 160.485 229.432C160.009 229.432 159.57 229.465 159.169 229.53C158.777 229.596 158.441 229.689 158.161 229.81C157.881 229.932 157.661 230.086 157.503 230.272C157.353 230.45 157.279 230.655 157.279 230.888C157.279 231.112 157.353 231.318 157.503 231.504C157.661 231.691 157.881 231.845 158.161 231.966C158.441 232.097 158.777 232.195 159.169 232.26C159.57 232.335 160.009 232.372 160.485 232.372C161.353 232.372 162.109 232.237 162.753 231.966ZM173.702 223.762H166.646V222.81H173.702V223.762ZM172.008 221.718L168.368 221.732V220.794H172.008V221.718ZM173.03 228.942C172.871 229.297 172.656 229.61 172.386 229.88C172.115 230.142 171.793 230.347 171.42 230.496C171.046 230.646 170.636 230.72 170.188 230.72C169.74 230.72 169.324 230.646 168.942 230.496C168.568 230.347 168.246 230.142 167.976 229.88C167.705 229.61 167.49 229.297 167.332 228.942C167.182 228.578 167.108 228.172 167.108 227.724C167.108 227.276 167.182 226.875 167.332 226.52C167.481 226.156 167.691 225.844 167.962 225.582C168.232 225.321 168.554 225.12 168.928 224.98C169.31 224.831 169.73 224.756 170.188 224.756C170.645 224.756 171.06 224.831 171.434 224.98C171.816 225.12 172.143 225.321 172.414 225.582C172.684 225.844 172.894 226.156 173.044 226.52C173.193 226.875 173.268 227.276 173.268 227.724C173.268 228.116 173.188 228.522 173.03 228.942ZM170.188 229.754C170.804 229.754 171.28 229.563 171.616 229.18C171.961 228.798 172.134 228.312 172.134 227.724C172.134 227.127 171.961 226.642 171.616 226.268C171.28 225.895 170.804 225.708 170.188 225.708C169.572 225.708 169.091 225.895 168.746 226.268C168.41 226.642 168.242 227.127 168.242 227.724C168.242 228.312 168.41 228.798 168.746 229.18C169.091 229.563 169.572 229.754 170.188 229.754ZM176.194 232.988H175.102V220.57H176.194V225.61H178.042V226.632H176.194V232.988ZM188.781 233.002H187.675V228.13H184.861C184.599 228.858 184.231 229.404 183.755 229.768C183.279 230.123 182.756 230.3 182.187 230.3C181.757 230.3 181.356 230.207 180.983 230.02C180.609 229.834 180.283 229.544 180.003 229.152C179.723 228.76 179.503 228.275 179.345 227.696C179.186 227.108 179.107 226.404 179.107 225.582C179.107 224.761 179.186 224.056 179.345 223.468C179.503 222.88 179.718 222.39 179.989 221.998C180.269 221.606 180.591 221.322 180.955 221.144C181.328 220.958 181.739 220.864 182.187 220.864C182.747 220.864 183.26 221.037 183.727 221.382C184.193 221.728 184.562 222.25 184.833 222.95H187.675V220.57H188.781V233.002ZM187.675 227.164V223.902H185.099C185.145 224.154 185.183 224.42 185.211 224.7C185.239 224.98 185.253 225.274 185.253 225.582C185.253 225.881 185.239 226.161 185.211 226.422C185.192 226.684 185.164 226.931 185.127 227.164H187.675ZM183.055 229.012C183.185 228.91 183.302 228.788 183.405 228.648C183.507 228.508 183.596 228.359 183.671 228.2C183.829 227.864 183.946 227.472 184.021 227.024C184.105 226.567 184.147 226.086 184.147 225.582C184.147 225.078 184.105 224.607 184.021 224.168C183.946 223.72 183.829 223.324 183.671 222.978C183.512 222.642 183.307 222.372 183.055 222.166C182.812 221.961 182.523 221.858 182.187 221.858C181.841 221.858 181.543 221.961 181.291 222.166C181.039 222.372 180.833 222.647 180.675 222.992C180.507 223.338 180.385 223.734 180.311 224.182C180.236 224.63 180.199 225.097 180.199 225.582C180.199 226.086 180.236 226.567 180.311 227.024C180.395 227.472 180.516 227.864 180.675 228.2C180.843 228.546 181.048 228.816 181.291 229.012C181.543 229.208 181.841 229.306 182.187 229.306C182.523 229.306 182.812 229.208 183.055 229.012ZM203.524 224.378V221.858H197.266V224.378H203.524ZM206.086 227.794H201.158V230.636H200.08V227.794H194.718V226.856H206.086V227.794ZM204.574 225.022C204.574 225.134 204.551 225.214 204.504 225.26C204.467 225.298 204.392 225.316 204.28 225.316H196.51C196.398 225.316 196.319 225.298 196.272 225.26C196.235 225.214 196.216 225.134 196.216 225.022V221.228C196.216 221.116 196.235 221.042 196.272 221.004C196.319 220.958 196.398 220.934 196.51 220.934H204.28C204.392 220.934 204.467 220.958 204.504 221.004C204.551 221.042 204.574 221.116 204.574 221.228V225.022ZM205.008 232.722H196.538C196.426 232.722 196.347 232.699 196.3 232.652C196.263 232.615 196.244 232.54 196.244 232.428V229.04H197.308V231.77H205.008V232.722ZM212.723 230.09C212.49 229.941 212.261 229.759 212.037 229.544C211.813 229.33 211.585 229.078 211.351 228.788C210.903 228.228 210.563 227.566 210.329 226.8C210.227 227.164 210.087 227.528 209.909 227.892C209.732 228.256 209.531 228.602 209.307 228.928C209.074 229.255 208.822 229.563 208.551 229.852C208.281 230.132 208.01 230.37 207.739 230.566L206.773 229.866C207.809 229.166 208.57 228.289 209.055 227.234C209.55 226.18 209.797 224.906 209.797 223.412V222.334H207.725V221.396H212.947V222.334H210.931V223.384C210.931 224.084 210.973 224.733 211.057 225.33C211.151 225.928 211.295 226.478 211.491 226.982C211.697 227.477 211.967 227.92 212.303 228.312C212.639 228.704 213.055 229.045 213.549 229.334L212.723 230.09ZM217.763 232.974H216.713V220.57H217.763V232.974ZM215.341 232.386H214.249V225.582H212.191V224.532H214.249V220.78H215.341V232.386ZM226.304 227.178C226.062 227.076 225.791 226.945 225.492 226.786C225.203 226.618 224.914 226.422 224.624 226.198C224.335 225.974 224.06 225.722 223.798 225.442C223.537 225.162 223.322 224.85 223.154 224.504C222.884 225.232 222.454 225.834 221.866 226.31C221.568 226.553 221.26 226.782 220.942 226.996C220.634 227.202 220.312 227.384 219.976 227.542L219.122 226.814C219.57 226.637 220.004 226.418 220.424 226.156C220.844 225.886 221.213 225.568 221.53 225.204C221.848 224.84 222.1 224.43 222.286 223.972C222.482 223.515 222.58 223.006 222.58 222.446V222.096H220.074V221.144H226.136V222.096H223.728V222.474C223.728 222.988 223.817 223.454 223.994 223.874C224.181 224.285 224.428 224.654 224.736 224.98C225.044 225.307 225.394 225.587 225.786 225.82C226.178 226.054 226.584 226.236 227.004 226.366L226.304 227.178ZM229.678 227.738H228.572V224.266H225.996V223.314H228.572V220.57H229.678V227.738ZM228.572 231.924V229.292H222.762V231.924H228.572ZM229.678 232.54C229.678 232.652 229.655 232.727 229.608 232.764C229.571 232.811 229.496 232.834 229.384 232.834H221.95C221.838 232.834 221.759 232.811 221.712 232.764C221.675 232.727 221.656 232.652 221.656 232.54V228.676C221.656 228.564 221.675 228.49 221.712 228.452C221.759 228.406 221.838 228.382 221.95 228.382H229.384C229.496 228.382 229.571 228.406 229.608 228.452C229.655 228.49 229.678 228.564 229.678 228.676V232.54ZM241.397 222.67C241.397 223.324 241.043 223.842 240.333 224.224C239.624 224.607 238.527 224.798 237.043 224.798C235.569 224.798 234.472 224.607 233.753 224.224C233.035 223.842 232.675 223.324 232.675 222.67C232.675 222.017 233.035 221.49 233.753 221.088C234.481 220.687 235.578 220.486 237.043 220.486C238.509 220.486 239.601 220.692 240.319 221.102C241.038 221.504 241.397 222.026 241.397 222.67ZM239.339 223.664C239.918 223.45 240.207 223.118 240.207 222.67C240.207 222.446 240.128 222.25 239.969 222.082C239.82 221.914 239.605 221.774 239.325 221.662C239.055 221.541 238.723 221.452 238.331 221.396C237.949 221.34 237.519 221.312 237.043 221.312C236.567 221.312 236.133 221.34 235.741 221.396C235.349 221.452 235.013 221.536 234.733 221.648C234.453 221.76 234.239 221.905 234.089 222.082C233.94 222.25 233.865 222.446 233.865 222.67C233.865 223.118 234.145 223.45 234.705 223.664C235.275 223.87 236.054 223.972 237.043 223.972C238.051 223.972 238.817 223.87 239.339 223.664ZM242.713 226.646H231.345V225.75H242.713V226.646ZM241.467 232.862H233.165C233.053 232.862 232.974 232.839 232.927 232.792C232.89 232.755 232.871 232.68 232.871 232.568V230.16C232.871 230.048 232.89 229.974 232.927 229.936C232.974 229.89 233.053 229.866 233.165 229.866H239.969V228.606H232.871V227.738H240.893C241.005 227.738 241.08 227.762 241.117 227.808C241.164 227.846 241.187 227.92 241.187 228.032V230.37C241.187 230.482 241.164 230.562 241.117 230.608C241.08 230.646 241.005 230.664 240.893 230.664H234.089V232.008H241.467V232.862ZM252.921 225.414V223.608H249.449V225.414H252.921ZM253.999 226.03C253.999 226.142 253.975 226.222 253.929 226.268C253.891 226.306 253.817 226.324 253.705 226.324H248.665C248.553 226.324 248.473 226.306 248.427 226.268C248.389 226.222 248.371 226.142 248.371 226.03V220.962H249.449V222.698H252.921V220.962H253.999V226.03ZM257.541 226.954H256.435V220.57H257.541V222.88H259.235V223.846H257.541V226.954ZM257.863 232.89H250.023C249.911 232.89 249.831 232.867 249.785 232.82C249.747 232.783 249.729 232.708 249.729 232.596V230.09C249.729 229.978 249.747 229.904 249.785 229.866C249.831 229.82 249.911 229.796 250.023 229.796H256.407V228.48H249.729V227.57H257.275C257.387 227.57 257.461 227.594 257.499 227.64C257.545 227.678 257.569 227.752 257.569 227.864V230.356C257.569 230.468 257.545 230.548 257.499 230.594C257.461 230.632 257.387 230.65 257.275 230.65H250.905V231.994H257.863V232.89ZM260.02 227.388C260.748 227.146 261.41 226.847 262.008 226.492C262.605 226.138 263.128 225.736 263.576 225.288C264.024 224.84 264.388 224.35 264.668 223.818C264.948 223.286 265.13 222.717 265.214 222.11H260.874V221.144H266.166C266.278 221.144 266.352 221.168 266.39 221.214C266.436 221.252 266.46 221.326 266.46 221.438C266.385 222.288 266.198 223.058 265.9 223.748C265.601 224.439 265.2 225.069 264.696 225.638C263.669 226.777 262.358 227.636 260.762 228.214L260.02 227.388ZM270.24 229.656H269.134V226.45H266.572V225.512H269.134V223.496H266.894V222.572H269.134V220.57H270.24V229.656ZM270.576 232.722H262.484C262.372 232.722 262.292 232.699 262.246 232.652C262.208 232.615 262.19 232.54 262.19 232.428V228.732H263.324V231.77H270.576V232.722ZM279.495 223.762H272.439V222.81H279.495V223.762ZM277.801 221.718L274.161 221.732V220.794H277.801V221.718ZM278.823 228.942C278.664 229.297 278.449 229.61 278.179 229.88C277.908 230.142 277.586 230.347 277.213 230.496C276.839 230.646 276.429 230.72 275.981 230.72C275.533 230.72 275.117 230.646 274.735 230.496C274.361 230.347 274.039 230.142 273.769 229.88C273.498 229.61 273.283 229.297 273.125 228.942C272.975 228.578 272.901 228.172 272.901 227.724C272.901 227.276 272.975 226.875 273.125 226.52C273.274 226.156 273.484 225.844 273.755 225.582C274.025 225.321 274.347 225.12 274.721 224.98C275.103 224.831 275.523 224.756 275.981 224.756C276.438 224.756 276.853 224.831 277.227 224.98C277.609 225.12 277.936 225.321 278.207 225.582C278.477 225.844 278.687 226.156 278.837 226.52C278.986 226.875 279.061 227.276 279.061 227.724C279.061 228.116 278.981 228.522 278.823 228.942ZM275.981 229.754C276.597 229.754 277.073 229.563 277.409 229.18C277.754 228.798 277.927 228.312 277.927 227.724C277.927 227.127 277.754 226.642 277.409 226.268C277.073 225.895 276.597 225.708 275.981 225.708C275.365 225.708 274.884 225.895 274.539 226.268C274.203 226.642 274.035 227.127 274.035 227.724C274.035 228.312 274.203 228.798 274.539 229.18C274.884 229.563 275.365 229.754 275.981 229.754ZM281.987 232.988H280.895V220.57H281.987V225.61H283.835V226.632H281.987V232.988ZM292.264 228.592C292.46 227.584 292.628 226.52 292.768 225.4C292.842 224.831 292.903 224.29 292.95 223.776C292.996 223.254 293.029 222.74 293.048 222.236H285.572V221.298H293.916C294.028 221.298 294.102 221.322 294.14 221.368C294.186 221.406 294.21 221.48 294.21 221.592C294.172 222.152 294.126 222.726 294.07 223.314C294.023 223.902 293.962 224.504 293.888 225.12C293.813 225.718 293.729 226.315 293.636 226.912C293.552 227.5 293.463 228.06 293.37 228.592H292.264ZM295.638 231.42H284.228V230.454H288.512V225.694H289.618V230.454H295.638V231.42ZM306.769 223.72H300.889V222.81H306.769V223.72ZM305.481 221.802H302.191V220.878H305.481V221.802ZM305.747 229.698C305.253 230.221 304.627 230.482 303.871 230.482C303.106 230.482 302.471 230.221 301.967 229.698C301.473 229.176 301.225 228.48 301.225 227.612C301.225 227.174 301.291 226.782 301.421 226.436C301.552 226.082 301.729 225.783 301.953 225.54C302.187 225.288 302.467 225.097 302.793 224.966C303.12 224.836 303.479 224.77 303.871 224.77C304.263 224.77 304.618 224.836 304.935 224.966C305.262 225.097 305.542 225.288 305.775 225.54C306.009 225.783 306.186 226.082 306.307 226.436C306.438 226.782 306.503 227.174 306.503 227.612C306.503 228.49 306.251 229.185 305.747 229.698ZM303.871 229.516C304.375 229.516 304.767 229.348 305.047 229.012C305.327 228.667 305.467 228.2 305.467 227.612C305.467 227.015 305.327 226.553 305.047 226.226C304.767 225.89 304.375 225.722 303.871 225.722C303.339 225.722 302.933 225.89 302.653 226.226C302.383 226.553 302.247 227.015 302.247 227.612C302.247 228.2 302.383 228.667 302.653 229.012C302.933 229.348 303.339 229.516 303.871 229.516ZM311.347 232.988H310.297V226.45H308.701V232.386H307.637V220.78H308.701V225.386H310.297V220.57H311.347V232.988ZM319.076 221.144C319.188 221.144 319.263 221.168 319.3 221.214C319.347 221.252 319.37 221.326 319.37 221.438C319.156 222.885 318.544 224.07 317.536 224.994C316.51 225.946 315.231 226.651 313.7 227.108L313.028 226.296C313.654 226.138 314.242 225.928 314.792 225.666C315.352 225.405 315.856 225.097 316.304 224.742C316.752 224.397 317.126 224.005 317.424 223.566C317.732 223.118 317.952 222.628 318.082 222.096H313.784V221.144H319.076ZM323.136 227.01H322.03V225.568H319.384V224.672H322.03V223.174H319.706V222.278H322.03V220.57H323.136V227.01ZM323.402 232.89H315.338C315.226 232.89 315.147 232.867 315.1 232.82C315.063 232.783 315.044 232.708 315.044 232.596V230.118C315.044 230.006 315.063 229.932 315.1 229.894C315.147 229.848 315.226 229.824 315.338 229.824H321.932V228.592H315.044V227.682H322.828C322.94 227.682 323.015 227.706 323.052 227.752C323.099 227.79 323.122 227.864 323.122 227.976V230.384C323.122 230.496 323.099 230.576 323.052 230.622C323.015 230.66 322.94 230.678 322.828 230.678H316.234V231.994H323.402V232.89ZM330.235 226.072V223.93H326.763V226.072H330.235ZM331.313 226.716C331.313 226.828 331.29 226.908 331.243 226.954C331.206 226.992 331.131 227.01 331.019 227.01H325.979C325.867 227.01 325.788 226.992 325.741 226.954C325.704 226.908 325.685 226.828 325.685 226.716V221.004H326.763V222.978H330.235V221.004H331.313V226.716ZM334.855 228.228H333.749V220.57H334.855V223.342H336.577V224.294H334.855V228.228ZM335.177 230.72C335.177 231.495 334.79 232.102 334.015 232.54C333.241 232.988 332.214 233.212 330.935 233.212C329.657 233.212 328.635 232.988 327.869 232.54C327.104 232.092 326.721 231.486 326.721 230.72C326.721 230.347 326.819 230.006 327.015 229.698C327.221 229.381 327.51 229.115 327.883 228.9C328.257 228.686 328.695 228.518 329.199 228.396C329.713 228.275 330.291 228.214 330.935 228.214C332.223 228.214 333.25 228.443 334.015 228.9C334.79 229.367 335.177 229.974 335.177 230.72ZM334.015 230.734C334.015 230.23 333.721 229.838 333.133 229.558C332.564 229.269 331.831 229.124 330.935 229.124C330.721 229.124 330.511 229.134 330.305 229.152C330.109 229.171 329.918 229.199 329.731 229.236C329.545 229.274 329.372 229.32 329.213 229.376C329.055 229.423 328.905 229.479 328.765 229.544C328.495 229.684 328.28 229.852 328.121 230.048C327.972 230.244 327.897 230.468 327.897 230.72C327.897 230.972 327.972 231.196 328.121 231.392C328.28 231.598 328.499 231.77 328.779 231.91C329.321 232.2 330.039 232.344 330.935 232.344C331.841 232.344 332.573 232.204 333.133 231.924C333.404 231.784 333.619 231.612 333.777 231.406C333.936 231.21 334.015 230.986 334.015 230.734ZM342.654 225.736V223.79H339.196V225.736H342.654ZM347.498 227.248H346.406V224H343.732V226.38C343.732 226.492 343.709 226.572 343.662 226.618C343.625 226.656 343.55 226.674 343.438 226.674H338.398C338.286 226.674 338.207 226.656 338.16 226.618C338.123 226.572 338.104 226.492 338.104 226.38V220.99H339.196V222.852H342.654V220.99H343.732V223.048H346.406V220.57H347.498V227.248ZM346.42 231.952V230.202H340.512V231.952H346.42ZM347.484 232.554C347.484 232.666 347.461 232.741 347.414 232.778C347.377 232.825 347.302 232.848 347.19 232.848H339.728C339.616 232.848 339.537 232.825 339.49 232.778C339.453 232.741 339.434 232.666 339.434 232.554V227.85H340.526V229.306H346.392V227.85H347.484V232.554ZM359.399 222.67C359.399 223.324 359.045 223.842 358.335 224.224C357.626 224.607 356.529 224.798 355.045 224.798C353.571 224.798 352.474 224.607 351.755 224.224C351.037 223.842 350.677 223.324 350.677 222.67C350.677 222.017 351.037 221.49 351.755 221.088C352.483 220.687 353.58 220.486 355.045 220.486C356.511 220.486 357.603 220.692 358.321 221.102C359.04 221.504 359.399 222.026 359.399 222.67ZM357.341 223.664C357.92 223.45 358.209 223.118 358.209 222.67C358.209 222.446 358.13 222.25 357.971 222.082C357.822 221.914 357.607 221.774 357.327 221.662C357.057 221.541 356.725 221.452 356.333 221.396C355.951 221.34 355.521 221.312 355.045 221.312C354.569 221.312 354.135 221.34 353.743 221.396C353.351 221.452 353.015 221.536 352.735 221.648C352.455 221.76 352.241 221.905 352.091 222.082C351.942 222.25 351.867 222.446 351.867 222.67C351.867 223.118 352.147 223.45 352.707 223.664C353.277 223.87 354.056 223.972 355.045 223.972C356.053 223.972 356.819 223.87 357.341 223.664ZM360.715 226.646H349.347V225.75H360.715V226.646ZM359.469 232.862H351.167C351.055 232.862 350.976 232.839 350.929 232.792C350.892 232.755 350.873 232.68 350.873 232.568V230.16C350.873 230.048 350.892 229.974 350.929 229.936C350.976 229.89 351.055 229.866 351.167 229.866H357.971V228.606H350.873V227.738H358.895C359.007 227.738 359.082 227.762 359.119 227.808C359.166 227.846 359.189 227.92 359.189 228.032V230.37C359.189 230.482 359.166 230.562 359.119 230.608C359.082 230.646 359.007 230.664 358.895 230.664H352.091V232.008H359.469V232.862ZM376.999 231.42H365.603V230.468H370.741V227.276H367.423C367.301 227.276 367.222 227.258 367.185 227.22C367.147 227.183 367.129 227.108 367.129 226.996V221.536C367.129 221.424 367.147 221.35 367.185 221.312C367.231 221.266 367.311 221.242 367.423 221.242H375.599V222.194H368.235V226.338H375.725V227.276H371.861V230.468H376.999V231.42ZM387.85 222.95H384.308C384.448 223.202 384.658 223.422 384.938 223.608C385.218 223.795 385.554 223.949 385.946 224.07C386.338 224.201 386.758 224.308 387.206 224.392C387.654 224.467 388.088 224.528 388.508 224.574C388.405 224.686 388.288 224.822 388.158 224.98C388.036 225.139 387.934 225.284 387.85 225.414C387.486 225.358 387.108 225.288 386.716 225.204C386.324 225.111 385.946 224.994 385.582 224.854C385.152 224.705 384.756 224.523 384.392 224.308C384.028 224.094 383.743 223.837 383.538 223.538C383.314 223.809 383.048 224.042 382.74 224.238C382.432 224.434 382.096 224.602 381.732 224.742C381.33 224.91 380.91 225.05 380.472 225.162C380.042 225.265 379.613 225.349 379.184 225.414C379.081 225.293 378.969 225.158 378.848 225.008C378.736 224.859 378.624 224.714 378.512 224.574C378.96 224.528 379.403 224.462 379.842 224.378C380.28 224.294 380.686 224.187 381.06 224.056C381.452 223.926 381.788 223.772 382.068 223.594C382.357 223.408 382.572 223.193 382.712 222.95H379.17V222.138H387.85V222.95ZM385.778 221.256H381.228V220.444H385.778V221.256ZM387.962 232.862H379.66C379.548 232.862 379.468 232.839 379.422 232.792C379.384 232.755 379.366 232.68 379.366 232.568V230.412C379.366 230.3 379.384 230.226 379.422 230.188C379.468 230.142 379.548 230.118 379.66 230.118H386.506V228.998H379.366V228.172H382.922V226.926H377.84V226.086H389.194V226.926H384.084V228.172H387.36C387.472 228.172 387.546 228.196 387.584 228.242C387.63 228.28 387.654 228.354 387.654 228.466V230.608C387.654 230.72 387.63 230.8 387.584 230.846C387.546 230.884 387.472 230.902 387.36 230.902H380.542V232.036H387.962V232.862ZM397.497 223.762H390.441V222.81H397.497V223.762ZM395.803 221.718L392.163 221.732V220.794H395.803V221.718ZM396.825 228.942C396.666 229.297 396.451 229.61 396.181 229.88C395.91 230.142 395.588 230.347 395.215 230.496C394.841 230.646 394.431 230.72 393.983 230.72C393.535 230.72 393.119 230.646 392.737 230.496C392.363 230.347 392.041 230.142 391.771 229.88C391.5 229.61 391.285 229.297 391.127 228.942C390.977 228.578 390.903 228.172 390.903 227.724C390.903 227.276 390.977 226.875 391.127 226.52C391.276 226.156 391.486 225.844 391.757 225.582C392.027 225.321 392.349 225.12 392.723 224.98C393.105 224.831 393.525 224.756 393.983 224.756C394.44 224.756 394.855 224.831 395.229 224.98C395.611 225.12 395.938 225.321 396.209 225.582C396.479 225.844 396.689 226.156 396.839 226.52C396.988 226.875 397.063 227.276 397.063 227.724C397.063 228.116 396.983 228.522 396.825 228.942ZM393.983 229.754C394.599 229.754 395.075 229.563 395.411 229.18C395.756 228.798 395.929 228.312 395.929 227.724C395.929 227.127 395.756 226.642 395.411 226.268C395.075 225.895 394.599 225.708 393.983 225.708C393.367 225.708 392.886 225.895 392.541 226.268C392.205 226.642 392.037 227.127 392.037 227.724C392.037 228.312 392.205 228.798 392.541 229.18C392.886 229.563 393.367 229.754 393.983 229.754ZM399.989 232.988H398.897V220.57H399.989V225.61H401.837V226.632H399.989V232.988ZM412.604 227.738H411.498V225.652H408.586C408.296 226.044 407.923 226.357 407.466 226.59C407.008 226.824 406.5 226.94 405.94 226.94C405.464 226.94 405.025 226.861 404.624 226.702C404.232 226.544 403.896 226.324 403.616 226.044C403.326 225.764 403.102 225.438 402.944 225.064C402.794 224.682 402.72 224.276 402.72 223.846C402.72 223.417 402.794 223.016 402.944 222.642C403.102 222.26 403.326 221.924 403.616 221.634C403.896 221.354 404.232 221.135 404.624 220.976C405.025 220.808 405.464 220.724 405.94 220.724C406.5 220.724 406.999 220.836 407.438 221.06C407.886 221.284 408.25 221.583 408.53 221.956H411.498V220.57H412.604V227.738ZM411.498 224.714V222.88H409.02C409.057 223.039 409.09 223.198 409.118 223.356C409.146 223.515 409.16 223.678 409.16 223.846C409.16 224.005 409.146 224.154 409.118 224.294C409.099 224.434 409.071 224.574 409.034 224.714H411.498ZM406.808 225.806C407.2 225.638 407.498 225.382 407.704 225.036C407.909 224.691 408.012 224.29 408.012 223.832C408.012 223.244 407.83 222.74 407.466 222.32C407.102 221.9 406.593 221.69 405.94 221.69C405.604 221.69 405.305 221.746 405.044 221.858C404.782 221.97 404.563 222.124 404.386 222.32C404.208 222.516 404.073 222.745 403.98 223.006C403.886 223.268 403.84 223.543 403.84 223.832C403.84 224.131 403.886 224.411 403.98 224.672C404.073 224.934 404.208 225.162 404.386 225.358C404.563 225.545 404.782 225.694 405.044 225.806C405.305 225.918 405.604 225.974 405.94 225.974C406.266 225.974 406.556 225.918 406.808 225.806ZM413.052 233.072C412.576 232.774 412.128 232.41 411.708 231.98C411.297 231.551 410.966 231.094 410.714 230.608C410.48 231.066 410.177 231.5 409.804 231.91C409.43 232.33 409.015 232.699 408.558 233.016C408.11 232.68 407.694 232.307 407.312 231.896C406.929 231.495 406.626 231.056 406.402 230.58C406.159 231.066 405.832 231.528 405.422 231.966C405.02 232.405 404.577 232.774 404.092 233.072L403.266 232.33C403.592 232.181 403.91 231.976 404.218 231.714C404.535 231.462 404.815 231.178 405.058 230.86C405.3 230.552 405.496 230.221 405.646 229.866C405.795 229.512 405.87 229.157 405.87 228.802V228.298H406.948V228.816C406.948 229.348 407.097 229.876 407.396 230.398C407.704 230.912 408.096 231.355 408.572 231.728C408.936 231.43 409.304 230.986 409.678 230.398C410.004 229.848 410.168 229.297 410.168 228.746V228.298H411.246V228.788C411.246 229.152 411.32 229.512 411.47 229.866C411.619 230.221 411.815 230.552 412.058 230.86C412.3 231.178 412.58 231.462 412.898 231.714C413.224 231.966 413.556 232.172 413.892 232.33L413.052 233.072ZM424.225 232.988H423.119V220.57H424.225V224.882H426.045V225.876H424.225V232.988ZM422.503 229.264C422.195 229.339 421.845 229.409 421.453 229.474C421.07 229.53 420.664 229.582 420.235 229.628C419.815 229.666 419.39 229.698 418.961 229.726C418.531 229.754 418.13 229.768 417.757 229.768L415.643 229.782C415.531 229.782 415.451 229.764 415.405 229.726C415.367 229.68 415.349 229.6 415.349 229.488V221.592C415.349 221.48 415.367 221.406 415.405 221.368C415.451 221.322 415.531 221.298 415.643 221.298H420.935V222.236H416.455V228.816L418.709 228.774C418.989 228.774 419.287 228.76 419.605 228.732C419.931 228.695 420.263 228.658 420.599 228.62C420.935 228.574 421.266 228.527 421.593 228.48C421.919 228.434 422.223 228.382 422.503 228.326V229.264ZM428.958 231.924H427.516V230.482H428.958V231.924Z" fill="white" fill-opacity="0.9"/>
<path d="M197.286 15.724C197.902 15.7387 198.43 15.7093 198.87 15.636C199.325 15.5627 199.699 15.4233 199.992 15.218C200.286 15.0127 200.506 14.734 200.652 14.382C200.799 14.0153 200.872 13.5533 200.872 12.996C200.872 12.3947 200.77 11.9107 200.564 11.544C200.374 11.1773 200.095 10.8987 199.728 10.708C199.376 10.5173 198.936 10.3927 198.408 10.334C197.895 10.2753 197.323 10.246 196.692 10.246H194.492V15.724H197.286ZM197.33 8.2C197.712 8.2 198.078 8.16333 198.43 8.09C198.782 8.002 199.09 7.86267 199.354 7.672C199.618 7.48133 199.831 7.22467 199.992 6.902C200.154 6.57933 200.234 6.176 200.234 5.692C200.234 5.17867 200.154 4.768 199.992 4.46C199.831 4.13733 199.611 3.89533 199.332 3.734C199.054 3.558 198.724 3.44067 198.342 3.382C197.976 3.32333 197.587 3.28667 197.176 3.272L194.492 3.272V8.2H197.33ZM192.644 17.814C192.41 17.814 192.248 17.77 192.16 17.682C192.087 17.6087 192.05 17.4547 192.05 17.22V1.798C192.05 1.56333 192.087 1.40933 192.16 1.336C192.248 1.248 192.41 1.204 192.644 1.204L198.012 1.204C198.628 1.204 199.222 1.30667 199.794 1.512C200.366 1.70267 200.872 1.98867 201.312 2.37C201.752 2.73667 202.104 3.19133 202.368 3.734C202.647 4.262 202.786 4.86333 202.786 5.538C202.786 5.94867 202.72 6.352 202.588 6.748C202.471 7.12933 202.302 7.48867 202.082 7.826C201.862 8.14867 201.591 8.42733 201.268 8.662C200.96 8.89667 200.623 9.06533 200.256 9.168C201.224 9.41733 201.987 9.90133 202.544 10.62C203.116 11.3387 203.402 12.1893 203.402 13.172C203.402 13.7293 203.307 14.2867 203.116 14.844C202.94 15.3867 202.647 15.878 202.236 16.318C201.84 16.758 201.327 17.1173 200.696 17.396C200.066 17.6747 199.303 17.814 198.408 17.814L192.644 17.814ZM208.574 17.858H206.176V6.33L208.618 6.33L208.574 7.562C208.706 7.386 208.852 7.21 209.014 7.034C209.175 6.84333 209.351 6.67467 209.542 6.528C209.747 6.36667 209.967 6.23467 210.202 6.132C210.451 6.02933 210.73 5.978 211.038 5.978C211.243 5.978 211.463 5.99267 211.698 6.022C211.947 6.03667 212.204 6.09533 212.468 6.198V8.552C212.174 8.42 211.918 8.33933 211.698 8.31C211.492 8.266 211.302 8.244 211.126 8.244C210.788 8.244 210.466 8.29533 210.158 8.398C209.864 8.50067 209.593 8.67667 209.344 8.926C209.109 9.17533 208.918 9.50533 208.772 9.916C208.64 10.312 208.574 10.8107 208.574 11.412V17.858ZM216.891 16.208C217.448 16.208 217.917 16.1053 218.299 15.9C218.856 15.5627 219.215 15.0933 219.377 14.492C219.553 13.9053 219.641 13.2307 219.641 12.468C219.333 12.468 218.915 12.468 218.387 12.468C217.873 12.4533 217.367 12.5047 216.869 12.622C216.385 12.7393 215.959 12.9447 215.593 13.238C215.241 13.5313 215.065 13.9787 215.065 14.58C215.065 15.2253 215.211 15.658 215.505 15.878C215.813 16.098 216.275 16.208 216.891 16.208ZM221.907 15.9C221.907 16.1493 221.914 16.4427 221.929 16.78C221.958 17.1173 222.009 17.4767 222.083 17.858H219.685L219.663 16.758C219.575 16.9193 219.435 17.0807 219.245 17.242C219.069 17.418 218.849 17.5793 218.585 17.726C218.321 17.8727 218.02 17.99 217.683 18.078C217.36 18.166 217.015 18.21 216.649 18.21C215.226 18.21 214.185 17.8947 213.525 17.264C212.865 16.6333 212.535 15.724 212.535 14.536C212.535 13.7293 212.755 13.0253 213.195 12.424C213.635 11.808 214.214 11.3533 214.933 11.06C215.329 10.884 215.747 10.7593 216.187 10.686C216.627 10.598 217.059 10.5393 217.485 10.51C217.91 10.4807 218.306 10.4733 218.673 10.488C219.039 10.488 219.34 10.488 219.575 10.488V9.982C219.516 9.17533 219.318 8.64 218.981 8.376C218.643 8.09733 218.137 7.958 217.463 7.958C217.169 7.958 216.905 7.98733 216.671 8.046C216.451 8.09 216.253 8.18533 216.077 8.332C215.915 8.464 215.783 8.662 215.681 8.926C215.578 9.17533 215.505 9.50533 215.461 9.916H212.909C212.938 9.212 213.092 8.618 213.371 8.134C213.649 7.63533 214.001 7.22467 214.427 6.902C214.852 6.57933 215.329 6.34467 215.857 6.198C216.399 6.05133 216.949 5.978 217.507 5.978C218.167 5.978 218.768 6.066 219.311 6.242C219.853 6.40333 220.315 6.66 220.697 7.012C221.093 7.34933 221.393 7.77467 221.599 8.288C221.819 8.78667 221.921 9.37333 221.907 10.048V15.9ZM234.158 17.858H231.716V10.884C231.716 10.3413 231.679 9.88667 231.606 9.52C231.532 9.13867 231.415 8.838 231.254 8.618C231.092 8.38333 230.872 8.21467 230.594 8.112C230.315 8.00933 229.978 7.958 229.582 7.958C229.274 7.958 228.966 8.024 228.658 8.156C228.364 8.288 228.093 8.49333 227.844 8.772C227.609 9.05067 227.418 9.41 227.272 9.85C227.125 10.2753 227.052 10.7887 227.052 11.39V17.858H224.72V6.33H227.096V7.342C227.785 6.43267 228.812 5.978 230.176 5.978C231.51 5.978 232.508 6.35933 233.168 7.122C233.828 7.88467 234.158 8.95533 234.158 10.334V17.858ZM242.903 15.812C243.475 15.4747 243.879 14.9687 244.113 14.294C244.363 13.6047 244.487 12.776 244.487 11.808C244.487 11.2653 244.436 10.7593 244.333 10.29C244.231 9.806 244.062 9.388 243.827 9.036C243.593 8.684 243.292 8.41267 242.925 8.222C242.573 8.01667 242.141 7.914 241.627 7.914C241.114 7.914 240.681 8.01667 240.329 8.222C239.992 8.42733 239.713 8.71333 239.493 9.08C239.273 9.432 239.112 9.85 239.009 10.334C238.921 10.818 238.877 11.3313 238.877 11.874C238.877 12.3873 238.914 12.9007 238.987 13.414C239.075 13.9127 239.215 14.3673 239.405 14.778C239.611 15.174 239.882 15.504 240.219 15.768C240.557 16.0173 240.982 16.142 241.495 16.142C242.053 16.142 242.522 16.032 242.903 15.812ZM244.553 17.814L244.509 16.956C244.451 17.0587 244.341 17.176 244.179 17.308C244.018 17.4547 243.805 17.5867 243.541 17.704C243.292 17.836 242.984 17.946 242.617 18.034C242.251 18.122 241.833 18.166 241.363 18.166C240.483 18.166 239.721 17.99 239.075 17.638C238.445 17.286 237.924 16.824 237.513 16.252C237.103 15.68 236.802 15.0273 236.611 14.294C236.421 13.546 236.325 12.776 236.325 11.984C236.325 11.2213 236.413 10.4807 236.589 9.762C236.78 9.02867 237.073 8.38333 237.469 7.826C237.865 7.254 238.379 6.79933 239.009 6.462C239.655 6.11 240.432 5.934 241.341 5.934C242.045 5.934 242.676 6.05867 243.233 6.308C243.791 6.55733 244.194 6.85067 244.443 7.188V1.028L246.753 1.028V15.548C246.753 15.8413 246.768 16.186 246.797 16.582C246.827 16.978 246.885 17.3887 246.973 17.814H244.553ZM258.646 17.814H256.204V1.116L258.646 1.116V17.814ZM267.868 15.812C268.44 15.4747 268.843 14.9687 269.078 14.294C269.327 13.6047 269.452 12.776 269.452 11.808C269.452 11.2653 269.401 10.7593 269.298 10.29C269.195 9.806 269.027 9.388 268.792 9.036C268.557 8.684 268.257 8.41267 267.89 8.222C267.538 8.01667 267.105 7.914 266.592 7.914C266.079 7.914 265.646 8.01667 265.294 8.222C264.957 8.42733 264.678 8.71333 264.458 9.08C264.238 9.432 264.077 9.85 263.974 10.334C263.886 10.818 263.842 11.3313 263.842 11.874C263.842 12.3873 263.879 12.9007 263.952 13.414C264.04 13.9127 264.179 14.3673 264.37 14.778C264.575 15.174 264.847 15.504 265.184 15.768C265.521 16.0173 265.947 16.142 266.46 16.142C267.017 16.142 267.487 16.032 267.868 15.812ZM269.518 17.814L269.474 16.956C269.415 17.0587 269.305 17.176 269.144 17.308C268.983 17.4547 268.77 17.5867 268.506 17.704C268.257 17.836 267.949 17.946 267.582 18.034C267.215 18.122 266.797 18.166 266.328 18.166C265.448 18.166 264.685 17.99 264.04 17.638C263.409 17.286 262.889 16.824 262.478 16.252C262.067 15.68 261.767 15.0273 261.576 14.294C261.385 13.546 261.29 12.776 261.29 11.984C261.29 11.2213 261.378 10.4807 261.554 9.762C261.745 9.02867 262.038 8.38333 262.434 7.826C262.83 7.254 263.343 6.79933 263.974 6.462C264.619 6.11 265.397 5.934 266.306 5.934C267.01 5.934 267.641 6.05867 268.198 6.308C268.755 6.55733 269.159 6.85067 269.408 7.188V1.028L271.718 1.028V15.548C271.718 15.8413 271.733 16.186 271.762 16.582C271.791 16.978 271.85 17.3887 271.938 17.814H269.518ZM281.85 10.818C281.791 9.982 281.534 9.3 281.08 8.772C280.625 8.22933 279.936 7.958 279.012 7.958C278.572 7.958 278.183 8.03867 277.846 8.2C277.523 8.36133 277.244 8.574 277.01 8.838C276.775 9.102 276.592 9.41 276.46 9.762C276.342 10.0993 276.269 10.4513 276.24 10.818L281.85 10.818ZM284.38 13.612C283.969 15.24 283.294 16.4133 282.356 17.132C281.432 17.8507 280.258 18.21 278.836 18.21C277.956 18.21 277.186 18.034 276.526 17.682C275.866 17.3447 275.323 16.89 274.898 16.318C274.472 15.746 274.15 15.0933 273.93 14.36C273.724 13.6267 273.622 12.8713 273.622 12.094C273.622 11.3167 273.732 10.5613 273.952 9.828C274.172 9.09467 274.502 8.442 274.942 7.87C275.396 7.298 275.954 6.84333 276.614 6.506C277.288 6.154 278.066 5.978 278.946 5.978C279.884 5.978 280.698 6.13933 281.388 6.462C282.077 6.78467 282.642 7.22467 283.082 7.782C283.522 8.33933 283.844 8.99933 284.05 9.762C284.27 10.51 284.38 11.3093 284.38 12.16C284.38 12.5707 284.204 12.776 283.852 12.776L276.174 12.776C276.174 13.2453 276.232 13.6927 276.35 14.118C276.467 14.5287 276.643 14.888 276.878 15.196C277.127 15.504 277.442 15.7533 277.824 15.944C278.205 16.12 278.667 16.208 279.21 16.208C280.486 16.208 281.344 15.3427 281.784 13.612H284.38ZM296.183 17.858H293.741V10.884C293.741 10.3413 293.704 9.88667 293.631 9.52C293.558 9.13867 293.44 8.838 293.279 8.618C293.118 8.38333 292.898 8.21467 292.619 8.112C292.34 8.00933 292.003 7.958 291.607 7.958C291.299 7.958 290.991 8.024 290.683 8.156C290.39 8.288 290.118 8.49333 289.869 8.772C289.634 9.05067 289.444 9.41 289.297 9.85C289.15 10.2753 289.077 10.7887 289.077 11.39V17.858H286.745V6.33H289.121V7.342C289.81 6.43267 290.837 5.978 292.201 5.978C293.536 5.978 294.533 6.35933 295.193 7.122C295.853 7.88467 296.183 8.95533 296.183 10.334V17.858ZM304.819 17.88C304.569 17.9827 304.269 18.056 303.917 18.1C303.565 18.1587 303.264 18.188 303.015 18.188C302.589 18.188 302.186 18.1367 301.805 18.034C301.438 17.946 301.108 17.7847 300.815 17.55C300.536 17.33 300.316 17.0367 300.155 16.67C299.993 16.2887 299.913 15.812 299.913 15.24V8.266L297.779 8.266V6.264H299.913V3.118L302.267 3.118V6.264H304.687V8.266H302.267V14.778C302.267 15.394 302.34 15.79 302.487 15.966C302.648 16.142 302.905 16.23 303.257 16.23C303.462 16.23 303.697 16.2153 303.961 16.186C304.239 16.1567 304.525 16.0613 304.819 15.9V17.88ZM308.907 17.814H306.509V6.044L308.907 6.044V17.814ZM308.995 3.602L306.421 3.602V1.16L308.995 1.16V3.602ZM317.43 17.88C317.181 17.9827 316.88 18.056 316.528 18.1C316.176 18.1587 315.875 18.188 315.626 18.188C315.201 18.188 314.797 18.1367 314.416 18.034C314.049 17.946 313.719 17.7847 313.426 17.55C313.147 17.33 312.927 17.0367 312.766 16.67C312.605 16.2887 312.524 15.812 312.524 15.24V8.266H310.39V6.264H312.524V3.118L314.878 3.118V6.264H317.298V8.266H314.878V14.778C314.878 15.394 314.951 15.79 315.098 15.966C315.259 16.142 315.516 16.23 315.868 16.23C316.073 16.23 316.308 16.2153 316.572 16.186C316.851 16.1567 317.137 16.0613 317.43 15.9V17.88ZM322.728 22.126H320.198L322.002 17.506L317.448 6.352L320.088 6.352L323.278 14.712L326.468 6.352H329.042L322.728 22.126Z" fill="#FF5924"/>
<g clip-path="url(#clip0)">
<rect x="3.06592" y="41.0654" width="509.97" height="137" fill="#EFEFEF"/>
<path opacity="0.85" d="M262.535 96.8955H251.302C245.761 96.8955 241.282 101.294 241.282 106.736V131.041C241.282 136.483 245.761 140.881 251.302 140.881H276.046C281.587 140.881 286.065 136.483 286.065 131.041V113.67L262.573 96.9328L262.535 96.8955Z" fill="#7C7CCE"/>
<path d="M276.008 96.8955H262.535V96.9328L286.027 113.67V106.736C286.027 101.294 281.549 96.8955 276.008 96.8955Z" fill="#FFC8BB"/>
<path d="M262.535 96.9336L286.027 123.027V113.633L262.535 96.9336Z" fill="#FFA28D"/>
<path d="M260.638 116.95C262.687 116.95 264.433 117.658 265.913 119.075C267.393 120.528 268.114 122.243 268.114 124.256V131.823H264.547V124.256C264.547 123.175 264.167 122.28 263.408 121.535C262.649 120.789 261.738 120.379 260.638 120.379C259.575 120.379 258.626 120.752 257.867 121.535C257.108 122.28 256.729 123.175 256.729 124.256V131.823H253.085V105.916H256.653V118.068C257.867 117.323 259.196 116.95 260.638 116.95Z" fill="#F7F7F7"/>
<path d="M274.187 105.916H270.581V125.076H274.187V105.916Z" fill="#F7F7F7"/>
<path d="M274.187 127.909H270.581V131.823H274.187V127.909Z" fill="#F7F7F7"/>
<path d="M333.125 96.8955H321.892C316.351 96.8955 311.872 101.294 311.872 106.736V131.041C311.872 136.483 316.351 140.881 321.892 140.881H346.636C352.177 140.881 356.655 136.483 356.655 131.041V113.67L333.163 96.9328L333.125 96.8955Z" fill="#FF6E5F"/>
<path d="M346.598 96.8955H333.125V96.9328L356.617 113.67V106.736C356.617 101.294 352.139 96.8955 346.598 96.8955Z" fill="#E3D9FF"/>
<path d="M333.125 96.9336L356.617 123.027V113.633L333.125 96.9336Z" fill="#FFA28D"/>
<path d="M331.227 116.95C333.277 116.95 335.023 117.658 336.503 119.075C337.983 120.528 338.704 122.243 338.704 124.256V131.823H335.136V124.256C335.136 123.175 334.757 122.28 333.998 121.535C333.239 120.789 332.328 120.379 331.227 120.379C330.165 120.379 329.216 120.752 328.457 121.535C327.698 122.28 327.318 123.175 327.318 124.256V131.823H323.675V105.916H327.243V118.068C328.457 117.323 329.785 116.95 331.227 116.95Z" fill="#F7F7F7"/>
<path d="M344.776 105.916H341.171V125.076H344.776V105.916Z" fill="#F7F7F7"/>
<path d="M344.776 127.909H341.171V131.823H344.776V127.909Z" fill="#F7F7F7"/>
<path opacity="0.4" d="M80.9965 156.535C80.9965 138.068 67.0392 123.11 49.8424 123.11C39.0641 123.259 29.1941 128.969 23.805 138.128C22.2004 137.771 20.5352 137.592 18.9003 137.592C12.9056 137.711 7.33484 140.001 3.06592 143.778V178.005H73.6999C78.4533 171.88 81.0267 164.297 80.9965 156.535Z" fill="#B197FF"/>
<path d="M66.4639 101.7V127.839H62.8611V121H52.2342V127.839H48.6011V101.7H52.2342V117.402H62.8611V101.7H66.4639Z" fill="#36343E"/>
<path d="M69.7336 101.7H73.3668V121.029H69.7336V101.7ZM69.7336 123.914H73.3668V127.869H69.7336V123.914Z" fill="#36343E"/>
<path d="M92.0775 112.821C93.8335 112.821 95.317 113.416 96.5281 114.635C97.7694 115.855 98.3749 117.312 98.3749 119.036V127.839H94.8023V119.036C94.8023 118.293 94.5299 117.639 93.9849 117.133C93.4399 116.598 92.8041 116.36 92.0472 116.36C91.2903 116.36 90.6545 116.628 90.1096 117.133C89.5646 117.668 89.2921 118.293 89.2921 119.036V127.839H85.6893V119.036C85.6893 118.293 85.4168 117.639 84.9021 117.133C84.3571 116.598 83.7213 116.36 82.9644 116.36C82.2075 116.36 81.5717 116.628 81.0267 117.133C80.4818 117.668 80.2396 118.293 80.2396 119.036V127.839H76.667V119.036C76.667 117.312 77.2725 115.855 78.5138 114.635C79.7551 113.416 81.2387 112.821 82.9644 112.821C84.7507 112.821 86.2645 113.446 87.5058 114.724C88.7774 113.476 90.2912 112.821 92.0775 112.821Z" fill="#36343E"/>
<path d="M113.392 126.739C112.181 127.482 110.818 127.869 109.335 127.869C107.246 127.869 105.429 127.126 103.946 125.668C102.432 124.211 101.675 122.427 101.675 120.375C101.675 118.323 102.432 116.539 103.946 115.082C105.429 113.595 107.215 112.852 109.335 112.852C111.454 112.852 113.24 113.595 114.754 115.082C116.238 116.539 116.994 118.294 116.994 120.375V127.869H113.392V126.739ZM106.489 117.55C105.732 118.323 105.338 119.245 105.338 120.316C105.338 121.386 105.732 122.308 106.489 123.081C107.276 123.854 108.214 124.241 109.304 124.241C110.425 124.241 111.363 123.854 112.15 123.081C112.937 122.308 113.331 121.386 113.331 120.316C113.331 119.245 112.937 118.323 112.15 117.55C111.363 116.777 110.425 116.39 109.304 116.39C108.214 116.42 107.276 116.807 106.489 117.55Z" fill="#36343E"/>
<path d="M127.803 127.839C125.714 127.839 123.958 127.125 122.475 125.668C120.991 124.24 120.264 122.486 120.264 120.434V112.821H123.898V120.464C123.898 121.534 124.291 122.426 125.048 123.2C125.835 123.943 126.743 124.33 127.833 124.33C128.923 124.33 129.832 123.943 130.619 123.2C131.376 122.456 131.769 121.534 131.769 120.464V112.851H135.402V120.464C135.402 122.516 134.676 124.24 133.192 125.698C131.739 127.155 129.953 127.868 127.864 127.868H127.803V127.839Z" fill="#36343E"/>
<path d="M146.241 112.821C148.33 112.821 150.117 113.565 151.6 115.022C153.084 116.479 153.841 118.233 153.841 120.285V127.839H150.238V120.285C150.238 119.215 149.844 118.293 149.057 117.52C148.27 116.776 147.331 116.39 146.272 116.39C145.182 116.39 144.243 116.776 143.456 117.52C142.669 118.293 142.275 119.215 142.275 120.285V127.839H138.672V120.285C138.672 118.233 139.429 116.479 140.913 115.022C142.366 113.565 144.152 112.821 146.241 112.821Z" fill="#36343E"/>
<path d="M164.649 110.086H161.712V127.839H158.291V110.086H155.354V106.726H158.291V101.7H161.712V106.726H164.649V110.086Z" fill="#36343E"/>
<path d="M177.456 126.739C176.245 127.482 174.883 127.869 173.399 127.869C171.31 127.869 169.493 127.126 168.01 125.668C166.496 124.211 165.739 122.427 165.739 120.375C165.739 118.323 166.496 116.539 168.01 115.082C169.493 113.595 171.28 112.852 173.399 112.852C175.518 112.852 177.305 113.595 178.818 115.082C180.302 116.539 181.059 118.294 181.059 120.375V127.869H177.456V126.739ZM170.553 117.55C169.796 118.323 169.403 119.245 169.403 120.316C169.403 121.386 169.796 122.308 170.553 123.081C171.34 123.854 172.279 124.241 173.369 124.241C174.489 124.241 175.428 123.854 176.215 123.081C177.002 122.308 177.396 121.386 177.396 120.316C177.396 119.245 177.002 118.323 176.215 117.55C175.428 116.777 174.489 116.39 173.369 116.39C172.309 116.42 171.34 116.807 170.553 117.55Z" fill="#36343E"/>
<path d="M188.174 116.658C187.75 117.104 187.205 117.312 186.599 117.312C185.964 117.312 185.449 117.104 184.995 116.658C184.541 116.212 184.329 115.677 184.329 115.082C184.329 114.457 184.541 113.952 184.995 113.506C185.449 113.06 185.964 112.852 186.599 112.852C187.205 112.852 187.75 113.06 188.174 113.506C188.628 113.952 188.84 114.457 188.84 115.082C188.84 115.677 188.628 116.212 188.174 116.658ZM188.386 127.839H184.783V118.888H188.386V127.839Z" fill="#36343E"/>
<path d="M199.739 112.821C201.828 112.821 203.615 113.565 205.098 115.022C206.582 116.479 207.338 118.233 207.338 120.285V127.839H203.736V120.285C203.736 119.215 203.342 118.293 202.555 117.52C201.768 116.776 200.829 116.39 199.769 116.39C198.68 116.39 197.741 116.776 196.954 117.52C196.167 118.293 195.773 119.215 195.773 120.285V127.839H192.17V120.285C192.17 118.233 192.927 116.479 194.411 115.022C195.864 113.565 197.65 112.821 199.739 112.821Z" fill="#36343E"/>
<path opacity="0.6" d="M468.984 41.0654C464.927 44.0986 461.475 47.905 458.841 52.3656C456.783 51.9196 454.694 51.6817 452.605 51.6817C440.403 51.9196 429.504 59.2052 424.781 70.2378C421.541 68.4833 417.878 67.5317 414.184 67.5317C401.165 67.5317 390.599 78.8616 390.599 92.8382C390.599 96.3174 391.265 99.7967 392.597 103.008H512.975L513.066 41.0654H468.984Z" fill="#948CFF"/>
</g>
<defs>
<clipPath id="clip0">
<rect width="510" height="137" fill="white" transform="translate(3.03564 41.0654)"/>
</clipPath>
</defs>
</svg>
