<svg width="353" height="293" viewBox="0 0 353 293" fill="none" xmlns="http://www.w3.org/2000/svg">
<path d="M201.811 224.672H151.189" stroke="#DCDCDC" stroke-opacity="0.7"/>
<path d="M36.8764 266.161H35.7704L35.7704 257.145C35.5184 257.416 35.2058 257.672 34.8324 257.915C34.4591 258.158 34.0438 258.396 33.5864 258.629V257.565C34.0064 257.378 34.3984 257.15 34.7624 256.879C35.1358 256.599 35.4858 256.286 35.8124 255.941H36.6104C36.7131 255.941 36.7831 255.96 36.8204 255.997C36.8578 256.034 36.8764 256.104 36.8764 256.207L36.8764 266.161ZM42.5811 266.483H41.1391V265.041H42.5811V266.483ZM49.247 261.947C50.703 261.462 51.893 260.762 52.817 259.847C53.7503 258.942 54.301 257.882 54.469 256.669H50.059V255.703H55.407C55.519 255.703 55.5937 255.726 55.631 255.773C55.6777 255.81 55.701 255.885 55.701 255.997C55.6263 256.846 55.435 257.616 55.127 258.307C54.8283 258.998 54.427 259.623 53.923 260.183C53.4097 260.771 52.8263 261.28 52.173 261.709C51.5197 262.129 50.7963 262.484 50.003 262.773L49.247 261.947ZM59.103 264.201H58.025L58.025 255.129H59.103V258.867H60.825V259.847H59.103L59.103 264.201ZM59.509 267.281H51.641C51.529 267.281 51.4497 267.258 51.403 267.211C51.3657 267.174 51.347 267.099 51.347 266.987V263.291H52.453V266.329H59.509V267.281ZM69.604 261.149C69.184 261.233 68.7313 261.308 68.246 261.373C67.77 261.429 67.266 261.48 66.734 261.527C66.202 261.564 65.656 261.592 65.096 261.611C64.5453 261.63 64.004 261.639 63.472 261.639H62.506C62.3846 261.639 62.3053 261.62 62.268 261.583C62.2306 261.546 62.212 261.471 62.212 261.359L62.212 255.997C62.212 255.885 62.2306 255.81 62.268 255.773C62.3146 255.726 62.394 255.703 62.506 255.703H67.896V256.669H63.304V260.645H63.99C64.9233 260.645 65.88 260.612 66.86 260.547C67.84 260.472 68.7546 260.351 69.604 260.183V261.149ZM71.284 264.229H70.178V255.129H71.284V258.195H72.964V259.175H71.284V264.229ZM71.718 267.281H63.766C63.654 267.281 63.5746 267.258 63.528 267.211C63.4906 267.174 63.472 267.099 63.472 266.987V263.207H64.592V266.329H71.718V267.281ZM81.155 257.775H74.043V256.893H81.155V257.775ZM79.405 255.997H75.737V255.101H79.405V255.997ZM83.633 264.271H82.541V255.129H83.633V258.909H85.369V259.889H83.633V264.271ZM84.039 267.281H76.143C76.031 267.281 75.9516 267.258 75.905 267.211C75.8676 267.174 75.849 267.099 75.849 266.987V263.823H76.983V266.343H84.039V267.281ZM80.651 260.687C80.651 261.387 80.3663 261.938 79.797 262.339C79.2183 262.75 78.481 262.955 77.585 262.955C77.1183 262.955 76.6983 262.904 76.325 262.801C75.9516 262.689 75.6296 262.535 75.359 262.339C75.0883 262.143 74.8783 261.905 74.729 261.625C74.589 261.345 74.519 261.032 74.519 260.687C74.519 260.351 74.589 260.043 74.729 259.763C74.8783 259.483 75.0883 259.245 75.359 259.049C75.6296 258.844 75.9516 258.69 76.325 258.587C76.6983 258.475 77.1183 258.419 77.585 258.419C78.4716 258.419 79.2043 258.629 79.783 259.049C80.3616 259.46 80.651 260.006 80.651 260.687ZM78.971 261.751C79.3256 261.499 79.503 261.144 79.503 260.687C79.503 260.239 79.3256 259.889 78.971 259.637C78.6256 259.385 78.1683 259.259 77.599 259.259C77.0016 259.259 76.5256 259.385 76.171 259.637C75.8256 259.889 75.653 260.239 75.653 260.687C75.653 261.144 75.8256 261.499 76.171 261.751C76.5256 261.994 77.0016 262.115 77.599 262.115C78.159 262.115 78.6163 261.994 78.971 261.751ZM90.2705 264.215C91.2038 263.711 92.0205 263.114 92.7205 262.423C93.4205 261.723 93.9945 260.92 94.4425 260.015C94.1065 260.09 93.7518 260.141 93.3785 260.169C93.0145 260.188 92.6458 260.197 92.2725 260.197H90.5925V259.287H92.7205C93.1125 259.287 93.4718 259.278 93.7985 259.259C94.1252 259.24 94.4658 259.194 94.8205 259.119C95.0538 258.382 95.2218 257.602 95.3245 256.781H91.0265V255.843H96.2485C96.3605 255.843 96.4352 255.866 96.4725 255.913C96.5192 255.95 96.5425 256.025 96.5425 256.137C96.4865 256.986 96.3418 257.812 96.1085 258.615C95.8845 259.408 95.5578 260.183 95.1285 260.939C94.6992 261.695 94.1625 262.409 93.5185 263.081C92.8745 263.753 92.1138 264.374 91.2365 264.943L90.2705 264.215ZM100.224 267.547H99.1045V255.129H100.224V267.547ZM109.255 259.133C109.097 259.46 108.887 259.74 108.625 259.973C108.355 260.216 108.023 260.407 107.631 260.547C107.249 260.678 106.819 260.743 106.343 260.743C105.839 260.743 105.396 260.678 105.013 260.547C104.631 260.407 104.304 260.216 104.033 259.973C103.483 259.478 103.207 258.839 103.207 258.055C103.207 257.682 103.277 257.332 103.417 257.005C103.557 256.669 103.763 256.375 104.033 256.123C104.304 255.871 104.631 255.67 105.013 255.521C105.396 255.372 105.839 255.297 106.343 255.297C106.829 255.297 107.263 255.372 107.645 255.521C108.037 255.67 108.369 255.871 108.639 256.123C108.91 256.375 109.115 256.669 109.255 257.005C109.405 257.332 109.479 257.682 109.479 258.055C109.479 258.484 109.405 258.844 109.255 259.133ZM112.545 267.533H111.439V264.999H108.499V264.047H111.439V255.129H112.545V267.533ZM106.609 267.267H105.531V262.759H105.321C105.219 262.759 105.097 262.764 104.957 262.773C104.817 262.773 104.663 262.773 104.495 262.773H102.465V261.793H105.083C105.41 261.793 105.741 261.793 106.077 261.793C106.413 261.784 106.679 261.77 106.875 261.751C107.155 261.751 107.482 261.742 107.855 261.723C108.238 261.704 108.616 261.681 108.989 261.653C109.363 261.634 109.717 261.611 110.053 261.583C110.389 261.546 110.66 261.508 110.865 261.471V262.423C110.623 262.46 110.338 262.498 110.011 262.535C109.685 262.572 109.325 262.605 108.933 262.633C108.541 262.661 108.145 262.689 107.743 262.717C107.351 262.736 106.973 262.745 106.609 262.745V267.267ZM106.329 259.847C107.029 259.847 107.543 259.674 107.869 259.329C108.205 258.974 108.373 258.545 108.373 258.041C108.373 257.789 108.331 257.551 108.247 257.327C108.163 257.103 108.037 256.907 107.869 256.739C107.701 256.571 107.487 256.44 107.225 256.347C106.973 256.244 106.675 256.193 106.329 256.193C105.975 256.193 105.671 256.244 105.419 256.347C105.167 256.44 104.957 256.571 104.789 256.739C104.631 256.907 104.509 257.103 104.425 257.327C104.351 257.551 104.313 257.789 104.313 258.041C104.313 258.545 104.472 258.974 104.789 259.329C105.116 259.674 105.629 259.847 106.329 259.847ZM124.362 261.891H116.06C115.939 261.891 115.86 261.872 115.822 261.835C115.785 261.798 115.766 261.723 115.766 261.611V256.095C115.766 255.983 115.785 255.908 115.822 255.871C115.869 255.824 115.948 255.801 116.06 255.801H124.236V256.753H116.872V260.939H124.362V261.891ZM125.636 265.839H114.24V264.887H125.636V265.839ZM141.892 260.953H130.538V260.071H138.896C138.961 259.791 139.022 259.506 139.078 259.217L139.246 258.349C138.63 258.452 137.953 258.522 137.216 258.559C136.479 258.587 135.732 258.601 134.976 258.601H131.84V257.789H135.704C136.385 257.789 137.011 257.78 137.58 257.761C138.149 257.742 138.737 257.696 139.344 257.621C139.372 257.425 139.395 257.22 139.414 257.005L139.47 256.361H132.008V255.479H140.31C140.422 255.479 140.497 255.502 140.534 255.549C140.581 255.586 140.604 255.661 140.604 255.773C140.576 256.1 140.539 256.45 140.492 256.823C140.445 257.187 140.394 257.565 140.338 257.957C140.282 258.349 140.221 258.727 140.156 259.091C140.091 259.446 140.025 259.772 139.96 260.071H141.892V260.953ZM140.66 267.421H132.358C132.246 267.421 132.167 267.398 132.12 267.351C132.083 267.314 132.064 267.239 132.064 267.127V264.607C132.064 264.495 132.083 264.42 132.12 264.383C132.167 264.336 132.246 264.313 132.358 264.313H139.148V262.969H132.064V262.087H140.072C140.184 262.087 140.259 262.11 140.296 262.157C140.343 262.194 140.366 262.269 140.366 262.381V264.859C140.366 264.971 140.343 265.05 140.296 265.097C140.259 265.134 140.184 265.153 140.072 265.153H133.282V266.553H140.66V267.421ZM151.273 261.639C151.002 261.695 150.662 261.751 150.251 261.807C149.84 261.863 149.392 261.914 148.907 261.961C148.403 262.008 147.876 262.045 147.325 262.073C146.784 262.101 146.242 262.115 145.701 262.115H143.937C143.825 262.115 143.746 262.096 143.699 262.059C143.662 262.012 143.643 261.933 143.643 261.821V258.643C143.643 258.531 143.662 258.456 143.699 258.419C143.746 258.372 143.825 258.349 143.937 258.349H148.249V256.529H143.643V255.605H149.019C149.131 255.605 149.206 255.628 149.243 255.675C149.29 255.712 149.313 255.787 149.313 255.899V258.965C149.313 259.077 149.29 259.156 149.243 259.203C149.206 259.24 149.131 259.259 149.019 259.259H144.721V261.149H146.093C146.597 261.149 147.101 261.135 147.605 261.107C148.109 261.079 148.599 261.046 149.075 261.009C149.532 260.962 149.948 260.916 150.321 260.869C150.704 260.813 151.021 260.757 151.273 260.701V261.639ZM153.037 262.787H151.945V255.129H153.037V262.787ZM153.037 267.645H151.903V264.383H144.763V263.417H152.743C152.855 263.417 152.93 263.44 152.967 263.487C153.014 263.524 153.037 263.599 153.037 263.711V267.645ZM162.894 260.687C163.174 260.472 163.393 260.211 163.552 259.903C163.72 259.595 163.804 259.245 163.804 258.853C163.804 258.06 163.51 257.444 162.922 257.005C162.334 256.557 161.578 256.333 160.654 256.333C159.711 256.333 158.946 256.557 158.358 257.005C157.779 257.444 157.49 258.06 157.49 258.853C157.49 259.628 157.784 260.239 158.372 260.687C158.969 261.135 159.73 261.359 160.654 261.359C161.569 261.359 162.315 261.135 162.894 260.687ZM164.658 260.281C164.453 260.71 164.163 261.07 163.79 261.359C163.025 261.984 161.979 262.297 160.654 262.297C159.282 262.297 158.227 261.984 157.49 261.359C157.117 261.06 156.827 260.701 156.622 260.281C156.426 259.861 156.328 259.385 156.328 258.853C156.328 258.349 156.426 257.892 156.622 257.481C156.827 257.061 157.117 256.697 157.49 256.389C157.863 256.081 158.316 255.838 158.848 255.661C159.38 255.484 159.982 255.395 160.654 255.395C161.307 255.395 161.9 255.484 162.432 255.661C162.964 255.838 163.417 256.081 163.79 256.389C164.163 256.697 164.453 257.061 164.658 257.481C164.863 257.892 164.966 258.349 164.966 258.853C164.966 259.404 164.863 259.88 164.658 260.281ZM166.324 265.853H154.928V264.901H166.324V265.853ZM178.533 265.993H167.137V265.041H172.247V262.731H168.985C168.873 262.731 168.794 262.712 168.747 262.675C168.71 262.628 168.691 262.549 168.691 262.437V259.021C168.691 258.909 168.71 258.834 168.747 258.797C168.794 258.75 168.873 258.727 168.985 258.727H175.775V256.641H168.663V255.717H176.573C176.685 255.717 176.76 255.74 176.797 255.787C176.844 255.824 176.867 255.899 176.867 256.011V259.357C176.867 259.469 176.844 259.548 176.797 259.595C176.76 259.632 176.685 259.651 176.573 259.651H169.769V261.807H177.259V262.731H173.381V265.041H178.533V265.993ZM187.704 258.125C187.704 258.769 187.77 259.371 187.9 259.931C188.031 260.482 188.232 260.986 188.502 261.443C189.1 262.479 189.968 263.328 191.106 263.991C191.032 264.047 190.952 264.112 190.868 264.187C190.794 264.262 190.719 264.332 190.644 264.397C190.57 264.472 190.5 264.546 190.434 264.621C190.369 264.686 190.313 264.742 190.266 264.789C189.977 264.593 189.683 264.369 189.384 264.117C189.095 263.856 188.815 263.571 188.544 263.263C188.255 262.927 187.989 262.563 187.746 262.171C187.504 261.779 187.298 261.354 187.13 260.897C187.018 261.317 186.85 261.728 186.626 262.129C186.402 262.521 186.15 262.899 185.87 263.263C185.581 263.655 185.273 264.01 184.946 264.327C184.62 264.635 184.302 264.892 183.994 265.097C183.882 264.994 183.733 264.873 183.546 264.733C183.36 264.584 183.187 264.458 183.028 264.355C184.158 263.655 185.04 262.745 185.674 261.625C185.964 261.093 186.183 260.519 186.332 259.903C186.482 259.287 186.556 258.629 186.556 257.929V255.605H187.704V258.125ZM193.248 267.547H192.142V255.129H193.248V259.889H195.082V260.883H193.248V267.547ZM205.471 266.399C205.201 266.819 204.725 267.155 204.043 267.407C203.362 267.659 202.457 267.785 201.327 267.785C200.581 267.785 199.927 267.724 199.367 267.603C198.817 267.491 198.355 267.332 197.981 267.127C197.608 266.922 197.328 266.679 197.141 266.399C196.964 266.119 196.875 265.811 196.875 265.475C196.875 264.803 197.244 264.252 197.981 263.823C198.728 263.394 199.843 263.179 201.327 263.179C202.065 263.179 202.709 263.24 203.259 263.361C203.819 263.473 204.281 263.632 204.645 263.837C205.019 264.042 205.294 264.285 205.471 264.565C205.658 264.845 205.751 265.153 205.751 265.489C205.751 265.797 205.658 266.1 205.471 266.399ZM203.651 266.539C204.23 266.287 204.519 265.937 204.519 265.489C204.519 265.013 204.235 264.649 203.665 264.397C203.096 264.136 202.317 264.005 201.327 264.005C200.282 264.005 199.479 264.136 198.919 264.397C198.369 264.658 198.093 265.018 198.093 265.475C198.093 265.932 198.369 266.287 198.919 266.539C199.479 266.8 200.282 266.931 201.327 266.931C202.354 266.931 203.129 266.8 203.651 266.539ZM202.839 261.233V259.665C202.606 259.721 202.359 259.758 202.097 259.777C201.836 259.796 201.575 259.805 201.313 259.805C201.052 259.805 200.791 259.796 200.529 259.777C200.277 259.758 200.049 259.726 199.843 259.679V261.233H202.839ZM203.595 258.517C204.193 258.237 204.491 257.873 204.491 257.425C204.491 256.977 204.207 256.608 203.637 256.319C203.068 256.03 202.293 255.885 201.313 255.885C200.296 255.885 199.512 256.025 198.961 256.305C198.42 256.585 198.149 256.949 198.149 257.397C198.149 257.826 198.439 258.19 199.017 258.489C199.587 258.778 200.352 258.923 201.313 258.923C202.163 258.923 202.923 258.788 203.595 258.517ZM206.997 262.185H195.629V261.233H198.751V259.413C198.154 259.189 197.706 258.904 197.407 258.559C197.118 258.214 196.973 257.831 196.973 257.411C196.973 256.767 197.337 256.212 198.065 255.745C198.812 255.278 199.895 255.045 201.313 255.045C202.788 255.045 203.885 255.283 204.603 255.759C205.322 256.226 205.681 256.786 205.681 257.439C205.681 257.84 205.532 258.214 205.233 258.559C204.944 258.904 204.505 259.189 203.917 259.413V261.233H206.997V262.185ZM215.02 256.781H212.29V257.985C212.29 259.254 212.566 260.374 213.116 261.345C213.686 262.39 214.549 263.244 215.706 263.907C215.585 264.01 215.445 264.14 215.286 264.299C215.128 264.458 215.002 264.588 214.908 264.691C214.591 264.495 214.283 264.271 213.984 264.019C213.686 263.767 213.41 263.487 213.158 263.179C212.552 262.488 212.076 261.7 211.73 260.813C211.609 261.233 211.436 261.644 211.212 262.045C210.998 262.437 210.75 262.815 210.47 263.179C210.19 263.571 209.887 263.926 209.56 264.243C209.234 264.551 208.916 264.812 208.608 265.027C208.478 264.915 208.319 264.789 208.132 264.649C207.955 264.509 207.782 264.383 207.614 264.271C208.184 263.926 208.688 263.534 209.126 263.095C209.565 262.656 209.934 262.157 210.232 261.597C210.531 261.065 210.76 260.482 210.918 259.847C211.077 259.212 211.156 258.531 211.156 257.803V256.781H208.51V255.843H215.02V256.781ZM217.694 267.547H216.602V255.129H217.694V259.889H219.542V260.883H217.694V267.547ZM225.353 259.987V256.641H221.881V259.987H225.353ZM226.431 260.631C226.431 260.743 226.408 260.822 226.361 260.869C226.324 260.906 226.249 260.925 226.137 260.925H221.097C220.985 260.925 220.906 260.906 220.859 260.869C220.822 260.822 220.803 260.743 220.803 260.631V255.997C220.803 255.885 220.822 255.81 220.859 255.773C220.906 255.726 220.985 255.703 221.097 255.703H226.137C226.249 255.703 226.324 255.726 226.361 255.773C226.408 255.81 226.431 255.885 226.431 255.997V260.631ZM229.973 262.087H228.881V255.129H229.973V257.691H231.723V258.657H229.973V262.087ZM229.987 267.547C229.595 267.454 229.203 267.323 228.811 267.155C228.419 266.996 228.051 266.81 227.705 266.595C227.351 266.38 227.029 266.138 226.739 265.867C226.459 265.606 226.226 265.321 226.039 265.013C225.647 265.629 225.115 266.147 224.443 266.567C223.771 266.996 222.997 267.323 222.119 267.547L221.335 266.693C221.867 266.609 222.367 266.474 222.833 266.287C223.3 266.11 223.72 265.895 224.093 265.643C224.467 265.382 224.775 265.092 225.017 264.775C225.26 264.448 225.419 264.089 225.493 263.697H221.979V262.773H230.127V263.697H226.613C226.669 264.061 226.814 264.406 227.047 264.733C227.281 265.05 227.584 265.34 227.957 265.601C228.321 265.853 228.737 266.072 229.203 266.259C229.679 266.455 230.188 266.6 230.729 266.693L229.987 267.547ZM242.294 257.789H238.626C238.748 258.106 238.958 258.382 239.256 258.615C239.564 258.839 239.928 259.03 240.348 259.189C240.75 259.348 241.179 259.478 241.636 259.581C242.103 259.674 242.551 259.744 242.98 259.791C242.859 259.931 242.738 260.076 242.616 260.225C242.495 260.365 242.378 260.51 242.266 260.659C241.874 260.594 241.473 260.514 241.062 260.421C240.661 260.318 240.264 260.188 239.872 260.029C239.48 259.87 239.116 259.679 238.78 259.455C238.454 259.231 238.178 258.96 237.954 258.643C237.749 258.942 237.478 259.203 237.142 259.427C236.806 259.642 236.442 259.828 236.05 259.987C235.649 260.146 235.238 260.281 234.818 260.393C234.398 260.505 233.992 260.594 233.6 260.659C233.554 260.612 233.498 260.552 233.432 260.477C233.376 260.402 233.316 260.328 233.25 260.253C233.185 260.178 233.115 260.104 233.04 260.029C232.975 259.945 232.914 259.866 232.858 259.791C233.306 259.735 233.764 259.66 234.23 259.567C234.697 259.464 235.131 259.334 235.532 259.175C235.934 259.026 236.284 258.839 236.582 258.615C236.89 258.382 237.11 258.106 237.24 257.789H233.558V256.907H242.294V257.789ZM240.208 255.913H235.63V255.031H240.208V255.913ZM242.098 267.099C242.098 267.211 242.075 267.286 242.028 267.323C241.991 267.37 241.916 267.393 241.804 267.393H234.076C233.964 267.393 233.885 267.37 233.838 267.323C233.801 267.286 233.782 267.211 233.782 267.099V263.949C233.782 263.837 233.801 263.762 233.838 263.725C233.885 263.678 233.964 263.655 234.076 263.655H237.338V262.171H232.256V261.261H243.624V262.171H238.514V263.655H241.804C241.916 263.655 241.991 263.678 242.028 263.725C242.075 263.762 242.098 263.837 242.098 263.949V267.099ZM240.978 266.525V264.523H234.874V266.525H240.978ZM255.204 262.017C254.943 261.896 254.663 261.742 254.364 261.555C254.075 261.359 253.79 261.14 253.51 260.897C253.23 260.645 252.964 260.374 252.712 260.085C252.469 259.786 252.273 259.469 252.124 259.133C251.993 259.497 251.816 259.838 251.592 260.155C251.368 260.472 251.116 260.771 250.836 261.051C250.556 261.322 250.257 261.569 249.94 261.793C249.632 262.017 249.324 262.213 249.016 262.381L248.162 261.611C248.619 261.396 249.049 261.14 249.45 260.841C249.861 260.542 250.22 260.197 250.528 259.805C250.836 259.413 251.079 258.984 251.256 258.517C251.433 258.05 251.522 257.537 251.522 256.977V255.437H252.684V256.879C252.684 257.411 252.773 257.901 252.95 258.349C253.127 258.797 253.37 259.203 253.678 259.567C253.977 259.931 254.322 260.248 254.714 260.519C255.106 260.79 255.512 261 255.932 261.149L255.204 262.017ZM258.354 264.229H257.262V255.129H258.354V258.825H260.062V259.805H258.354V264.229ZM258.746 267.281H250.878C250.766 267.281 250.687 267.258 250.64 267.211C250.603 267.174 250.584 267.099 250.584 266.987V263.319H251.69V266.329H258.746V267.281ZM266.937 257.789H261.169V256.921H266.937V257.789ZM265.523 256.151H262.555V255.283H265.523V256.151ZM264.039 262.549C263.274 262.549 262.639 262.353 262.135 261.961C261.64 261.55 261.393 261.037 261.393 260.421C261.393 260.104 261.458 259.814 261.589 259.553C261.72 259.292 261.897 259.068 262.121 258.881C262.354 258.694 262.634 258.554 262.961 258.461C263.288 258.358 263.647 258.307 264.039 258.307C264.431 258.307 264.786 258.358 265.103 258.461C265.43 258.554 265.71 258.694 265.943 258.881C266.176 259.068 266.354 259.292 266.475 259.553C266.606 259.814 266.671 260.104 266.671 260.421C266.671 261.046 266.419 261.56 265.915 261.961C265.42 262.353 264.795 262.549 264.039 262.549ZM265.215 261.415C265.495 261.163 265.635 260.836 265.635 260.435C265.635 260.015 265.495 259.688 265.215 259.455C264.935 259.212 264.543 259.091 264.039 259.091C263.507 259.091 263.101 259.212 262.821 259.455C262.55 259.688 262.415 260.015 262.415 260.435C262.415 260.836 262.55 261.163 262.821 261.415C263.101 261.658 263.507 261.779 264.039 261.779C264.524 261.779 264.916 261.658 265.215 261.415ZM271.487 263.137H270.423V259.511H268.883V262.731H267.819V255.353H268.883V258.531H270.423V255.129H271.487V263.137ZM271.235 266.385C270.964 266.833 270.488 267.178 269.807 267.421C269.135 267.673 268.262 267.799 267.189 267.799C266.461 267.799 265.822 267.738 265.271 267.617C264.72 267.505 264.258 267.342 263.885 267.127C263.521 266.922 263.246 266.674 263.059 266.385C262.882 266.096 262.793 265.783 262.793 265.447C262.793 265.111 262.886 264.803 263.073 264.523C263.26 264.234 263.535 263.986 263.899 263.781C264.272 263.566 264.73 263.403 265.271 263.291C265.822 263.17 266.461 263.109 267.189 263.109C267.898 263.109 268.524 263.17 269.065 263.291C269.606 263.403 270.059 263.566 270.423 263.781C270.787 263.986 271.058 264.234 271.235 264.523C271.422 264.803 271.515 265.111 271.515 265.447C271.515 265.774 271.422 266.086 271.235 266.385ZM269.457 266.525C270.045 266.264 270.339 265.909 270.339 265.461C270.339 265.228 270.26 265.018 270.101 264.831C269.952 264.644 269.737 264.49 269.457 264.369C269.186 264.248 268.855 264.154 268.463 264.089C268.08 264.024 267.656 263.991 267.189 263.991C266.713 263.991 266.274 264.024 265.873 264.089C265.481 264.154 265.145 264.248 264.865 264.369C264.585 264.49 264.366 264.644 264.207 264.831C264.058 265.008 263.983 265.214 263.983 265.447C263.983 265.671 264.058 265.876 264.207 266.063C264.366 266.25 264.585 266.404 264.865 266.525C265.145 266.656 265.481 266.754 265.873 266.819C266.274 266.894 266.713 266.931 267.189 266.931C268.057 266.931 268.813 266.796 269.457 266.525ZM280.952 263.193C281.045 262.689 281.139 262.152 281.232 261.583C281.325 261.004 281.414 260.407 281.498 259.791C280.882 259.903 280.215 259.978 279.496 260.015C278.777 260.052 278.04 260.071 277.284 260.071H274.134V259.133H278.012C278.684 259.133 279.3 259.124 279.86 259.105C280.429 259.086 281.008 259.04 281.596 258.965C281.605 258.778 281.619 258.596 281.638 258.419C281.657 258.232 281.675 258.046 281.694 257.859C281.703 257.682 281.713 257.504 281.722 257.327C281.741 257.15 281.755 256.977 281.764 256.809H274.344V255.857H282.618C282.73 255.857 282.805 255.88 282.842 255.927C282.889 255.964 282.912 256.039 282.912 256.151C282.875 256.692 282.828 257.262 282.772 257.859C282.725 258.447 282.665 259.049 282.59 259.665C282.525 260.281 282.445 260.888 282.352 261.485C282.268 262.082 282.175 262.652 282.072 263.193H280.952ZM284.34 265.979H272.93V265.013H277.228V261.695H278.348V265.013H284.34V265.979ZM295.247 262.395C294.827 262.255 294.398 262.064 293.959 261.821C293.52 261.569 293.1 261.275 292.699 260.939C292.298 260.612 291.934 260.253 291.607 259.861C291.28 259.46 291.033 259.035 290.865 258.587C290.678 259.035 290.426 259.455 290.109 259.847C289.792 260.23 289.432 260.584 289.031 260.911C288.63 261.238 288.205 261.532 287.757 261.793C287.318 262.045 286.889 262.25 286.469 262.409L285.629 261.555C286.189 261.387 286.744 261.149 287.295 260.841C287.855 260.524 288.35 260.155 288.779 259.735C289.227 259.315 289.582 258.848 289.843 258.335C290.114 257.822 290.249 257.271 290.249 256.683V255.619H291.439V256.683C291.439 257.215 291.565 257.733 291.817 258.237C292.078 258.741 292.424 259.217 292.853 259.665C293.282 260.094 293.772 260.477 294.323 260.813C294.874 261.14 295.443 261.392 296.031 261.569L295.247 262.395ZM296.535 265.825H285.139V264.873H296.535V265.825ZM307.218 264.649C306.985 264.5 306.756 264.318 306.532 264.103C306.308 263.888 306.08 263.636 305.846 263.347C305.398 262.787 305.058 262.124 304.824 261.359C304.722 261.723 304.582 262.087 304.404 262.451C304.227 262.815 304.026 263.16 303.802 263.487C303.569 263.814 303.317 264.122 303.046 264.411C302.776 264.691 302.505 264.929 302.234 265.125L301.268 264.425C302.304 263.725 303.065 262.848 303.55 261.793C304.045 260.738 304.292 259.464 304.292 257.971V256.893H302.22V255.955H307.442V256.893H305.426V257.943C305.426 258.643 305.468 259.292 305.552 259.889C305.646 260.486 305.79 261.037 305.986 261.541C306.192 262.036 306.462 262.479 306.798 262.871C307.134 263.263 307.55 263.604 308.044 263.893L307.218 264.649ZM312.258 267.533H311.208V255.129H312.258V267.533ZM309.836 266.945H308.744V260.141H306.686V259.091H308.744V255.339H309.836V266.945ZM322.157 259.749C322.269 259.189 322.358 258.648 322.423 258.125C322.489 257.602 322.535 257.042 322.563 256.445H314.947V255.493H323.403C323.515 255.493 323.59 255.516 323.627 255.563C323.674 255.6 323.697 255.675 323.697 255.787C323.669 256.608 323.609 257.336 323.515 257.971C323.422 258.596 323.324 259.189 323.221 259.749H322.157ZM324.999 261.653H313.631V260.687H318.167V258.069H319.287V260.687H324.999V261.653ZM319.315 267.771C317.869 267.771 316.763 267.533 315.997 267.057C315.223 266.59 314.835 265.998 314.835 265.279C314.835 264.57 315.223 263.977 315.997 263.501C316.763 263.025 317.869 262.787 319.315 262.787C320.743 262.787 321.845 263.025 322.619 263.501C323.394 263.977 323.781 264.57 323.781 265.279C323.781 265.998 323.394 266.59 322.619 267.057C321.845 267.533 320.743 267.771 319.315 267.771ZM319.315 266.889C320.267 266.889 321.047 266.749 321.653 266.469C322.269 266.208 322.577 265.806 322.577 265.265C322.577 264.761 322.269 264.374 321.653 264.103C321.047 263.823 320.267 263.683 319.315 263.683C318.335 263.683 317.547 263.823 316.949 264.103C316.361 264.374 316.067 264.761 316.067 265.265C316.067 265.797 316.361 266.198 316.949 266.469C317.547 266.749 318.335 266.889 319.315 266.889Z" fill="white" fill-opacity="0.9"/>
<path d="M26.0548 287.014H19.9088C19.8248 287.014 19.7688 287 19.7408 286.972C19.7222 286.944 19.7128 286.888 19.7128 286.804L19.7128 285.964C19.9275 285.759 20.1982 285.493 20.5248 285.166C20.8608 284.84 21.2108 284.48 21.5748 284.088C21.9482 283.687 22.3168 283.272 22.6808 282.842C23.0542 282.413 23.3855 281.988 23.6748 281.568C23.9735 281.139 24.2162 280.733 24.4028 280.35C24.5895 279.968 24.6828 279.632 24.6828 279.342C24.6922 278.726 24.5148 278.269 24.1508 277.97C23.7962 277.672 23.3388 277.522 22.7788 277.522C22.2375 277.522 21.7942 277.704 21.4488 278.068C21.1128 278.432 20.9448 278.922 20.9448 279.538H19.7968C19.7968 279.081 19.8715 278.67 20.0208 278.306C20.1795 277.942 20.3942 277.63 20.6648 277.368C20.9355 277.107 21.2528 276.906 21.6168 276.766C21.9808 276.626 22.3775 276.556 22.8068 276.556C23.2362 276.556 23.6328 276.617 23.9968 276.738C24.3702 276.85 24.6922 277.018 24.9628 277.242C25.2335 277.466 25.4435 277.746 25.5928 278.082C25.7515 278.418 25.8308 278.81 25.8308 279.258C25.8308 279.641 25.7468 280.042 25.5788 280.462C25.4108 280.882 25.1868 281.307 24.9068 281.736C24.6362 282.156 24.3235 282.576 23.9688 282.996C23.6235 283.407 23.2688 283.799 22.9048 284.172C22.5502 284.546 22.2048 284.896 21.8688 285.222C21.5328 285.54 21.2388 285.815 20.9868 286.048H26.0548L26.0548 287.014ZM29.6315 287.336H28.1895L28.1895 285.894H29.6315L29.6315 287.336ZM43.9373 284.452C43.8813 284.919 43.746 285.33 43.5313 285.684C43.326 286.039 43.06 286.333 42.7333 286.566C42.416 286.809 42.052 286.991 41.6413 287.112C41.2307 287.243 40.7967 287.308 40.3393 287.308C39.5647 287.308 38.902 287.159 38.3513 286.86C37.81 286.571 37.362 286.179 37.0073 285.684C36.6527 285.18 36.3913 284.602 36.2233 283.948C36.0647 283.286 35.9853 282.59 35.9853 281.862C35.9853 281.144 36.0693 280.458 36.2373 279.804C36.4053 279.142 36.662 278.558 37.0073 278.054C37.362 277.55 37.8147 277.149 38.3653 276.85C38.916 276.552 39.574 276.402 40.3393 276.402C40.778 276.402 41.198 276.458 41.5993 276.57C42.01 276.673 42.374 276.836 42.6913 277.06C43.018 277.284 43.284 277.569 43.4893 277.914C43.704 278.26 43.8347 278.67 43.8813 279.146H42.7053C42.6027 278.558 42.3367 278.12 41.9073 277.83C41.478 277.532 40.9553 277.382 40.3393 277.382C39.7327 277.382 39.224 277.518 38.8133 277.788C38.412 278.05 38.0853 278.395 37.8333 278.824C37.5907 279.244 37.418 279.725 37.3153 280.266C37.2127 280.798 37.1613 281.33 37.1613 281.862C37.1613 282.394 37.2127 282.926 37.3153 283.458C37.418 283.99 37.5907 284.471 37.8333 284.9C38.0853 285.32 38.412 285.666 38.8133 285.936C39.224 286.198 39.7327 286.328 40.3393 286.328C40.6287 286.328 40.904 286.296 41.1653 286.23C41.436 286.156 41.674 286.044 41.8793 285.894C42.094 285.745 42.276 285.554 42.4253 285.32C42.5747 285.078 42.682 284.788 42.7473 284.452H43.9373ZM51.4422 287.084H50.3642V282.674C50.3642 281.974 50.2149 281.466 49.9162 281.148C49.6269 280.822 49.1835 280.658 48.5862 280.658C48.3529 280.658 48.1195 280.71 47.8862 280.812C47.6529 280.906 47.4429 281.05 47.2562 281.246C47.0789 281.433 46.9295 281.671 46.8082 281.96C46.6962 282.25 46.6402 282.586 46.6402 282.968V287.084H45.6322L45.6322 276.57H46.6402V280.896C46.9669 280.476 47.3169 280.182 47.6902 280.014C48.0729 279.846 48.4929 279.762 48.9502 279.762C49.7435 279.762 50.3549 279.986 50.7842 280.434C51.2229 280.882 51.4422 281.531 51.4422 282.38V287.084ZM57.3715 284.648C57.4275 284.303 57.4555 283.948 57.4555 283.584C57.2782 283.584 57.0682 283.58 56.8255 283.57C56.5829 283.561 56.3309 283.566 56.0695 283.584C55.8175 283.594 55.5609 283.626 55.2995 283.682C55.0475 283.729 54.8189 283.808 54.6135 283.92C54.4175 284.032 54.2589 284.186 54.1375 284.382C54.0162 284.569 53.9555 284.807 53.9555 285.096C53.9555 285.572 54.0955 285.908 54.3755 286.104C54.6649 286.3 55.0102 286.398 55.4115 286.398C55.7289 286.398 55.9995 286.356 56.2235 286.272C56.5782 286.132 56.8442 285.922 57.0215 285.642C57.1989 285.353 57.3155 285.022 57.3715 284.648ZM57.4695 287.084L57.4275 286.314C57.2222 286.585 56.9189 286.818 56.5175 287.014C56.1162 287.21 55.6915 287.308 55.2435 287.308C54.9075 287.308 54.5902 287.257 54.2915 287.154C54.0022 287.061 53.7455 286.921 53.5215 286.734C53.3069 286.548 53.1342 286.314 53.0035 286.034C52.8822 285.754 52.8215 285.437 52.8215 285.082C52.8215 284.578 52.9475 284.158 53.1995 283.822C53.4515 283.477 53.8015 283.211 54.2495 283.024C54.4829 282.912 54.7395 282.833 55.0195 282.786C55.2995 282.73 55.5795 282.698 55.8595 282.688C56.1395 282.67 56.4149 282.665 56.6855 282.674C56.9562 282.674 57.1989 282.674 57.4135 282.674V282.156C57.3669 281.578 57.2035 281.181 56.9235 280.966C56.6435 280.752 56.2702 280.644 55.8035 280.644C55.3835 280.644 55.0289 280.728 54.7395 280.896C54.4595 281.064 54.2915 281.4 54.2355 281.904H53.0735C53.0922 281.531 53.1809 281.209 53.3395 280.938C53.4982 280.668 53.7035 280.444 53.9555 280.266C54.2075 280.089 54.4922 279.958 54.8095 279.874C55.1362 279.79 55.4722 279.748 55.8175 279.748C56.6202 279.748 57.2549 279.949 57.7215 280.35C58.1975 280.742 58.4309 281.358 58.4215 282.198V286.006C58.4215 286.165 58.4262 286.352 58.4355 286.566C58.4449 286.772 58.4635 286.944 58.4915 287.084H57.4695ZM63.8376 287.168C63.6882 287.215 63.5342 287.248 63.3756 287.266C63.2169 287.294 63.0629 287.308 62.9136 287.308C62.6616 287.308 62.4236 287.28 62.1996 287.224C61.9849 287.178 61.7982 287.084 61.6396 286.944C61.4809 286.814 61.3549 286.632 61.2616 286.398C61.1776 286.156 61.1356 285.848 61.1356 285.474L61.1356 280.854H59.7496V279.944H61.1356V277.914H62.1716V279.944H63.7536V280.854H62.1716L62.1716 285.334C62.1716 285.773 62.2509 286.067 62.4096 286.216C62.5776 286.366 62.7922 286.44 63.0536 286.44C63.2216 286.44 63.3616 286.426 63.4736 286.398C63.5949 286.37 63.7162 286.328 63.8376 286.272V287.168ZM72.7676 286.118C73.1876 286.128 73.5563 286.104 73.8736 286.048C74.2003 285.992 74.4709 285.89 74.6856 285.74C74.9096 285.582 75.0776 285.372 75.1896 285.11C75.3016 284.849 75.3576 284.522 75.3576 284.13C75.3576 283.701 75.2829 283.356 75.1336 283.094C74.9843 282.833 74.7696 282.632 74.4896 282.492C74.2189 282.352 73.8923 282.259 73.5096 282.212C73.1363 282.166 72.7256 282.142 72.2776 282.142H70.6956V286.118H72.7676ZM72.7536 281.19C73.0336 281.19 73.3043 281.162 73.5656 281.106C73.8269 281.041 74.0603 280.938 74.2656 280.798C74.4709 280.649 74.6343 280.458 74.7556 280.224C74.8863 279.991 74.9516 279.702 74.9516 279.356C74.9516 278.992 74.8863 278.698 74.7556 278.474C74.6249 278.241 74.4523 278.064 74.2376 277.942C74.0323 277.812 73.7943 277.723 73.5236 277.676C73.2529 277.63 72.9776 277.602 72.6976 277.592H70.6956V281.19H72.7536ZM69.8556 287.084C69.6969 287.084 69.6176 286.996 69.6176 286.818V276.906C69.6176 276.729 69.6969 276.64 69.8556 276.64H73.2296C73.6029 276.64 73.9623 276.701 74.3076 276.822C74.6623 276.934 74.9703 277.102 75.2316 277.326C75.4929 277.55 75.7029 277.826 75.8616 278.152C76.0203 278.479 76.0996 278.852 76.0996 279.272C76.0996 279.552 76.0529 279.818 75.9596 280.07C75.8663 280.322 75.7403 280.551 75.5816 280.756C75.4229 280.962 75.2316 281.139 75.0076 281.288C74.7836 281.438 74.5409 281.55 74.2796 281.624C74.9609 281.755 75.5023 282.044 75.9036 282.492C76.3049 282.94 76.5056 283.533 76.5056 284.27C76.5056 284.616 76.4496 284.956 76.3376 285.292C76.2256 285.628 76.0483 285.932 75.8056 286.202C75.5629 286.464 75.2456 286.674 74.8536 286.832C74.4709 287 74.0043 287.084 73.4536 287.084H69.8556ZM82.4145 286.146C82.8345 285.876 83.1425 285.507 83.3385 285.04C83.5345 284.564 83.6325 284.06 83.6325 283.528C83.6325 283.192 83.5905 282.856 83.5065 282.52C83.4225 282.175 83.2871 281.867 83.1005 281.596C82.9231 281.316 82.6945 281.088 82.4145 280.91C82.1345 280.733 81.7985 280.644 81.4065 280.644C81.0145 280.644 80.6785 280.733 80.3985 280.91C80.1185 281.088 79.8898 281.316 79.7125 281.596C79.5445 281.867 79.4185 282.175 79.3345 282.52C79.2505 282.856 79.2085 283.192 79.2085 283.528C79.2085 283.864 79.2505 284.205 79.3345 284.55C79.4185 284.886 79.5445 285.194 79.7125 285.474C79.8898 285.745 80.1185 285.969 80.3985 286.146C80.6785 286.314 81.0145 286.398 81.4065 286.398C81.7985 286.398 82.1345 286.314 82.4145 286.146ZM83.9545 286.146C83.6838 286.492 83.3385 286.772 82.9185 286.986C82.4985 287.201 81.9945 287.308 81.4065 287.308C80.8278 287.308 80.3285 287.201 79.9085 286.986C79.4978 286.772 79.1525 286.492 78.8725 286.146C78.6018 285.792 78.4011 285.386 78.2705 284.928C78.1398 284.471 78.0745 284.004 78.0745 283.528C78.0745 283.052 78.1398 282.586 78.2705 282.128C78.4011 281.671 78.6018 281.27 78.8725 280.924C79.1525 280.57 79.4978 280.285 79.9085 280.07C80.3285 279.856 80.8278 279.748 81.4065 279.748C81.9851 279.748 82.4845 279.856 82.9045 280.07C83.3338 280.285 83.6838 280.57 83.9545 280.924C84.2345 281.27 84.4398 281.671 84.5705 282.128C84.7105 282.586 84.7805 283.052 84.7805 283.528C84.7805 284.004 84.7105 284.471 84.5705 284.928C84.4398 285.386 84.2345 285.792 83.9545 286.146ZM89.6501 287.168C89.5007 287.215 89.3467 287.248 89.1881 287.266C89.0294 287.294 88.8754 287.308 88.7261 287.308C88.4741 287.308 88.2361 287.28 88.0121 287.224C87.7974 287.178 87.6107 287.084 87.4521 286.944C87.2934 286.814 87.1674 286.632 87.0741 286.398C86.9901 286.156 86.9481 285.848 86.9481 285.474V280.854H85.5621V279.944H86.9481V277.914H87.9841V279.944H89.5661V280.854H87.9841V285.334C87.9841 285.773 88.0634 286.067 88.2221 286.216C88.3901 286.366 88.6047 286.44 88.8661 286.44C89.0341 286.44 89.1741 286.426 89.2861 286.398C89.4074 286.37 89.5287 286.328 89.6501 286.272V287.168ZM104.866 288.386H103.746V280.686H101.03V279.692H103.746V275.982H104.866V288.386ZM98.8881 278.908C98.8881 280.206 99.1634 281.312 99.7141 282.226C100.003 282.758 100.367 283.234 100.806 283.654C101.245 284.074 101.744 284.448 102.304 284.774C102.164 284.886 102.015 285.022 101.856 285.18C101.697 285.339 101.571 285.47 101.478 285.572C101.179 285.376 100.881 285.152 100.582 284.9C100.283 284.639 100.008 284.354 99.7561 284.046C99.4668 283.71 99.2008 283.346 98.9581 282.954C98.7154 282.562 98.5101 282.138 98.3421 281.68C98.2301 282.1 98.0621 282.511 97.8381 282.912C97.6141 283.304 97.3621 283.682 97.0821 284.046C96.7928 284.438 96.4848 284.793 96.1581 285.11C95.8314 285.418 95.5141 285.675 95.2061 285.88C95.0941 285.778 94.9448 285.656 94.7581 285.516C94.5714 285.367 94.3988 285.241 94.2401 285.138C95.3788 284.438 96.2561 283.528 96.8721 282.408C97.1614 281.876 97.3808 281.302 97.5301 280.686C97.6794 280.07 97.7541 279.412 97.7541 278.712V276.458H98.8881V278.908ZM112.329 284.354V280.77H108.815V284.354H112.329ZM113.407 285.026C113.407 285.138 113.384 285.218 113.337 285.264C113.3 285.302 113.225 285.32 113.113 285.32H108.003C107.891 285.32 107.812 285.302 107.765 285.264C107.728 285.218 107.709 285.138 107.709 285.026V276.584H108.815V279.79H112.329V276.584H113.407V285.026ZM116.977 288.386H115.885V275.982H116.977V288.386ZM128.99 283.248C128.57 283.108 128.141 282.917 127.702 282.674C127.263 282.422 126.843 282.128 126.442 281.792C126.041 281.466 125.677 281.106 125.35 280.714C125.023 280.313 124.776 279.888 124.608 279.44C124.421 279.888 124.169 280.308 123.852 280.7C123.535 281.083 123.175 281.438 122.774 281.764C122.373 282.091 121.948 282.385 121.5 282.646C121.061 282.898 120.632 283.104 120.212 283.262L119.372 282.408C119.932 282.24 120.487 282.002 121.038 281.694C121.598 281.377 122.093 281.008 122.522 280.588C122.97 280.168 123.325 279.702 123.586 279.188C123.857 278.675 123.992 278.124 123.992 277.536V276.472H125.182V277.536C125.182 278.068 125.308 278.586 125.56 279.09C125.821 279.594 126.167 280.07 126.596 280.518C127.025 280.948 127.515 281.33 128.066 281.666C128.617 281.993 129.186 282.245 129.774 282.422L128.99 283.248ZM130.278 286.678H118.882V285.726H130.278V286.678ZM142.473 282.604H131.133V281.778H142.473V282.604ZM141.143 280.742H132.939C132.827 280.742 132.748 280.724 132.701 280.686C132.664 280.64 132.645 280.56 132.645 280.448V278.404C132.645 278.292 132.664 278.218 132.701 278.18C132.748 278.134 132.827 278.11 132.939 278.11H139.715V277.06H132.645V276.248H140.583C140.695 276.248 140.77 276.272 140.807 276.318C140.854 276.356 140.877 276.43 140.877 276.542V278.586C140.877 278.698 140.854 278.778 140.807 278.824C140.77 278.862 140.695 278.88 140.583 278.88H133.793V279.944H141.143V280.742ZM141.241 288.274H132.939C132.827 288.274 132.748 288.251 132.701 288.204C132.664 288.167 132.645 288.092 132.645 287.98V285.866C132.645 285.754 132.664 285.68 132.701 285.642C132.748 285.596 132.827 285.572 132.939 285.572H139.785V284.466H132.645V283.668H140.653C140.765 283.668 140.84 283.692 140.877 283.738C140.924 283.776 140.947 283.85 140.947 283.962V286.062C140.947 286.174 140.924 286.254 140.877 286.3C140.84 286.338 140.765 286.356 140.653 286.356H133.821V287.462H141.241V288.274ZM154.991 277.97H148.159V277.186H154.991V277.97ZM153.311 276.64H149.853V275.87H153.311V276.64ZM155.859 282.73C155.56 282.777 155.224 282.824 154.851 282.87C154.477 282.908 154.076 282.94 153.647 282.968C153.227 282.996 152.788 283.02 152.331 283.038C151.873 283.057 151.416 283.066 150.959 283.066H147.599V282.268H151.001V281.386C150.301 281.33 149.731 281.176 149.293 280.924C148.854 280.663 148.635 280.336 148.635 279.944C148.635 279.72 148.705 279.515 148.845 279.328C148.985 279.132 149.185 278.964 149.447 278.824C149.708 278.684 150.016 278.577 150.371 278.502C150.725 278.428 151.122 278.39 151.561 278.39C151.99 278.39 152.382 278.428 152.737 278.502C153.101 278.577 153.413 278.684 153.675 278.824C153.936 278.955 154.137 279.118 154.277 279.314C154.417 279.501 154.487 279.706 154.487 279.93C154.487 280.126 154.426 280.308 154.305 280.476C154.193 280.644 154.034 280.794 153.829 280.924C153.623 281.046 153.376 281.148 153.087 281.232C152.807 281.307 152.499 281.358 152.163 281.386V282.24C152.396 282.24 152.676 282.231 153.003 282.212C153.339 282.194 153.679 282.17 154.025 282.142C154.37 282.114 154.701 282.086 155.019 282.058C155.345 282.021 155.625 281.984 155.859 281.946V282.73ZM152.877 280.518C153.194 280.369 153.353 280.182 153.353 279.958C153.353 279.706 153.194 279.506 152.877 279.356C152.559 279.207 152.121 279.132 151.561 279.132C151.001 279.132 150.557 279.207 150.231 279.356C149.913 279.506 149.755 279.706 149.755 279.958C149.755 280.182 149.913 280.369 150.231 280.518C150.557 280.658 151.001 280.728 151.561 280.728C152.111 280.728 152.55 280.658 152.877 280.518ZM157.427 283.304H156.349V275.982H157.427V279.02H159.163V279.972H157.427V283.304ZM157.749 288.274H149.825C149.713 288.274 149.633 288.251 149.587 288.204C149.549 288.167 149.531 288.092 149.531 287.98V285.95C149.531 285.838 149.549 285.764 149.587 285.726C149.633 285.68 149.713 285.656 149.825 285.656H156.265V284.746H149.531V283.906H157.147C157.259 283.906 157.333 283.93 157.371 283.976C157.417 284.014 157.441 284.088 157.441 284.2V286.146C157.441 286.258 157.417 286.338 157.371 286.384C157.333 286.422 157.259 286.44 157.147 286.44H150.707V287.448H157.749V288.274ZM169.426 287.252C169.155 287.672 168.679 288.008 167.998 288.26C167.316 288.512 166.411 288.638 165.282 288.638C164.535 288.638 163.882 288.578 163.322 288.456C162.771 288.344 162.309 288.186 161.936 287.98C161.562 287.775 161.282 287.532 161.096 287.252C160.918 286.972 160.83 286.664 160.83 286.328C160.83 285.656 161.198 285.106 161.936 284.676C162.682 284.247 163.798 284.032 165.282 284.032C166.019 284.032 166.663 284.093 167.214 284.214C167.774 284.326 168.236 284.485 168.6 284.69C168.973 284.896 169.248 285.138 169.426 285.418C169.612 285.698 169.706 286.006 169.706 286.342C169.706 286.65 169.612 286.954 169.426 287.252ZM167.606 287.392C168.184 287.14 168.474 286.79 168.474 286.342C168.474 285.866 168.189 285.502 167.62 285.25C167.05 284.989 166.271 284.858 165.282 284.858C164.236 284.858 163.434 284.989 162.874 285.25C162.323 285.512 162.048 285.871 162.048 286.328C162.048 286.786 162.323 287.14 162.874 287.392C163.434 287.654 164.236 287.784 165.282 287.784C166.308 287.784 167.083 287.654 167.606 287.392ZM166.794 282.086V280.518C166.56 280.574 166.313 280.612 166.052 280.63C165.79 280.649 165.529 280.658 165.268 280.658C165.006 280.658 164.745 280.649 164.484 280.63C164.232 280.612 164.003 280.579 163.798 280.532V282.086H166.794ZM167.55 279.37C168.147 279.09 168.446 278.726 168.446 278.278C168.446 277.83 168.161 277.462 167.592 277.172C167.022 276.883 166.248 276.738 165.268 276.738C164.25 276.738 163.466 276.878 162.916 277.158C162.374 277.438 162.104 277.802 162.104 278.25C162.104 278.68 162.393 279.044 162.972 279.342C163.541 279.632 164.306 279.776 165.268 279.776C166.117 279.776 166.878 279.641 167.55 279.37ZM170.952 283.038H159.584V282.086H162.706V280.266C162.108 280.042 161.66 279.758 161.362 279.412C161.072 279.067 160.928 278.684 160.928 278.264C160.928 277.62 161.292 277.065 162.02 276.598C162.766 276.132 163.849 275.898 165.268 275.898C166.742 275.898 167.839 276.136 168.558 276.612C169.276 277.079 169.636 277.639 169.636 278.292C169.636 278.694 169.486 279.067 169.188 279.412C168.898 279.758 168.46 280.042 167.872 280.266V282.086H170.952V283.038ZM179.381 278.628H172.269V277.746H179.381V278.628ZM177.631 276.85H173.963V275.954H177.631V276.85ZM181.859 285.124H180.767V275.982H181.859V279.762H183.595V280.742H181.859V285.124ZM182.265 288.134H174.369C174.257 288.134 174.177 288.111 174.131 288.064C174.093 288.027 174.075 287.952 174.075 287.84V284.676H175.209V287.196H182.265V288.134ZM178.877 281.54C178.877 282.24 178.592 282.791 178.023 283.192C177.444 283.603 176.707 283.808 175.811 283.808C175.344 283.808 174.924 283.757 174.551 283.654C174.177 283.542 173.855 283.388 173.585 283.192C173.314 282.996 173.104 282.758 172.955 282.478C172.815 282.198 172.745 281.886 172.745 281.54C172.745 281.204 172.815 280.896 172.955 280.616C173.104 280.336 173.314 280.098 173.585 279.902C173.855 279.697 174.177 279.543 174.551 279.44C174.924 279.328 175.344 279.272 175.811 279.272C176.697 279.272 177.43 279.482 178.009 279.902C178.587 280.313 178.877 280.859 178.877 281.54ZM177.197 282.604C177.551 282.352 177.729 281.998 177.729 281.54C177.729 281.092 177.551 280.742 177.197 280.49C176.851 280.238 176.394 280.112 175.825 280.112C175.227 280.112 174.751 280.238 174.397 280.49C174.051 280.742 173.879 281.092 173.879 281.54C173.879 281.998 174.051 282.352 174.397 282.604C174.751 282.847 175.227 282.968 175.825 282.968C176.385 282.968 176.842 282.847 177.197 282.604ZM195.02 282.884C194.749 282.763 194.465 282.609 194.166 282.422C193.877 282.226 193.592 282.007 193.312 281.764C193.032 281.512 192.766 281.242 192.514 280.952C192.271 280.654 192.075 280.336 191.926 280C191.795 280.364 191.618 280.705 191.394 281.022C191.179 281.34 190.932 281.638 190.652 281.918C190.372 282.189 190.073 282.436 189.756 282.66C189.448 282.884 189.14 283.08 188.832 283.248L187.978 282.478C188.435 282.264 188.865 282.007 189.266 281.708C189.677 281.41 190.036 281.064 190.344 280.672C190.643 280.28 190.881 279.851 191.058 279.384C191.245 278.918 191.338 278.404 191.338 277.844V276.29H192.486V277.746C192.486 278.278 192.575 278.768 192.752 279.216C192.939 279.664 193.181 280.07 193.48 280.434C193.779 280.798 194.124 281.116 194.516 281.386C194.917 281.657 195.328 281.867 195.748 282.016L195.02 282.884ZM198.45 285.082H197.358V275.982H198.45V285.082ZM198.814 288.134H190.722C190.61 288.134 190.531 288.111 190.484 288.064C190.447 288.027 190.428 287.952 190.428 287.84V284.172H191.548V287.182H198.814V288.134ZM210.323 280.798C209.903 280.705 209.478 280.574 209.049 280.406C208.629 280.229 208.223 280.019 207.831 279.776C207.439 279.543 207.08 279.277 206.753 278.978C206.426 278.68 206.165 278.353 205.969 277.998C205.764 278.353 205.502 278.68 205.185 278.978C204.877 279.277 204.527 279.543 204.135 279.776C203.734 280.01 203.323 280.215 202.903 280.392C202.483 280.56 202.044 280.696 201.587 280.798L200.859 279.972C201.428 279.851 201.984 279.683 202.525 279.468C203.066 279.254 203.547 278.997 203.967 278.698C204.387 278.409 204.723 278.078 204.975 277.704C205.227 277.331 205.353 276.92 205.353 276.472V275.996H206.571V276.472C206.571 276.948 206.711 277.378 206.991 277.76C207.271 278.143 207.635 278.484 208.083 278.782C208.531 279.072 209.012 279.319 209.525 279.524C210.048 279.72 210.552 279.87 211.037 279.972L210.323 280.798ZM211.639 283.094H200.299V282.142H205.395V280.224H206.529V282.142H211.639V283.094ZM210.113 288.47H208.993V285.32H201.643V284.368H209.819C209.931 284.368 210.006 284.392 210.043 284.438C210.09 284.476 210.113 284.55 210.113 284.662V288.47ZM220.068 278.628H212.956V277.746H220.068V278.628ZM218.318 276.85H214.65V275.954H218.318V276.85ZM222.546 285.124H221.454V275.982H222.546V279.762H224.282V280.742H222.546V285.124ZM222.952 288.134H215.056C214.944 288.134 214.865 288.111 214.818 288.064C214.781 288.027 214.762 287.952 214.762 287.84V284.676H215.896V287.196H222.952V288.134ZM219.564 281.54C219.564 282.24 219.279 282.791 218.71 283.192C218.131 283.603 217.394 283.808 216.498 283.808C216.031 283.808 215.611 283.757 215.238 283.654C214.865 283.542 214.543 283.388 214.272 283.192C214.001 282.996 213.791 282.758 213.642 282.478C213.502 282.198 213.432 281.886 213.432 281.54C213.432 281.204 213.502 280.896 213.642 280.616C213.791 280.336 214.001 280.098 214.272 279.902C214.543 279.697 214.865 279.543 215.238 279.44C215.611 279.328 216.031 279.272 216.498 279.272C217.385 279.272 218.117 279.482 218.696 279.902C219.275 280.313 219.564 280.859 219.564 281.54ZM217.884 282.604C218.239 282.352 218.416 281.998 218.416 281.54C218.416 281.092 218.239 280.742 217.884 280.49C217.539 280.238 217.081 280.112 216.512 280.112C215.915 280.112 215.439 280.238 215.084 280.49C214.739 280.742 214.566 281.092 214.566 281.54C214.566 281.998 214.739 282.352 215.084 282.604C215.439 282.847 215.915 282.968 216.512 282.968C217.072 282.968 217.529 282.847 217.884 282.604ZM240.118 282.786H228.75V281.834H240.118V282.786ZM238.802 278.306C238.802 279.062 238.447 279.66 237.738 280.098C237.028 280.528 235.932 280.742 234.448 280.742C232.973 280.742 231.876 280.528 231.158 280.098C230.439 279.66 230.08 279.062 230.08 278.306C230.08 277.961 230.173 277.639 230.36 277.34C230.546 277.042 230.822 276.79 231.186 276.584C231.559 276.37 232.016 276.202 232.558 276.08C233.099 275.959 233.729 275.898 234.448 275.898C235.866 275.898 236.949 276.132 237.696 276.598C238.433 277.056 238.802 277.625 238.802 278.306ZM236.744 279.496C237.322 279.226 237.612 278.829 237.612 278.306C237.612 277.83 237.318 277.452 236.73 277.172C236.151 276.892 235.39 276.752 234.448 276.752C233.972 276.752 233.538 276.79 233.146 276.864C232.754 276.939 232.418 277.042 232.138 277.172C231.858 277.303 231.643 277.466 231.494 277.662C231.344 277.858 231.27 278.073 231.27 278.306C231.27 278.838 231.55 279.235 232.11 279.496C232.679 279.748 233.458 279.874 234.448 279.874C235.4 279.874 236.165 279.748 236.744 279.496ZM238.578 287.224C238.307 287.654 237.817 287.999 237.108 288.26C236.398 288.522 235.507 288.652 234.434 288.652C233.715 288.652 233.08 288.592 232.53 288.47C231.979 288.349 231.512 288.181 231.13 287.966C230.756 287.761 230.472 287.514 230.276 287.224C230.089 286.935 229.996 286.622 229.996 286.286C229.996 285.624 230.374 285.059 231.13 284.592C231.904 284.126 233.006 283.892 234.434 283.892C235.852 283.892 236.949 284.126 237.724 284.592C238.489 285.05 238.872 285.614 238.872 286.286C238.872 286.622 238.774 286.935 238.578 287.224ZM236.758 287.378C237.374 287.117 237.682 286.758 237.682 286.3C237.682 285.843 237.374 285.465 236.758 285.166C236.188 284.877 235.414 284.732 234.434 284.732C233.939 284.732 233.491 284.77 233.09 284.844C232.698 284.919 232.357 285.022 232.068 285.152C231.778 285.283 231.554 285.446 231.396 285.642C231.246 285.838 231.172 286.053 231.172 286.286C231.172 286.51 231.246 286.711 231.396 286.888C231.554 287.075 231.778 287.234 232.068 287.364C232.357 287.504 232.698 287.607 233.09 287.672C233.491 287.747 233.939 287.784 234.434 287.784C235.311 287.784 236.086 287.649 236.758 287.378ZM252.327 281.652H240.973V280.7H249.373C249.429 280.448 249.485 280.168 249.541 279.86C249.597 279.552 249.648 279.244 249.695 278.936C249.751 278.619 249.793 278.325 249.821 278.054C249.858 277.784 249.881 277.532 249.891 277.298H242.303V276.346H250.745C250.857 276.346 250.931 276.37 250.969 276.416C251.015 276.454 251.039 276.528 251.039 276.64C251.02 276.92 250.987 277.233 250.941 277.578C250.903 277.924 250.857 278.278 250.801 278.642C250.745 279.006 250.684 279.366 250.619 279.72C250.553 280.075 250.493 280.402 250.437 280.7H252.327V281.652ZM249.709 287.336V285.404H243.577V287.336H249.709ZM250.787 287.952C250.787 288.064 250.763 288.139 250.717 288.176C250.679 288.223 250.605 288.246 250.493 288.246H242.793C242.681 288.246 242.601 288.223 242.555 288.176C242.517 288.139 242.499 288.064 242.499 287.952V282.968H243.577V284.494H249.709V282.968H250.787V287.952ZM259.244 284.9C258.684 284.994 258.044 285.073 257.326 285.138C256.616 285.194 255.898 285.222 255.17 285.222H254.512C254.39 285.222 254.311 285.204 254.274 285.166C254.236 285.129 254.218 285.054 254.218 284.942V277.06C254.218 276.948 254.236 276.874 254.274 276.836C254.32 276.79 254.4 276.766 254.512 276.766H258.432V277.704H255.31V284.214H255.576C255.828 284.214 256.117 284.21 256.444 284.2C256.77 284.191 257.102 284.172 257.438 284.144C257.774 284.116 258.096 284.088 258.404 284.06C258.721 284.023 259.001 283.981 259.244 283.934V284.9ZM263.668 288.386H262.59V281.484H260.938V287.798H259.874V276.192H260.938V280.42H262.59V275.982H263.668V288.386ZM271.411 277.13H267.687V276.192H271.411V277.13ZM272.503 285.726C271.177 284.933 270.207 283.785 269.591 282.282C269.339 282.982 268.956 283.636 268.443 284.242C267.939 284.849 267.309 285.432 266.553 285.992L265.601 285.208C267.85 283.958 268.979 282.245 268.989 280.07V279.482H266.287V278.516H272.853V279.482H270.165V280.07C270.146 282.049 271.187 283.668 273.287 284.928L272.503 285.726ZM276.003 288.386H274.897V281.862H272.377V280.896H274.897V275.982H276.003V288.386ZM286.952 281.484V279.342H283.48V281.484H286.952ZM288.03 282.128C288.03 282.24 288.007 282.32 287.96 282.366C287.923 282.404 287.848 282.422 287.736 282.422H282.696C282.584 282.422 282.505 282.404 282.458 282.366C282.421 282.32 282.402 282.24 282.402 282.128V276.416H283.48V278.39H286.952V276.416H288.03V282.128ZM291.572 283.64H290.466V275.982H291.572V278.754H293.294V279.706H291.572V283.64ZM291.894 286.132C291.894 286.907 291.507 287.514 290.732 287.952C289.957 288.4 288.931 288.624 287.652 288.624C286.373 288.624 285.351 288.4 284.586 287.952C283.821 287.504 283.438 286.898 283.438 286.132C283.438 285.759 283.536 285.418 283.732 285.11C283.937 284.793 284.227 284.527 284.6 284.312C284.973 284.098 285.412 283.93 285.916 283.808C286.429 283.687 287.008 283.626 287.652 283.626C288.94 283.626 289.967 283.855 290.732 284.312C291.507 284.779 291.894 285.386 291.894 286.132ZM290.732 286.146C290.732 285.642 290.438 285.25 289.85 284.97C289.281 284.681 288.548 284.536 287.652 284.536C287.437 284.536 287.227 284.546 287.022 284.564C286.826 284.583 286.635 284.611 286.448 284.648C286.261 284.686 286.089 284.732 285.93 284.788C285.771 284.835 285.622 284.891 285.482 284.956C285.211 285.096 284.997 285.264 284.838 285.46C284.689 285.656 284.614 285.88 284.614 286.132C284.614 286.384 284.689 286.608 284.838 286.804C284.997 287.01 285.216 287.182 285.496 287.322C286.037 287.612 286.756 287.756 287.652 287.756C288.557 287.756 289.29 287.616 289.85 287.336C290.121 287.196 290.335 287.024 290.494 286.818C290.653 286.622 290.732 286.398 290.732 286.146ZM299.371 281.148V279.202H295.913V281.148H299.371ZM304.215 282.66H303.123V279.412H300.449V281.792C300.449 281.904 300.426 281.984 300.379 282.03C300.342 282.068 300.267 282.086 300.155 282.086H295.115C295.003 282.086 294.924 282.068 294.877 282.03C294.84 281.984 294.821 281.904 294.821 281.792V276.402H295.913V278.264H299.371V276.402H300.449V278.46H303.123V275.982H304.215V282.66ZM303.137 287.364V285.614H297.229V287.364H303.137ZM304.201 287.966C304.201 288.078 304.178 288.153 304.131 288.19C304.094 288.237 304.019 288.26 303.907 288.26H296.445C296.333 288.26 296.254 288.237 296.207 288.19C296.17 288.153 296.151 288.078 296.151 287.966V283.262H297.243V284.718H303.109V283.262H304.201V287.966ZM315.921 285.502C315.687 285.353 315.459 285.171 315.235 284.956C315.011 284.742 314.782 284.49 314.549 284.2C314.101 283.64 313.76 282.978 313.527 282.212C313.424 282.576 313.284 282.94 313.107 283.304C312.929 283.668 312.729 284.014 312.505 284.34C312.271 284.667 312.019 284.975 311.749 285.264C311.478 285.544 311.207 285.782 310.937 285.978L309.971 285.278C311.007 284.578 311.767 283.701 312.253 282.646C312.747 281.592 312.995 280.318 312.995 278.824V277.746H310.923V276.808H316.145V277.746H314.129V278.796C314.129 279.496 314.171 280.145 314.255 280.742C314.348 281.34 314.493 281.89 314.689 282.394C314.894 282.889 315.165 283.332 315.501 283.724C315.837 284.116 316.252 284.457 316.747 284.746L315.921 285.502ZM320.961 288.386H319.911V275.982H320.961V288.386ZM318.539 287.798H317.447V280.994H315.389V279.944H317.447V276.192H318.539V287.798ZM330.86 280.602C330.972 280.042 331.06 279.501 331.126 278.978C331.191 278.456 331.238 277.896 331.266 277.298H323.65V276.346H332.106C332.218 276.346 332.292 276.37 332.33 276.416C332.376 276.454 332.4 276.528 332.4 276.64C332.372 277.462 332.311 278.19 332.218 278.824C332.124 279.45 332.026 280.042 331.924 280.602H330.86ZM333.702 282.506H322.334V281.54H326.87V278.922H327.99V281.54H333.702V282.506ZM328.018 288.624C326.571 288.624 325.465 288.386 324.7 287.91C323.925 287.444 323.538 286.851 323.538 286.132C323.538 285.423 323.925 284.83 324.7 284.354C325.465 283.878 326.571 283.64 328.018 283.64C329.446 283.64 330.547 283.878 331.322 284.354C332.096 284.83 332.484 285.423 332.484 286.132C332.484 286.851 332.096 287.444 331.322 287.91C330.547 288.386 329.446 288.624 328.018 288.624ZM328.018 287.742C328.97 287.742 329.749 287.602 330.356 287.322C330.972 287.061 331.28 286.66 331.28 286.118C331.28 285.614 330.972 285.227 330.356 284.956C329.749 284.676 328.97 284.536 328.018 284.536C327.038 284.536 326.249 284.676 325.652 284.956C325.064 285.227 324.77 285.614 324.77 286.118C324.77 286.65 325.064 287.052 325.652 287.322C326.249 287.602 327.038 287.742 328.018 287.742Z" fill="white" fill-opacity="0.9"/>
<path d="M134.449 12.908C134.434 13.5533 134.508 14.0813 134.669 14.492C134.83 14.888 135.05 15.2033 135.329 15.438C135.622 15.6727 135.96 15.834 136.341 15.922C136.737 15.9953 137.162 16.032 137.617 16.032C138.013 16.032 138.402 15.9807 138.783 15.878C139.164 15.7753 139.509 15.614 139.817 15.394C140.125 15.174 140.367 14.9027 140.543 14.58C140.734 14.2427 140.829 13.8467 140.829 13.392C140.829 12.952 140.748 12.5853 140.587 12.292C140.426 11.9987 140.169 11.742 139.817 11.522C139.48 11.302 139.047 11.0967 138.519 10.906C138.006 10.7007 137.39 10.466 136.671 10.202C136.128 10.026 135.593 9.82067 135.065 9.586C134.537 9.35133 134.06 9.058 133.635 8.706C133.224 8.354 132.887 7.92867 132.623 7.43C132.374 6.91667 132.249 6.29333 132.249 5.56C132.249 4.812 132.403 4.14467 132.711 3.558C133.034 2.97133 133.452 2.48 133.965 2.084C134.478 1.67333 135.058 1.36533 135.703 1.16C136.348 0.954666 136.994 0.851999 137.639 0.851999C138.343 0.851999 138.952 0.917999 139.465 1.05C139.978 1.16733 140.492 1.36533 141.005 1.644C141.621 1.96667 142.12 2.436 142.501 3.052C142.882 3.668 143.08 4.46 143.095 5.428L140.543 5.428C140.514 4.944 140.418 4.54067 140.257 4.218C140.096 3.89533 139.883 3.646 139.619 3.47C139.37 3.27933 139.084 3.14733 138.761 3.074C138.438 3.00067 138.101 2.964 137.749 2.964C136.898 2.964 136.194 3.17667 135.637 3.602C135.08 4.02733 134.801 4.59933 134.801 5.318C134.801 5.83133 134.896 6.24933 135.087 6.572C135.292 6.89467 135.571 7.17333 135.923 7.408C136.29 7.64267 136.722 7.848 137.221 8.024C137.72 8.2 138.277 8.398 138.893 8.618C139.465 8.82333 140.015 9.04333 140.543 9.278C141.086 9.498 141.562 9.77667 141.973 10.114C142.398 10.4513 142.736 10.8693 142.985 11.368C143.249 11.8667 143.381 12.49 143.381 13.238C143.381 14.074 143.227 14.822 142.919 15.482C142.611 16.1273 142.178 16.6407 141.621 17.022C140.99 17.4913 140.345 17.792 139.685 17.924C139.04 18.0707 138.284 18.144 137.419 18.144C135.688 18.144 134.324 17.6967 133.327 16.802C132.344 15.8927 131.846 14.5947 131.831 12.908H134.449ZM151.666 15.856C152.223 15.4747 152.634 14.954 152.898 14.294C153.177 13.6193 153.316 12.886 153.316 12.094C153.316 11.5953 153.257 11.104 153.14 10.62C153.023 10.1213 152.839 9.674 152.59 9.278C152.355 8.882 152.047 8.56667 151.666 8.332C151.285 8.08267 150.83 7.958 150.302 7.958C149.774 7.958 149.319 8.08267 148.938 8.332C148.557 8.56667 148.241 8.882 147.992 9.278C147.757 9.674 147.581 10.1213 147.464 10.62C147.347 11.104 147.288 11.5953 147.288 12.094C147.288 12.6073 147.347 13.1133 147.464 13.612C147.581 14.096 147.757 14.5287 147.992 14.91C148.241 15.2913 148.557 15.6067 148.938 15.856C149.319 16.0907 149.774 16.208 150.302 16.208C150.845 16.208 151.299 16.0907 151.666 15.856ZM154.482 16.296C154.027 16.868 153.448 17.33 152.744 17.682C152.055 18.034 151.241 18.21 150.302 18.21C149.349 18.21 148.52 18.034 147.816 17.682C147.127 17.33 146.555 16.868 146.1 16.296C145.66 15.7093 145.33 15.0493 145.11 14.316C144.89 13.5827 144.78 12.842 144.78 12.094C144.78 11.346 144.89 10.6053 145.11 9.872C145.33 9.13867 145.66 8.486 146.1 7.914C146.555 7.32733 147.127 6.858 147.816 6.506C148.52 6.154 149.349 5.978 150.302 5.978C151.241 5.978 152.055 6.154 152.744 6.506C153.448 6.858 154.027 7.32733 154.482 7.914C154.951 8.486 155.296 9.13867 155.516 9.872C155.736 10.6053 155.846 11.346 155.846 12.094C155.846 12.842 155.736 13.5827 155.516 14.316C155.296 15.0493 154.951 15.7093 154.482 16.296ZM160.132 17.814H157.734V0.961999L160.132 0.961999V17.814ZM172.396 17.858H170.042L170.086 16.824C169.792 17.2053 169.389 17.528 168.876 17.792C168.362 18.0707 167.724 18.21 166.962 18.21C165.627 18.21 164.622 17.8287 163.948 17.066C163.288 16.3033 162.958 15.2327 162.958 13.854V6.33L165.4 6.33V13.304C165.4 13.8467 165.436 14.3087 165.51 14.69C165.583 15.0567 165.7 15.3573 165.862 15.592C166.023 15.812 166.243 15.9733 166.522 16.076C166.8 16.1787 167.138 16.23 167.534 16.23C167.842 16.23 168.15 16.164 168.458 16.032C168.766 15.9 169.037 15.6947 169.272 15.416C169.521 15.1373 169.719 14.7853 169.866 14.36C170.012 13.92 170.086 13.3993 170.086 12.798V6.33H172.396V17.858ZM181.009 17.88C180.76 17.9827 180.459 18.056 180.107 18.1C179.755 18.1587 179.454 18.188 179.205 18.188C178.78 18.188 178.376 18.1367 177.995 18.034C177.628 17.946 177.298 17.7847 177.005 17.55C176.726 17.33 176.506 17.0367 176.345 16.67C176.184 16.2887 176.103 15.812 176.103 15.24V8.266H173.969V6.264L176.103 6.264V3.118H178.457V6.264L180.877 6.264V8.266H178.457V14.778C178.457 15.394 178.53 15.79 178.677 15.966C178.838 16.142 179.095 16.23 179.447 16.23C179.652 16.23 179.887 16.2153 180.151 16.186C180.43 16.1567 180.716 16.0613 181.009 15.9V17.88ZM185.097 17.814H182.699V6.044H185.097V17.814ZM185.185 3.602L182.611 3.602V1.16L185.185 1.16V3.602ZM193.818 15.856C194.376 15.4747 194.786 14.954 195.05 14.294C195.329 13.6193 195.468 12.886 195.468 12.094C195.468 11.5953 195.41 11.104 195.292 10.62C195.175 10.1213 194.992 9.674 194.742 9.278C194.508 8.882 194.2 8.56667 193.818 8.332C193.437 8.08267 192.982 7.958 192.454 7.958C191.926 7.958 191.472 8.08267 191.09 8.332C190.709 8.56667 190.394 8.882 190.144 9.278C189.91 9.674 189.734 10.1213 189.616 10.62C189.499 11.104 189.44 11.5953 189.44 12.094C189.44 12.6073 189.499 13.1133 189.616 13.612C189.734 14.096 189.91 14.5287 190.144 14.91C190.394 15.2913 190.709 15.6067 191.09 15.856C191.472 16.0907 191.926 16.208 192.454 16.208C192.997 16.208 193.452 16.0907 193.818 15.856ZM196.634 16.296C196.18 16.868 195.6 17.33 194.896 17.682C194.207 18.034 193.393 18.21 192.454 18.21C191.501 18.21 190.672 18.034 189.968 17.682C189.279 17.33 188.707 16.868 188.252 16.296C187.812 15.7093 187.482 15.0493 187.262 14.316C187.042 13.5827 186.932 12.842 186.932 12.094C186.932 11.346 187.042 10.6053 187.262 9.872C187.482 9.13867 187.812 8.486 188.252 7.914C188.707 7.32733 189.279 6.858 189.968 6.506C190.672 6.154 191.501 5.978 192.454 5.978C193.393 5.978 194.207 6.154 194.896 6.506C195.6 6.858 196.18 7.32733 196.634 7.914C197.104 8.486 197.448 9.13867 197.668 9.872C197.888 10.6053 197.998 11.346 197.998 12.094C197.998 12.842 197.888 13.5827 197.668 14.316C197.448 15.0493 197.104 15.7093 196.634 16.296ZM209.413 17.858H206.971V10.884C206.971 10.3413 206.934 9.88667 206.861 9.52C206.787 9.13867 206.67 8.838 206.509 8.618C206.347 8.38333 206.127 8.21467 205.849 8.112C205.57 8.00933 205.233 7.958 204.837 7.958C204.529 7.958 204.221 8.024 203.913 8.156C203.619 8.288 203.348 8.49333 203.099 8.772C202.864 9.05067 202.673 9.41 202.527 9.85C202.38 10.2753 202.307 10.7887 202.307 11.39V17.858H199.975V6.33L202.351 6.33V7.342C203.04 6.43267 204.067 5.978 205.431 5.978C206.765 5.978 207.763 6.35933 208.423 7.122C209.083 7.88467 209.413 8.95533 209.413 10.334V17.858ZM213.978 14.14C214.007 14.58 214.081 14.9393 214.198 15.218C214.33 15.482 214.499 15.6873 214.704 15.834C214.924 15.9807 215.166 16.0833 215.43 16.142C215.709 16.186 216.002 16.208 216.31 16.208C216.618 16.208 216.911 16.1787 217.19 16.12C217.469 16.0613 217.711 15.966 217.916 15.834C218.121 15.702 218.283 15.5333 218.4 15.328C218.517 15.108 218.576 14.8367 218.576 14.514C218.576 14.1767 218.503 13.9127 218.356 13.722C218.209 13.5313 218.004 13.3773 217.74 13.26C217.476 13.1427 217.161 13.0473 216.794 12.974C216.427 12.886 216.031 12.7833 215.606 12.666C215.181 12.5633 214.748 12.446 214.308 12.314C213.868 12.182 213.465 12.006 213.098 11.786C212.731 11.5513 212.431 11.2507 212.196 10.884C211.976 10.5173 211.866 10.0407 211.866 9.454C211.866 8.80867 211.998 8.266 212.262 7.826C212.541 7.386 212.893 7.02667 213.318 6.748C213.758 6.46933 214.235 6.27133 214.748 6.154C215.276 6.03667 215.789 5.978 216.288 5.978C216.831 5.978 217.359 6.02933 217.872 6.132C218.385 6.23467 218.847 6.42533 219.258 6.704C219.669 6.968 220.013 7.342 220.292 7.826C220.571 8.29533 220.747 8.904 220.82 9.652H218.268C218.048 8.52267 217.359 7.958 216.2 7.958C215.672 7.958 215.232 8.05333 214.88 8.244C214.528 8.42 214.352 8.75733 214.352 9.256C214.352 9.57867 214.44 9.82067 214.616 9.982C214.792 10.1287 215.063 10.2607 215.43 10.378C215.797 10.4953 216.259 10.6273 216.816 10.774C217.373 10.906 218.026 11.1113 218.774 11.39C219.625 11.6687 220.226 12.05 220.578 12.534C220.945 13.018 221.128 13.59 221.128 14.25C221.128 14.9393 220.981 15.5333 220.688 16.032C220.409 16.516 220.035 16.9193 219.566 17.242C219.097 17.5793 218.554 17.8213 217.938 17.968C217.337 18.1293 216.713 18.21 216.068 18.21C215.569 18.21 215.056 18.144 214.528 18.012C214 17.88 213.509 17.6527 213.054 17.33C212.614 17.022 212.24 16.6113 211.932 16.098C211.639 15.57 211.47 14.9173 211.426 14.14H213.978Z" fill="#FF5924"/>
<path d="M73.4985 134.353V130.193H71.4505V134.353H73.4985ZM76.6985 134.353V130.193H74.6505V134.353H76.6985ZM77.8825 135.137C77.8825 135.265 77.8558 135.356 77.8025 135.409C77.7598 135.452 77.6745 135.473 77.5465 135.473H70.6025C70.4745 135.473 70.3838 135.452 70.3305 135.409C70.2878 135.356 70.2665 135.265 70.2665 135.137V125.537H71.4665V129.121H73.4985V125.537H74.6505V129.121H76.6825V125.537H77.8825V135.137ZM80.9865 138.961H79.7865V124.769H80.9865V129.905H82.9065V131.057H80.9865V138.961ZM95.0996 133.505H85.6436C85.5156 133.505 85.4249 133.484 85.3716 133.441C85.3289 133.388 85.3076 133.297 85.3076 133.169V129.297C85.3076 129.169 85.3289 129.084 85.3716 129.041C85.4249 128.988 85.5156 128.961 85.6436 128.961H93.4036V126.529H85.2756V125.457H94.3156C94.4436 125.457 94.5289 125.484 94.5716 125.537C94.6249 125.58 94.6516 125.665 94.6516 125.793V129.697C94.6516 129.825 94.6249 129.916 94.5716 129.969C94.5289 130.012 94.4436 130.033 94.3156 130.033H86.5556V132.433H95.0996V133.505ZM96.5556 137.025H83.5316V135.937H96.5556V137.025ZM106.669 133.953C106.893 132.801 107.085 131.585 107.245 130.305C107.33 129.654 107.399 129.036 107.453 128.449C107.506 127.852 107.543 127.265 107.565 126.689H99.0207V125.617H108.557C108.685 125.617 108.77 125.644 108.813 125.697C108.866 125.74 108.893 125.825 108.893 125.953C108.85 126.593 108.797 127.249 108.733 127.921C108.679 128.593 108.61 129.281 108.525 129.985C108.439 130.668 108.343 131.35 108.237 132.033C108.141 132.705 108.039 133.345 107.933 133.953H106.669ZM110.525 137.185H97.4847V136.081H102.381V130.641H103.645V136.081H110.525V137.185Z" fill="white"/>
<path d="M170.123 129.137C169.419 128.934 168.763 128.657 168.155 128.305C167.557 127.942 167.104 127.489 166.795 126.945C166.453 127.553 165.989 128.065 165.403 128.481C164.827 128.886 164.139 129.206 163.339 129.441L162.443 128.593C162.997 128.454 163.499 128.284 163.947 128.081C164.405 127.878 164.795 127.644 165.115 127.377C165.445 127.11 165.696 126.812 165.867 126.481C166.048 126.14 166.139 125.761 166.139 125.345V124.945H167.451V125.361C167.451 125.777 167.541 126.145 167.723 126.465C167.904 126.774 168.149 127.041 168.459 127.265C168.768 127.489 169.125 127.681 169.531 127.841C169.936 128.001 170.379 128.134 170.859 128.241L170.123 129.137ZM171.755 130.929C171.477 130.982 171.131 131.036 170.715 131.089C170.299 131.132 169.851 131.169 169.371 131.201C168.891 131.233 168.416 131.26 167.947 131.281C167.488 131.302 167.077 131.313 166.715 131.313V132.961H165.451V131.329H161.995V130.273H166.187C166.699 130.273 167.227 130.262 167.771 130.241C168.325 130.22 168.859 130.188 169.371 130.145C169.883 130.113 170.347 130.076 170.763 130.033C171.179 129.99 171.509 129.948 171.755 129.905V130.929ZM173.563 132.945H172.331V124.785H173.563V132.945ZM172.283 137.793V136.145H165.547V137.793H172.283ZM173.563 138.481C173.563 138.609 173.536 138.694 173.483 138.737C173.44 138.79 173.355 138.817 173.227 138.817H164.603C164.475 138.817 164.384 138.79 164.331 138.737C164.288 138.694 164.267 138.609 164.267 138.481V133.633H165.547V135.121H172.283V133.633H173.563V138.481ZM184.652 133.953C184.876 132.801 185.068 131.585 185.228 130.305C185.313 129.654 185.382 129.036 185.436 128.449C185.489 127.852 185.526 127.265 185.548 126.689H177.004V125.617H186.54C186.668 125.617 186.753 125.644 186.796 125.697C186.849 125.74 186.876 125.825 186.876 125.953C186.833 126.593 186.78 127.249 186.716 127.921C186.662 128.593 186.593 129.281 186.508 129.985C186.422 130.668 186.326 131.35 186.22 132.033C186.124 132.705 186.022 133.345 185.916 133.953H184.652ZM188.508 137.185H175.468V136.081H180.364V130.641H181.628V136.081H188.508V137.185Z" fill="white"/>
<path d="M241.05 131.441C240.719 131.793 240.325 132.07 239.866 132.273C239.418 132.465 238.922 132.561 238.378 132.561C237.823 132.561 237.317 132.465 236.858 132.273C236.399 132.07 236.005 131.793 235.674 131.441C235.343 131.1 235.087 130.7 234.906 130.241C234.725 129.782 234.634 129.292 234.634 128.769C234.634 128.246 234.725 127.756 234.906 127.297C235.087 126.838 235.343 126.433 235.674 126.081C236.005 125.74 236.399 125.468 236.858 125.265C237.317 125.062 237.823 124.961 238.378 124.961C238.922 124.961 239.418 125.062 239.866 125.265C240.325 125.468 240.719 125.74 241.05 126.081C241.381 126.433 241.637 126.838 241.818 127.297C242.01 127.756 242.106 128.246 242.106 128.769C242.106 129.292 242.01 129.782 241.818 130.241C241.637 130.7 241.381 131.1 241.05 131.441ZM238.378 131.409C239.146 131.409 239.738 131.153 240.154 130.641C240.581 130.15 240.794 129.526 240.794 128.769C240.794 128.033 240.581 127.404 240.154 126.881C239.738 126.358 239.146 126.097 238.378 126.097C237.61 126.097 237.013 126.358 236.586 126.881C236.159 127.404 235.946 128.033 235.946 128.769C235.946 129.526 236.159 130.15 236.586 130.641C237.013 131.153 237.61 131.409 238.378 131.409ZM245.562 135.217H244.33V124.785H245.562V128.289H247.514V129.409H245.562V135.217ZM246.026 138.673H236.986C236.858 138.673 236.767 138.646 236.714 138.593C236.671 138.55 236.65 138.465 236.65 138.337V134.065H237.93V137.585H246.026V138.673ZM256.187 126.513H253.387V127.393C253.387 127.937 253.472 128.433 253.643 128.881C253.824 129.329 254.059 129.734 254.347 130.097C254.699 130.577 255.12 130.982 255.611 131.313C256.102 131.644 256.587 131.889 257.067 132.049C256.918 132.198 256.763 132.364 256.603 132.545C256.443 132.726 256.32 132.881 256.235 133.009C255.947 132.881 255.632 132.71 255.291 132.497C254.96 132.273 254.635 132.017 254.315 131.729C254.006 131.473 253.712 131.185 253.435 130.865C253.168 130.534 252.939 130.177 252.747 129.793C252.598 130.198 252.406 130.577 252.171 130.929C251.947 131.27 251.691 131.59 251.403 131.889C251.083 132.198 250.736 132.486 250.363 132.753C250 133.009 249.627 133.233 249.243 133.425C249.147 133.318 248.992 133.174 248.779 132.993C248.576 132.812 248.406 132.662 248.267 132.545C248.843 132.3 249.387 131.985 249.899 131.601C250.411 131.217 250.843 130.769 251.195 130.257C251.472 129.862 251.691 129.43 251.851 128.961C252.022 128.481 252.107 127.953 252.107 127.377V126.513H249.275V125.441H256.187V126.513ZM260.235 135.185H258.987V129.249H256.027V128.129H258.987V124.785H260.235V135.185ZM260.635 138.673H251.403C251.275 138.673 251.184 138.646 251.131 138.593C251.088 138.55 251.067 138.465 251.067 138.337V134.129H252.363V137.585H260.635V138.673ZM270.668 128.433H262.604V127.345H270.668V128.433ZM268.732 126.097L264.572 126.113V125.041H268.732V126.097ZM269.9 134.353C269.719 134.758 269.473 135.116 269.164 135.425C268.855 135.724 268.487 135.958 268.06 136.129C267.633 136.3 267.164 136.385 266.652 136.385C266.14 136.385 265.665 136.3 265.228 136.129C264.801 135.958 264.433 135.724 264.124 135.425C263.815 135.116 263.569 134.758 263.388 134.353C263.217 133.937 263.132 133.473 263.132 132.961C263.132 132.449 263.217 131.99 263.388 131.585C263.559 131.169 263.799 130.812 264.108 130.513C264.417 130.214 264.785 129.985 265.212 129.825C265.649 129.654 266.129 129.569 266.652 129.569C267.175 129.569 267.649 129.654 268.076 129.825C268.513 129.985 268.887 130.214 269.196 130.513C269.505 130.812 269.745 131.169 269.916 131.585C270.087 131.99 270.172 132.449 270.172 132.961C270.172 133.409 270.081 133.873 269.9 134.353ZM266.652 135.281C267.356 135.281 267.9 135.062 268.284 134.625C268.679 134.188 268.876 133.633 268.876 132.961C268.876 132.278 268.679 131.724 268.284 131.297C267.9 130.87 267.356 130.657 266.652 130.657C265.948 130.657 265.399 130.87 265.004 131.297C264.62 131.724 264.428 132.278 264.428 132.961C264.428 133.633 264.62 134.188 265.004 134.625C265.399 135.062 265.948 135.281 266.652 135.281ZM273.516 138.977H272.268V124.785H273.516V130.545H275.628V131.713H273.516V138.977ZM276.141 135.105C277.624 134.134 278.765 132.956 279.565 131.569C280.376 130.172 280.803 128.582 280.845 126.801L276.957 126.801V125.729L281.789 125.729C281.917 125.729 282.003 125.756 282.045 125.809C282.099 125.852 282.125 125.937 282.125 126.065C282.04 128.23 281.613 130.086 280.845 131.633C280.067 133.201 278.845 134.614 277.181 135.873L276.141 135.105ZM288.093 138.977H286.861V124.785H288.093V138.977ZM285.341 138.289H284.125V131.121H281.709V129.953H284.125V125.025H285.341V138.289Z" fill="white"/>
<circle cx="90.692" cy="133.04" r="52.7105" stroke="#FF5924"/>
<circle cx="175.651" cy="133.04" r="52.7105" stroke="white"/>
<circle cx="262.308" cy="133.04" r="52.7105" stroke="black"/>
</svg>
